<?xml version="1.0" encoding="UTF-8"?>
<svg width="46px" height="60px" viewBox="0 0 46 60" version="1.1" xmlns="http://www.w3.org/2000/svg" xmlns:xlink="http://www.w3.org/1999/xlink">
    <!-- Generator: Sketch 55 (78076) - https://sketchapp.com -->
    <title>agenda</title>
    <desc>Created with Sketch.</desc>
    <defs>
        <linearGradient x1="100%" y1="51.964173%" x2="0%" y2="51.964173%" id="linearGradient-1">
            <stop stop-color="#FB927E" offset="0%"></stop>
            <stop stop-color="#FF4D7B" offset="100%"></stop>
        </linearGradient>
    </defs>
    <g id="Page-1" stroke="none" stroke-width="1" fill="none" fill-rule="evenodd">
        <g id="Desktop" transform="translate(-1066.000000, -3380.000000)" fill="url(#linearGradient-1)" fill-rule="nonzero">
            <g id="Services" transform="translate(213.000000, 2854.000000)">
                <g id="agenda" transform="translate(853.000000, 526.000000)">
                    <path d="M6,0 C4.453,0 2.967,0.662 1.922,1.817 C0.895,2.954 0.389,4.476 0.525,6 L0.5,6 L0.5,54.958 C0.5,57.738 2.762,60 5.542,60 L45.5,60 L45.5,11 L45.5,9 L45.5,0 L6,0 Z M2.5,54.958 L2.5,9.998 C3.336,10.627 4.375,11 5.5,11 L5.5,57.996 C3.842,57.973 2.5,56.621 2.5,54.958 Z M43.5,58 L7.5,58 L7.5,11 L10.5,11 L10.5,36.201 C10.5,36.883 10.941,37.463 11.599,37.645 C11.736,37.682 11.872,37.701 12.007,37.701 C12.022,37.701 12.036,37.696 12.051,37.695 C12.096,37.694 12.139,37.683 12.184,37.678 C12.287,37.666 12.386,37.645 12.483,37.612 C12.531,37.596 12.576,37.577 12.621,37.556 C12.715,37.513 12.801,37.459 12.884,37.397 C12.92,37.37 12.957,37.347 12.99,37.317 C13.101,37.218 13.202,37.106 13.282,36.971 L17.499,29.943 L21.716,36.972 C22.043,37.517 22.655,37.773 23.266,37.659 C23.311,37.651 23.355,37.657 23.4,37.645 C24.057,37.462 24.499,36.882 24.499,36.201 L24.499,11 L43.499,11 L43.499,58 L43.5,58 Z M22.64,9.483 L22.637,9.49 L22.5,9.764 L22.5,9.806 L22.4,10.036 L22.5,10.188 L22.5,10.3 L22.5,34.39 L17.5,26.057 L12.5,34.39 L12.5,10.236 L14.118,7 L23.882,7 L22.64,9.483 Z M25.118,9 L27.118,5 L12.882,5 L10.882,9 L6.212,9 C4.318,9 2.696,7.621 2.519,5.86 C2.418,4.862 2.733,3.903 3.406,3.159 C4.071,2.422 5.017,2 6,2 L43.5,2 L43.5,3 L38.5,3 C37.947,3 37.5,3.447 37.5,4 C37.5,4.553 37.947,5 38.5,5 L43.5,5 L43.5,6 L39.5,6 C38.947,6 38.5,6.447 38.5,7 C38.5,7.553 38.947,8 39.5,8 L43.5,8 L43.5,9 L25.118,9 Z" id="Shape"></path>
                </g>
            </g>
        </g>
    </g>
</svg>