<?xml version="1.0" encoding="UTF-8"?>
<svg width="60px" height="60px" viewBox="0 0 60 60" version="1.1" xmlns="http://www.w3.org/2000/svg" xmlns:xlink="http://www.w3.org/1999/xlink">
    <!-- Generator: Sketch 55 (78076) - https://sketchapp.com -->
    <title>apartment</title>
    <desc>Created with Sketch.</desc>
    <defs>
        <linearGradient x1="100%" y1="51.964173%" x2="0%" y2="51.964173%" id="linearGradient-1">
            <stop stop-color="#FB927E" offset="0%"></stop>
            <stop stop-color="#FF4D7B" offset="100%"></stop>
        </linearGradient>
        <linearGradient x1="100%" y1="51.964173%" x2="0%" y2="51.964173%" id="linearGradient-2">
            <stop stop-color="#FB927E" offset="0%"></stop>
            <stop stop-color="#FF4D7B" offset="100%"></stop>
        </linearGradient>
    </defs>
    <g id="Page-1" stroke="none" stroke-width="1" fill="none" fill-rule="evenodd">
        <g id="Desktop" transform="translate(-1067.000000, -2894.000000)" fill-rule="nonzero">
            <g id="Services" transform="translate(213.000000, 2854.000000)">
                <g id="Block-4" transform="translate(814.000000, 0.000000)">
                    <g id="apartment" transform="translate(40.000000, 40.000000)">
                        <path d="M59.0000391,57.999957 L54.9382031,57.999957 C54.9808594,57.6713626 55.0000781,57.3358542 55.0000781,56.9999941 C55.0000781,54.1774105 53.3757422,51.7748277 51.0001172,50.6622474 L51.0001172,16.9999551 C51.0001172,16.3999539 50.6001562,15.9999922 50.0001563,15.9999922 L35.0001563,15.9999922 L35.0001563,0.999962916 C35.0001563,0.399961744 34.6001953,2.57448571e-08 34.0001953,2.57448571e-08 L7.00019531,2.57448571e-08 C6.39996094,-0.000117161984 6,0.399844557 6,0.999845728 L6,57.999957 L0.999960937,57.999957 C0.399960937,57.999957 0,58.3999188 0,58.9999199 C0,59.5999211 0.399960937,60 0.999960937,60 L6.99996094,60 L9.99996094,60 L33.9999609,60 L53.7,60 L59.0000391,60 C59.6000391,60 60,59.6000383 60,59.0000371 C60,58.4000359 59.6000391,57.999957 59.0000391,57.999957 Z M48.9999609,50.0705665 C48.6735937,50.0249805 48.3400781,49.9999023 48,49.9999023 C47.2450781,49.9999023 46.5045703,50.1284573 45.8049609,50.3688093 C45.6307031,50.1365432 45.3498047,49.9999023 45,49.9999023 C44.4,49.9999023 44.0000391,50.3998641 44.0000391,50.9998652 L44.0000391,51.3063111 C43.6210547,51.5793586 43.2686719,51.8908435 42.9488672,52.2371333 C42.8983594,52.2905709 42.8486719,52.3447116 42.8000391,52.3997898 C41.9714062,51.3639675 40.9040625,50.6146692 39.6972656,50.2498638 C39.5239453,50.09084 39.285,49.9997852 39,49.9997852 C38.8885547,49.9997852 38.7840234,50.0137305 38.6875781,50.0400977 C38.4617578,50.0137305 38.2324219,49.9997852 38.0000391,49.9997852 C37.3733203,49.9997852 36.6676172,50.0811134 36.0958594,50.3132623 C36.0250781,50.3371686 35.9547656,50.3617781 35.8851563,50.3881453 C35.1941016,49.8263473 34.3858594,49.4219325 33.5341406,49.199393 C33.5251172,49.196932 33.5158594,49.1951742 33.5069531,49.1927133 C33.4326562,49.1736117 33.358125,49.1554476 33.2832422,49.1391585 C33.2225391,49.1257991 33.1611328,49.1141975 33.0998437,49.1027131 C33.0732422,49.0977912 33.0466406,49.0925178 33.0199219,49.0879474 C32.9555859,49.0768146 32.8910156,49.0669708 32.8259766,49.0579474 C32.7969141,49.0538458 32.7678516,49.050213 32.7386719,49.0465802 C32.6790234,49.0391973 32.6191406,49.0322833 32.5589062,49.0267754 C32.5149609,49.0226739 32.4708984,49.019627 32.4268359,49.0164629 C32.3797266,49.0131817 32.3327344,49.0093145 32.2852734,49.0070879 C32.1902344,49.0025176 32.0951953,48.9997051 32.0000391,48.9997051 C31.9264453,48.9997051 31.8534375,49.0012285 31.7807812,49.0039238 C31.7332031,49.0055645 31.6857422,49.0084942 31.6382812,49.0111895 C31.6192969,49.0123614 31.6000781,49.0131817 31.5810937,49.0144707 C30.6700781,49.0749396 29.775,49.3320495 28.9999219,49.787441 L28.9999219,17.999918 L33.9999609,17.999918 L48.9999609,17.999918 L48.9999609,50.0705665 L48.9999609,50.0705665 Z M8.00003906,1.99992581 L33,1.99992581 L33,15.9999922 L27.9999609,15.9999922 C27.3999609,15.9999922 27,16.3999539 27,16.9999551 L27,48.1000549 C26.4889453,47.5889992 25.8998438,47.1566937 25.2584766,46.8183727 C25.201875,46.7881383 25.1446875,46.7588413 25.0872656,46.7302475 C25.0646484,46.7191147 25.0422656,46.7075131 25.0195313,46.6966146 C24.3058594,46.3504421 23.5292578,46.1233323 22.7177344,46.0383712 C22.7063672,46.0371993 22.6948828,46.0362618 22.6833984,46.0350899 C22.5891797,46.0257149 22.4944922,46.0183321 22.3993359,46.0128242 C22.3741406,46.0113008 22.3489453,46.0097774 22.3236328,46.0084883 C22.2161719,46.0034492 22.1083594,46.0000508 21.9999609,46.0000508 C20.5116797,46.0000508 19.1328516,46.4895439 18,47.3122018 L18,47.0001309 C18,46.4001297 17.6000391,46.000168 17.0000391,46.000168 C16.4000391,46.000168 16.0000781,46.4001297 16.0000781,47.0001309 L16.0000781,49.0001738 C16.0000781,49.1501741 16.0250391,49.2876353 16.0719141,49.4095106 C15.5808984,50.2186918 15.2425781,51.1308811 15.1000781,52.100258 C13.9488281,52.2318598 12.8961328,52.6461185 12.0001172,53.2654556 L12.0001172,53.0002598 C12.0001172,52.4002586 11.6001563,52.0002969 11.0001563,52.0002969 C10.4001563,52.0002969 10.0001953,52.4002586 10.0001953,53.0002598 L10.0001953,55.0003027 C10.0001953,55.1170217 10.0157813,55.2258891 10.0446094,55.3259674 C9.54878906,56.1278831 9.21140625,57.0352676 9.07242188,58.0001914 L8.00003906,58.0001914 L8.00003906,1.99992581 L8.00003906,1.99992581 Z M15.5449219,54.0207305 C15.5647266,54.0189727 15.5847656,54.0178008 15.6046875,54.0162774 C15.6574219,54.0121758 15.7101563,54.0081914 15.7633594,54.0057305 C15.8417578,54.0022149 15.920625,53.9998711 16.0000781,53.9998711 C16.6000781,53.9998711 17.0000391,53.5999094 17.0000391,52.9999082 C17.0000391,50.1999418 19.2,47.9998594 22.0000781,47.9998594 C24.5000391,47.9998594 26.6000391,49.7998629 26.9000391,52.2998287 C26.9676563,52.570298 27.1282031,52.7931891 27.3478125,52.9413143 C27.3616406,52.9510409 27.3758203,52.9601816 27.3902344,52.969205 C27.4057031,52.9786972 27.4210547,52.9883066 27.4371094,52.9969785 C27.4740234,53.0173692 27.5124609,53.036002 27.5525391,53.0520567 C27.5540625,53.0526427 27.5554688,53.0532286 27.5569922,53.0539317 C27.6028125,53.072213 27.650625,53.0875646 27.6999609,53.0998693 C27.7000781,53.0998693 27.7000781,53.0998693 27.7001953,53.0999865 C27.7597266,53.1197913 27.8273438,53.1274085 27.8988281,53.1251819 C28.2275391,53.1299866 28.5332813,52.9502206 28.7000391,52.7002592 C28.7000391,52.700142 28.7001563,52.700142 28.7002734,52.7000248 C28.7002734,52.7000248 28.7002734,52.7000248 28.7002734,52.7000248 L28.8002344,52.6000637 C29.6002734,51.6001008 30.7001953,51.0000996 32.0002734,51.0000996 C32.6755078,51.0000996 33.3503906,51.1892406 33.9561328,51.5429132 C32.7632813,52.6645169 32.086875,54.1266682 32.0082422,55.6911244 C32.0029688,55.7934293 32.0002734,55.8965545 32.0002734,56.0001484 C32.0002734,56.6955404 32.1159375,57.361987 32.3448047,58.0001914 L11.1,58.0001914 C11.5680469,55.8471013 13.3504688,54.2200668 15.5449219,54.0207305 Z M34.7055469,57.999957 C34.3235156,57.3537839 34.1000391,56.5898371 34.1000391,55.8999529 C34.1000391,54.7941695 34.5359766,53.7979566 35.2852734,53.0697521 C35.4284766,52.9369784 35.5811719,52.8144 35.7424219,52.7034233 C35.8986328,52.7045951 36.0557812,52.6720169 36.2000391,52.5999465 C38.4,51.3999441 41.0000391,52.4999854 41.8000781,54.6999506 C41.9000391,54.9999512 42.2000391,55.2999518 42.7000781,55.2999518 C42.795,55.2999518 42.9,55.2697173 43.0054687,55.2160453 C43.2563672,55.1749125 43.4547656,54.9906933 43.6000781,54.6999506 C43.9876172,53.8764724 44.5876172,53.2190493 45.3179297,52.7581499 C45.4755469,52.7142045 45.6108984,52.6363919 45.7185938,52.5308057 C46.4054297,52.1855707 47.1840234,51.9999453 48.0001172,51.9999453 C50.8000781,51.9999453 53.0001563,54.1999105 53.0001563,56.9999941 C53.0001563,57.2999947 53.0001563,57.6999564 52.9001953,57.999957 L34.7055469,57.999957 L34.7055469,57.999957 Z" id="Shape" fill="url(#linearGradient-1)"></path>
                        <path d="M33.3,25.8 C32.7599789,25.8 32.4,26.2199631 32.4,26.8499692 L32.4,28.9500308 C32.4,29.5800369 32.7599789,30 33.3,30 C33.8400211,30 34.2,29.5800369 34.2,28.9500308 L34.2,26.8499692 C34.2,26.2199631 33.8400211,25.8 33.3,25.8 Z" id="Path" fill="url(#linearGradient-2)"></path>
                        <path d="M33.3,43.8 C32.7599789,43.8 32.4,44.2199631 32.4,44.8499692 L32.4,46.9500308 C32.4,47.5800369 32.7599789,48 33.3,48 C33.8400211,48 34.2,47.5800369 34.2,46.9500308 L34.2,44.8499692 C34.2,44.2199631 33.8400211,43.8 33.3,43.8 Z" id="Path" fill="url(#linearGradient-2)"></path>
                        <path d="M33.3,31.8 C32.7599789,31.8 32.4,32.2199631 32.4,32.8499692 L32.4,34.9500308 C32.4,35.5800369 32.7599789,36 33.3,36 C33.8400211,36 34.2,35.5800369 34.2,34.9500308 L34.2,32.8499692 C34.2,32.2199631 33.8400211,31.8 33.3,31.8 Z" id="Path" fill="url(#linearGradient-2)"></path>
                        <path d="M33.3,37.8 C32.7599789,37.8 32.4,38.2199631 32.4,38.8499692 L32.4,40.9500308 C32.4,41.5800369 32.7599789,42 33.3,42 C33.8400211,42 34.2,41.5800369 34.2,40.9500308 L34.2,38.8499692 C34.2,38.2199631 33.8400211,37.8 33.3,37.8 Z" id="Path" fill="url(#linearGradient-2)"></path>
                        <path d="M33.3,19.8 C32.7599789,19.8 32.4,20.2199631 32.4,20.8499692 L32.4,22.9500308 C32.4,23.5800369 32.7599789,24 33.3,24 C33.8400211,24 34.2,23.5800369 34.2,22.9500308 L34.2,20.8499692 C34.2,20.2199631 33.8400211,19.8 33.3,19.8 Z" id="Path" fill="url(#linearGradient-2)"></path>
                        <path d="M39.3,30 C39.8400211,30 40.2,29.5800369 40.2,28.9500308 L40.2,26.8499692 C40.2,26.2199631 39.8400211,25.8 39.3,25.8 C38.7599789,25.8 38.4,26.2199631 38.4,26.8499692 L38.4,28.9500308 C38.4,29.5800369 38.7599789,30 39.3,30 Z" id="Path" fill="url(#linearGradient-2)"></path>
                        <path d="M39.3,24 C39.8400211,24 40.2,23.5800369 40.2,22.9500308 L40.2,20.8499692 C40.2,20.2199631 39.8400211,19.8 39.3,19.8 C38.7599789,19.8 38.4,20.2199631 38.4,20.8499692 L38.4,22.9500308 C38.4,23.5800369 38.7599789,24 39.3,24 Z" id="Path" fill="url(#linearGradient-2)"></path>
                        <path d="M39.3,36 C39.8400211,36 40.2,35.5800369 40.2,34.9500308 L40.2,32.8499692 C40.2,32.2199631 39.8400211,31.8 39.3,31.8 C38.7599789,31.8 38.4,32.2199631 38.4,32.8499692 L38.4,34.9500308 C38.4,35.5800369 38.7599789,36 39.3,36 Z" id="Path" fill="url(#linearGradient-2)"></path>
                        <path d="M39.3,42 C39.8400211,42 40.2,41.5800369 40.2,40.9500308 L40.2,38.8499692 C40.2,38.2199631 39.8400211,37.8 39.3,37.8 C38.7599789,37.8 38.4,38.2199631 38.4,38.8499692 L38.4,40.9500308 C38.4,41.5800369 38.7599789,42 39.3,42 Z" id="Path" fill="url(#linearGradient-2)"></path>
                        <path d="M39.3,48 C39.8400211,48 40.2,47.5800369 40.2,46.9500308 L40.2,44.8499692 C40.2,44.2199631 39.8400211,43.8 39.3,43.8 C38.7599789,43.8 38.4,44.2199631 38.4,44.8499692 L38.4,46.9500308 C38.4,47.5800369 38.7599789,48 39.3,48 Z" id="Path" fill="url(#linearGradient-2)"></path>
                        <path d="M45.3,36 C45.8400211,36 46.2,35.5800369 46.2,34.9500308 L46.2,32.8499692 C46.2,32.2199631 45.8400211,31.8 45.3,31.8 C44.7599789,31.8 44.4,32.2199631 44.4,32.8499692 L44.4,34.9500308 C44.4,35.5800369 44.7599789,36 45.3,36 Z" id="Path" fill="url(#linearGradient-2)"></path>
                        <path d="M45.3,30 C45.8400211,30 46.2,29.5800369 46.2,28.9500308 L46.2,26.8499692 C46.2,26.2199631 45.8400211,25.8 45.3,25.8 C44.7599789,25.8 44.4,26.2199631 44.4,26.8499692 L44.4,28.9500308 C44.4,29.5800369 44.7599789,30 45.3,30 Z" id="Path" fill="url(#linearGradient-2)"></path>
                        <path d="M45.3,48 C45.8400211,48 46.2,47.5800369 46.2,46.9500308 L46.2,44.8499692 C46.2,44.2199631 45.8400211,43.8 45.3,43.8 C44.7599789,43.8 44.4,44.2199631 44.4,44.8499692 L44.4,46.9500308 C44.4,47.5800369 44.7599789,48 45.3,48 Z" id="Path" fill="url(#linearGradient-2)"></path>
                        <path d="M45.3,42 C45.8400211,42 46.2,41.5800369 46.2,40.9500308 L46.2,38.8499692 C46.2,38.2199631 45.8400211,37.8 45.3,37.8 C44.7599789,37.8 44.4,38.2199631 44.4,38.8499692 L44.4,40.9500308 C44.4,41.5800369 44.7599789,42 45.3,42 Z" id="Path" fill="url(#linearGradient-2)"></path>
                        <path d="M45.3,24 C45.8400211,24 46.2,23.5800369 46.2,22.9500308 L46.2,20.8499692 C46.2,20.2199631 45.8400211,19.8 45.3,19.8 C44.7599789,19.8 44.4,20.2199631 44.4,20.8499692 L44.4,22.9500308 C44.4,23.5800369 44.7599789,24 45.3,24 Z" id="Path" fill="url(#linearGradient-2)"></path>
                        <path d="M11.1,38.4 C11.6400211,38.4 12,37.9800369 12,37.3500308 L12,35.2499692 C12,34.6199631 11.6400211,34.2 11.1,34.2 C10.5599789,34.2 10.2,34.6199631 10.2,35.2499692 L10.2,37.3500308 C10.1998946,37.9799139 10.5599789,38.4 11.1,38.4 Z" id="Path" fill="url(#linearGradient-2)"></path>
                        <path d="M11.1,44.4 C11.6400211,44.4 12,43.9800369 12,43.3500308 L12,41.2499692 C12,40.6199631 11.6400211,40.2 11.1,40.2 C10.5599789,40.2 10.2,40.6199631 10.2,41.2499692 L10.2,43.3500308 C10.1998946,43.9799139 10.5599789,44.4 11.1,44.4 Z" id="Path" fill="url(#linearGradient-2)"></path>
                        <path d="M11.1,50.4 C11.6400211,50.4 12,49.9800369 12,49.3500308 L12,47.2499692 C12,46.6199631 11.6400211,46.2 11.1,46.2 C10.5599789,46.2 10.2,46.6199631 10.2,47.2499692 L10.2,49.3500308 C10.1998946,49.9799139 10.5599789,50.4 11.1,50.4 Z" id="Path" fill="url(#linearGradient-2)"></path>
                        <path d="M11.1,8.4 C11.6400211,8.4 12,7.98003691 12,7.35003076 L12,5.24996924 C12,4.61996309 11.6400211,4.2 11.1,4.2 C10.5599789,4.2 10.2,4.61996309 10.2,5.24996924 L10.2,7.35003076 C10.1998946,7.97991387 10.5599789,8.4 11.1,8.4 Z" id="Path" fill="url(#linearGradient-2)"></path>
                        <path d="M11.1,14.4 C11.6400211,14.4 12,13.9800369 12,13.3500308 L12,11.2499692 C12,10.6199631 11.6400211,10.2 11.1,10.2 C10.5599789,10.2 10.2,10.6199631 10.2,11.2499692 L10.2,13.3500308 C10.1998946,13.9799139 10.5599789,14.4 11.1,14.4 Z" id="Path" fill="url(#linearGradient-2)"></path>
                        <path d="M11.1,20.4 C11.6400211,20.4 12,19.9800369 12,19.3500308 L12,17.2499692 C12,16.6199631 11.6400211,16.2 11.1,16.2 C10.5599789,16.2 10.2,16.6199631 10.2,17.2499692 L10.2,19.3500308 C10.1998946,19.9799139 10.5599789,20.4 11.1,20.4 Z" id="Path" fill="url(#linearGradient-2)"></path>
                        <path d="M11.1,26.4 C11.6400211,26.4 12,25.9800369 12,25.3500308 L12,23.2499692 C12,22.6199631 11.6400211,22.2 11.1,22.2 C10.5599789,22.2 10.2,22.6199631 10.2,23.2499692 L10.2,25.3500308 C10.1998946,25.9799139 10.5599789,26.4 11.1,26.4 Z" id="Path" fill="url(#linearGradient-2)"></path>
                        <path d="M11.1,32.4 C11.6400211,32.4 12,31.9800369 12,31.3500308 L12,29.2499692 C12,28.6199631 11.6400211,28.2 11.1,28.2 C10.5599789,28.2 10.2,28.6199631 10.2,29.2499692 L10.2,31.3500308 C10.1998946,31.9799139 10.5599789,32.4 11.1,32.4 Z" id="Path" fill="url(#linearGradient-2)"></path>
                        <path d="M17.1,14.4 C17.6400211,14.4 18,13.9800369 18,13.3500308 L18,11.2499692 C18,10.6199631 17.6400211,10.2 17.1,10.2 C16.5599789,10.2 16.2,10.6199631 16.2,11.2499692 L16.2,13.3500308 C16.1998946,13.9799139 16.5599789,14.4 17.1,14.4 Z" id="Path" fill="url(#linearGradient-2)"></path>
                        <path d="M17.1,8.4 C17.6400211,8.4 18,7.98003691 18,7.35003076 L18,5.24996924 C18,4.61996309 17.6400211,4.2 17.1,4.2 C16.5599789,4.2 16.2,4.61996309 16.2,5.24996924 L16.2,7.35003076 C16.1998946,7.97991387 16.5599789,8.4 17.1,8.4 Z" id="Path" fill="url(#linearGradient-2)"></path>
                        <path d="M17.1,26.4 C17.6400211,26.4 18,25.9800369 18,25.3500308 L18,23.2499692 C18,22.6199631 17.6400211,22.2 17.1,22.2 C16.5599789,22.2 16.2,22.6199631 16.2,23.2499692 L16.2,25.3500308 C16.1998946,25.9799139 16.5599789,26.4 17.1,26.4 Z" id="Path" fill="url(#linearGradient-2)"></path>
                        <path d="M17.1,20.4 C17.6400211,20.4 18,19.9800369 18,19.3500308 L18,17.2499692 C18,16.6199631 17.6400211,16.2 17.1,16.2 C16.5599789,16.2 16.2,16.6199631 16.2,17.2499692 L16.2,19.3500308 C16.1998946,19.9799139 16.5599789,20.4 17.1,20.4 Z" id="Path" fill="url(#linearGradient-2)"></path>
                        <path d="M17.1,32.4 C17.6400211,32.4 18,31.9800369 18,31.3500308 L18,29.2499692 C18,28.6199631 17.6400211,28.2 17.1,28.2 C16.5599789,28.2 16.2,28.6199631 16.2,29.2499692 L16.2,31.3500308 C16.1998946,31.9799139 16.5599789,32.4 17.1,32.4 Z" id="Path" fill="url(#linearGradient-2)"></path>
                        <path d="M17.1,38.4 C17.6400211,38.4 18,37.9800369 18,37.3500308 L18,35.2499692 C18,34.6199631 17.6400211,34.2 17.1,34.2 C16.5599789,34.2 16.2,34.6199631 16.2,35.2499692 L16.2,37.3500308 C16.1998946,37.9799139 16.5599789,38.4 17.1,38.4 Z" id="Path" fill="url(#linearGradient-2)"></path>
                        <path d="M17.1,44.4 C17.6400211,44.4 18,43.9800369 18,43.3500308 L18,41.2499692 C18,40.6199631 17.6400211,40.2 17.1,40.2 C16.5599789,40.2 16.2,40.6199631 16.2,41.2499692 L16.2,43.3500308 C16.1998946,43.9799139 16.5599789,44.4 17.1,44.4 Z" id="Path" fill="url(#linearGradient-2)"></path>
                        <path d="M23.1,20.4 C23.6400211,20.4 24,19.9800369 24,19.3500308 L24,17.2499692 C24,16.6199631 23.6400211,16.2 23.1,16.2 C22.5599789,16.2 22.2,16.6199631 22.2,17.2499692 L22.2,19.3500308 C22.1998946,19.9799139 22.5599789,20.4 23.1,20.4 Z" id="Path" fill="url(#linearGradient-2)"></path>
                        <path d="M23.1,14.4 C23.6400211,14.4 24,13.9800369 24,13.3500308 L24,11.2499692 C24,10.6199631 23.6400211,10.2 23.1,10.2 C22.5599789,10.2 22.2,10.6199631 22.2,11.2499692 L22.2,13.3500308 C22.1998946,13.9799139 22.5599789,14.4 23.1,14.4 Z" id="Path" fill="url(#linearGradient-2)"></path>
                        <path d="M23.1,8.4 C23.6400211,8.4 24,7.98003691 24,7.35003076 L24,5.24996924 C24,4.61996309 23.6400211,4.2 23.1,4.2 C22.5599789,4.2 22.2,4.61996309 22.2,5.24996924 L22.2,7.35003076 C22.1998946,7.97991387 22.5599789,8.4 23.1,8.4 Z" id="Path" fill="url(#linearGradient-2)"></path>
                        <path d="M23.1,44.4 C23.6400211,44.4 24,43.9800369 24,43.3500308 L24,41.2499692 C24,40.6199631 23.6400211,40.2 23.1,40.2 C22.5599789,40.2 22.2,40.6199631 22.2,41.2499692 L22.2,43.3500308 C22.1998946,43.9799139 22.5599789,44.4 23.1,44.4 Z" id="Path" fill="url(#linearGradient-2)"></path>
                        <path d="M23.1,38.4 C23.6400211,38.4 24,37.9800369 24,37.3500308 L24,35.2499692 C24,34.6199631 23.6400211,34.2 23.1,34.2 C22.5599789,34.2 22.2,34.6199631 22.2,35.2499692 L22.2,37.3500308 C22.1998946,37.9799139 22.5599789,38.4 23.1,38.4 Z" id="Path" fill="url(#linearGradient-2)"></path>
                        <path d="M23.1,32.4 C23.6400211,32.4 24,31.9800369 24,31.3500308 L24,29.2499692 C24,28.6199631 23.6400211,28.2 23.1,28.2 C22.5599789,28.2 22.2,28.6199631 22.2,29.2499692 L22.2,31.3500308 C22.1998946,31.9799139 22.5599789,32.4 23.1,32.4 Z" id="Path" fill="url(#linearGradient-2)"></path>
                        <path d="M23.1,26.4 C23.6400211,26.4 24,25.9800369 24,25.3500308 L24,23.2499692 C24,22.6199631 23.6400211,22.2 23.1,22.2 C22.5599789,22.2 22.2,22.6199631 22.2,23.2499692 L22.2,25.3500308 C22.1998946,25.9799139 22.5599789,26.4 23.1,26.4 Z" id="Path" fill="url(#linearGradient-2)"></path>
                        <path d="M29.1,14.4 C29.6400211,14.4 30,13.9800369 30,13.3500308 L30,11.2499692 C30,10.6199631 29.6400211,10.2 29.1,10.2 C28.5599789,10.2 28.2,10.6199631 28.2,11.2499692 L28.2,13.3500308 C28.1998946,13.9799139 28.5599789,14.4 29.1,14.4 Z" id="Path" fill="url(#linearGradient-2)"></path>
                        <path d="M29.1,8.4 C29.6400211,8.4 30,7.98003691 30,7.35003076 L30,5.24996924 C30,4.61996309 29.6400211,4.2 29.1,4.2 C28.5599789,4.2 28.2,4.61996309 28.2,5.24996924 L28.2,7.35003076 C28.1998946,7.97991387 28.5599789,8.4 29.1,8.4 Z" id="Path" fill="url(#linearGradient-2)"></path>
                    </g>
                </g>
            </g>
        </g>
    </g>
</svg>