<?xml version="1.0" encoding="UTF-8"?>
<svg width="51px" height="66px" viewBox="0 0 51 66" version="1.1" xmlns="http://www.w3.org/2000/svg" xmlns:xlink="http://www.w3.org/1999/xlink">
    <!-- Generator: Sketch 55 (78076) - https://sketchapp.com -->
    <title>concierge</title>
    <desc>Created with Sketch.</desc>
    <defs>
        <linearGradient x1="100%" y1="51.964173%" x2="0%" y2="51.964173%" id="linearGradient-1">
            <stop stop-color="#FB927E" offset="0%"></stop>
            <stop stop-color="#FF4D7B" offset="100%"></stop>
        </linearGradient>
        <linearGradient x1="100%" y1="51.964173%" x2="0%" y2="51.964173%" id="linearGradient-2">
            <stop stop-color="#FB927E" offset="0%"></stop>
            <stop stop-color="#FF4D7B" offset="100%"></stop>
        </linearGradient>
        <linearGradient x1="100%" y1="51.964173%" x2="0%" y2="51.964173%" id="linearGradient-3">
            <stop stop-color="#FB927E" offset="0%"></stop>
            <stop stop-color="#FF4D7B" offset="100%"></stop>
        </linearGradient>
        <linearGradient x1="100%" y1="51.964173%" x2="0%" y2="51.964173%" id="linearGradient-4">
            <stop stop-color="#FB927E" offset="0%"></stop>
            <stop stop-color="#FF4D7B" offset="100%"></stop>
        </linearGradient>
        <linearGradient x1="100%" y1="51.964173%" x2="0%" y2="51.964173%" id="linearGradient-5">
            <stop stop-color="#FB927E" offset="0%"></stop>
            <stop stop-color="#FF4D7B" offset="100%"></stop>
        </linearGradient>
    </defs>
    <g id="Page-1" stroke="none" stroke-width="1" fill="none" fill-rule="evenodd">
        <g id="Desktop" transform="translate(-662.000000, -2982.000000)" fill-rule="nonzero">
            <g id="Services" transform="translate(213.000000, 2854.000000)">
                <g id="Block-2" transform="translate(409.000000, 88.000000)">
                    <g id="concierge" transform="translate(40.000000, 40.000000)">
                        <path d="M19,20 C18.4477333,20 18,20.2917101 18,20.6517205 L18,21.3482795 C18,21.7082899 18.4477333,22 19,22 C19.5522667,22 20,21.7082899 20,21.3482795 L20,20.6517205 C20,20.2917101 19.5522667,20 19,20 Z" id="Path" fill="#FF4D7B"></path>
                        <path d="M32,20 C31.4477333,20 31,20.2917101 31,20.6517205 L31,21.3482795 C31,21.7082899 31.4477333,22 32,22 C32.5522667,22 33,21.7082899 33,21.3482795 L33,20.6517205 C33,20.2917101 32.5522667,20 32,20 Z" id="Path" fill="#FF4D7B"></path>
                        <path d="M28.7258879,27.1939847 C28.3570521,26.9377328 27.7549204,26.9350391 27.3811398,27.1878152 C27.0341121,27.4225172 26.2022347,27.6965825 25,27.6965825 C23.7977653,27.6965825 22.9658879,27.4225172 22.6188602,27.1878152 C22.2449528,26.935126 21.6429479,26.9376459 21.2741121,27.1939847 C20.9051496,27.4501497 20.9092069,27.8627248 21.2829875,28.1155878 C22.1019322,28.6693664 23.4914376,29 25,29 C26.5085624,29 27.8980678,28.6693664 28.7170125,28.1155878 C29.0907931,27.8627248 29.0948504,27.4501497 28.7258879,27.1939847 Z" id="Path" fill="url(#linearGradient-1)"></path>
                        <path d="M45.9085984,45.2301094 L38.1533642,42.9252656 L35.393725,39.2073516 C34.978733,38.6482852 34.34521,38.3056523 33.6555554,38.2672383 C33.6419052,38.2664648 33.6286377,38.2677539 33.6149875,38.2672383 L33.6149875,35.5295273 C36.8059479,33.2870742 39.0517267,29.7621328 39.613299,25.700168 L40.1821429,25.700168 C42.046864,25.700168 43.6462351,24.3001172 43.8234327,22.5127031 C43.9226838,21.5109727 43.598268,20.5106602 42.9336175,19.768418 C42.6118807,19.4092852 42.2232962,19.1250469 41.7960573,18.9264023 L41.7960573,13.3666758 L41.7952918,13.3666758 C41.7952918,13.2884297 41.7866169,13.209668 41.7674811,13.1321953 L39.280591,3.08047266 C38.83192,1.26676172 37.2262979,0 35.37612,0 L15.6236248,0 C13.773447,0 12.1678248,1.26676172 11.7191538,3.08034375 L9.23226373,13.1321953 C9.21312792,13.2097969 9.20445302,13.2884297 9.20445302,13.3666758 L9.20368758,13.3666758 L9.20368758,18.9693281 C8.10261298,19.4997773 7.29903646,20.5504922 7.17643969,21.7870898 C7.07718861,22.7888203 7.40147683,23.7890039 8.06612736,24.531375 C8.73128818,25.2741328 9.68093473,25.7000391 10.6717871,25.7000391 L11.3859356,25.7000391 C11.9471251,29.7634219 14.192904,33.28875 17.3847574,35.5309453 L17.3847574,38.2672383 C17.3712347,38.2677539 17.3578397,38.2664648 17.3441895,38.2672383 C16.6545348,38.3056523 16.0210119,38.6482852 15.6060199,39.2073516 L12.8463807,42.9252656 L5.09127407,45.2299805 C2.09358538,46.1208516 0,48.9482813 0,52.105582 L0,65.0332031 C0,65.5672617 0.428387039,66 0.956790587,66 C1.48519413,66 1.91358117,65.5672617 1.91358117,65.0332031 L1.91358117,52.1057109 C1.91358117,49.8002227 3.44227739,47.7357891 5.63128668,47.0851992 L13.4213481,44.770043 C14.4800687,45.8676797 15.7594891,46.7973516 17.1944198,47.5332773 L13.2284591,47.5332773 C10.4453466,47.5332773 8.1810698,49.8212344 8.1810698,52.6333242 C8.1810698,53.1673828 8.60945684,53.6001211 9.13786039,53.6001211 C9.66626394,53.6001211 10.094651,53.1673828 10.094651,52.6333242 C10.094651,50.8872891 11.5004953,49.4668711 13.2284591,49.4668711 L25.4998724,49.4668711 C30.2822945,49.4668711 34.7290744,47.7243164 37.5786519,44.770043 L45.3687133,47.0851992 C47.557595,47.7357891 49.0864188,49.8003516 49.0864188,52.1057109 L49.0864188,65.0332031 C49.0864188,65.5672617 49.5148059,66 50.0432094,66 C50.571613,66 51,65.5672617 51,65.0332031 L51,52.1057109 C50.9998724,48.9484102 48.9062871,46.1209805 45.9085984,45.2301094 Z M11.9300305,10.2002227 L31.635324,10.2002227 C32.1637275,10.2002227 32.5921145,9.76748438 32.5921145,9.23342578 C32.5921145,8.69936719 32.1637275,8.26662891 31.635324,8.26662891 L12.4084258,8.26662891 L13.5754551,3.54943359 C13.8109532,2.59797656 14.6530565,1.93359375 15.6236248,1.93359375 L35.37612,1.93359375 C36.3466884,1.93359375 37.1887917,2.59797656 37.4242897,3.54943359 L38.5913191,8.26662891 L35.7261778,8.26662891 C35.1977742,8.26662891 34.7693872,8.69936719 34.7693872,9.23342578 C34.7693872,9.76748438 35.1977742,10.2002227 35.7261778,10.2002227 L39.0697144,10.2002227 L39.6139369,12.3998789 L11.385808,12.3998789 L11.9300305,10.2002227 Z M39.8826037,14.3336016 L39.8826037,18.5998828 L38.7941587,18.5998828 C38.1939321,18.5998828 37.7057137,18.1065586 37.7057137,17.5000547 L37.7057137,14.3336016 L39.8826037,14.3336016 L39.8826037,14.3336016 Z M11.1171412,14.3334727 L13.2940311,14.3334727 L13.2940311,17.4999258 C13.2940311,18.1064297 12.8056852,18.5997539 12.2055862,18.5997539 L11.1171412,18.5997539 L11.1171412,14.3334727 L11.1171412,14.3334727 Z M13.1625043,23.6999297 C13.1625043,23.1658711 12.7341173,22.7331328 12.2057137,22.7331328 C11.6773102,22.7331328 11.2489231,23.1658711 11.2489231,23.6999297 L11.2489231,23.7665742 L10.6717871,23.7665742 C10.2205646,23.7665742 9.78809527,23.5724414 9.48498402,23.2340625 C9.17791802,22.8911719 9.03427186,22.4458008 9.08058053,21.9799336 C9.16095094,21.1688555 9.92408711,20.5334766 10.8178571,20.5334766 L12.2058413,20.5334766 C13.8612166,20.5334766 15.2078674,19.1726133 15.2078674,17.5000547 L15.2078674,14.3336016 L35.7921326,14.3336016 L35.7921326,17.5000547 C35.7921326,19.1727422 37.138911,20.5334766 38.7941587,20.5334766 L40.3280854,20.5334766 C40.7793078,20.5334766 41.2117772,20.7276094 41.5147608,21.0659883 C41.8218268,21.40875 41.965473,21.85425 41.9192919,22.3201172 C41.8389215,23.1311953 41.0759129,23.7665742 40.1821429,23.7665742 L39.7503114,23.7665742 L39.7503114,23.7101133 C39.7503114,23.1763125 39.3221795,22.7435742 38.7939036,22.7433164 C38.7939036,22.7433164 38.7936484,22.7433164 38.7935208,22.7433164 C38.2653724,22.7433164 37.837113,23.175668 37.8367303,23.7093398 C37.8317549,30.5782383 32.297423,36.166582 25.4997449,36.166582 C18.6969638,36.1664531 13.1625043,30.5741133 13.1625043,23.6999297 Z M14.8361224,43.4670586 L17.1367573,40.3675078 C17.2116421,40.2667031 17.3255639,40.2048281 17.4493089,40.1979961 C17.5278933,40.1941289 17.6416876,40.2097266 17.7355806,40.310918 C18.8402272,41.5005938 20.5229029,42.4205977 22.4736076,42.9015469 C22.4787105,42.904125 22.4975911,42.9246211 22.4975911,42.9580078 L22.4978463,47.2764961 C19.4427502,46.7445 16.7280163,45.4081289 14.8361224,43.4670586 Z M26.5887001,42.9578789 L26.588445,47.4998906 C25.8688109,47.5439766 25.1310615,47.5439766 24.411555,47.4998906 L24.4112999,42.9578789 C24.4112999,42.0340078 23.8011226,41.2383984 22.9272539,41.0229961 C21.4560927,40.6602539 20.1493719,39.9868477 19.2984661,39.158625 L19.2984661,36.6632578 C21.1744135,37.5832617 23.2785874,38.1000469 25.5001276,38.1000469 C27.7214126,38.1000469 29.8255865,37.582875 31.701789,36.6622266 L31.701789,39.1584961 C30.8507557,39.9867188 29.5441625,40.660125 28.0728737,41.0228672 C27.1988774,41.2383984 26.5887001,42.0340078 26.5887001,42.9578789 Z M28.5020261,47.2763672 L28.5022813,42.9578789 C28.5022813,42.9244922 28.521162,42.9039961 28.5262648,42.901418 C30.4769695,42.4205977 32.1595176,41.5005938 33.2642918,40.3107891 C33.34951,40.2190078 33.4508022,40.1972227 33.5276006,40.1972227 C33.5355101,40.1972227 33.5431644,40.1974805 33.5505636,40.1978672 C33.6743085,40.2048281 33.7881028,40.2665742 33.8629876,40.3673789 L36.1636224,43.4669297 C34.2717285,45.4081289 31.5569947,46.7445 28.5020261,47.2763672 Z" id="Shape" fill="url(#linearGradient-2)"></path>
                        <path d="M20.033256,16 L17.966744,16 C17.4328435,16 17,16.4476 17,17 C17,17.5524 17.4328435,18 17.966744,18 L20.033256,18 C20.5671565,18 21,17.5524 21,17 C21,16.4476 20.5672854,16 20.033256,16 Z" id="Path" fill="url(#linearGradient-3)"></path>
                        <path d="M33.033256,16 L30.966744,16 C30.4328435,16 30,16.4476 30,17 C30,17.5524 30.4327146,18 30.966744,18 L33.033256,18 C33.5671565,18 34,17.5524 34,17 C34,16.4476 33.5671565,16 33.033256,16 Z" id="Path" fill="url(#linearGradient-3)"></path>
                        <path d="M9,55 C8.44773333,55 8,55.424244 8,55.9478194 L8,64.0521806 C8,64.575756 8.44773333,65 9,65 C9.55226667,65 10,64.575756 10,64.0521806 L10,55.9478194 C10,55.4243703 9.55226667,55 9,55 Z" id="Path" fill="url(#linearGradient-4)"></path>
                        <path d="M14.0026596,53 L13.9920213,53 C13.4412234,53 13,53.4476 13,54 C13,54.5524 13.4518617,55 14.0026596,55 C14.5534574,55 15,54.5524 15,54 C15,53.4476 14.5534574,53 14.0026596,53 Z" id="Path" fill="url(#linearGradient-5)"></path>
                        <path d="M37.0027259,53 L36.9919553,53 C36.4411941,53 36,53.4476 36,54 C36,54.5524 36.4518317,55 37.0027259,55 C37.5536201,55 38,54.5524 38,54 C38,53.4476 37.5534871,53 37.0027259,53 Z" id="Path" fill="url(#linearGradient-5)"></path>
                        <path d="M37.0027259,58 L36.9919553,58 C36.4411941,58 36,58.4476 36,59 C36,59.5524 36.4518317,60 37.0027259,60 C37.5536201,60 38,59.5524 38,59 C38,58.4476 37.5534871,58 37.0027259,58 Z" id="Path" fill="url(#linearGradient-5)"></path>
                        <path d="M14.0026596,58 L13.9920213,58 C13.4412234,58 13,58.4476 13,59 C13,59.5524 13.4518617,60 14.0026596,60 C14.5534574,60 15,59.5524 15,59 C15,58.4476 14.5534574,58 14.0026596,58 Z" id="Path" fill="url(#linearGradient-5)"></path>
                        <path d="M37.0027259,63 L36.9919553,63 C36.4411941,63 36,63.4476 36,64 C36,64.5524 36.4518317,65 37.0027259,65 C37.5536201,65 38,64.5524 38,64 C38,63.4476 37.5534871,63 37.0027259,63 Z" id="Path" fill="url(#linearGradient-5)"></path>
                        <path d="M14.0026596,63 L13.9920213,63 C13.4412234,63 13,63.4476 13,64 C13,64.5524 13.4518617,65 14.0026596,65 C14.5534574,65 15,64.5524 15,64 C15,63.4476 14.5534574,63 14.0026596,63 Z" id="Path" fill="url(#linearGradient-5)"></path>
                    </g>
                </g>
            </g>
        </g>
    </g>
</svg>