<?xml version="1.0" encoding="UTF-8"?>
<svg width="702px" height="545px" viewBox="0 0 702 545" version="1.1" xmlns="http://www.w3.org/2000/svg" xmlns:xlink="http://www.w3.org/1999/xlink">
    <!-- Generator: Sketch 55 (78076) - https://sketchapp.com -->
    <title>Email_Marketing</title>
    <desc>Created with Sketch.</desc>
    <defs>
        <linearGradient x1="34.9501974%" y1="62.9099596%" x2="71.742341%" y2="39.2586813%" id="linearGradient-1">
            <stop stop-color="#FFFFFF" offset="0%"></stop>
            <stop stop-color="#000000" offset="100%"></stop>
        </linearGradient>
        <linearGradient x1="100%" y1="51.964173%" x2="0%" y2="51.964173%" id="linearGradient-2">
            <stop stop-color="#FB927E" offset="0%"></stop>
            <stop stop-color="#FF4D7B" offset="100%"></stop>
        </linearGradient>
        <linearGradient x1="100%" y1="51.964173%" x2="0%" y2="51.964173%" id="linearGradient-3">
            <stop stop-color="#FB927E" offset="0%"></stop>
            <stop stop-color="#FF4D7B" offset="100%"></stop>
        </linearGradient>
        <linearGradient x1="-0.0170153593%" y1="49.9946474%" x2="100%" y2="49.9946474%" id="linearGradient-4">
            <stop stop-color="#FFFFFF" offset="0%"></stop>
            <stop stop-color="#000000" offset="100%"></stop>
        </linearGradient>
        <linearGradient x1="100%" y1="51.964173%" x2="0%" y2="51.964173%" id="linearGradient-5">
            <stop stop-color="#FB927E" offset="0%"></stop>
            <stop stop-color="#FF4D7B" offset="100%"></stop>
        </linearGradient>
        <linearGradient x1="16.2949927%" y1="30.5786481%" x2="79.3053764%" y2="66.8320022%" id="linearGradient-6">
            <stop stop-color="#FFFFFF" offset="0%"></stop>
            <stop stop-color="#000000" offset="100%"></stop>
        </linearGradient>
        <linearGradient x1="100%" y1="51.964173%" x2="0%" y2="51.964173%" id="linearGradient-7">
            <stop stop-color="#FB927E" offset="0%"></stop>
            <stop stop-color="#FF4D7B" offset="100%"></stop>
        </linearGradient>
        <linearGradient x1="49.7140074%" y1="18.9807944%" x2="49.7441844%" y2="74.5301325%" id="linearGradient-8">
            <stop stop-color="#FFFFFF" offset="0%"></stop>
            <stop stop-color="#000000" offset="100%"></stop>
        </linearGradient>
        <linearGradient x1="100%" y1="51.964173%" x2="0%" y2="51.964173%" id="linearGradient-9">
            <stop stop-color="#FB927E" offset="0%"></stop>
            <stop stop-color="#FF4D7B" offset="100%"></stop>
        </linearGradient>
        <linearGradient x1="13.8355297%" y1="33.820462%" x2="82.3975868%" y2="68.6933573%" id="linearGradient-10">
            <stop stop-color="#FFFFFF" offset="0%"></stop>
            <stop stop-color="#000000" offset="100%"></stop>
        </linearGradient>
        <linearGradient x1="100%" y1="51.964173%" x2="0%" y2="51.964173%" id="linearGradient-11">
            <stop stop-color="#FB927E" offset="0%"></stop>
            <stop stop-color="#FF4D7B" offset="100%"></stop>
        </linearGradient>
        <linearGradient x1="17.6720519%" y1="44.3972375%" x2="76.797969%" y2="56.2390749%" id="linearGradient-12">
            <stop stop-color="#FFFFFF" offset="0%"></stop>
            <stop stop-color="#000000" offset="100%"></stop>
        </linearGradient>
        <linearGradient x1="100%" y1="51.964173%" x2="0%" y2="51.964173%" id="linearGradient-13">
            <stop stop-color="#FB927E" offset="0%"></stop>
            <stop stop-color="#FF4D7B" offset="100%"></stop>
        </linearGradient>
        <linearGradient x1="64.2187325%" y1="14.7290303%" x2="33.997368%" y2="80.7121558%" id="linearGradient-14">
            <stop stop-color="#FFFFFF" offset="0%"></stop>
            <stop stop-color="#000000" offset="100%"></stop>
        </linearGradient>
        <linearGradient x1="100%" y1="51.964173%" x2="0%" y2="51.964173%" id="linearGradient-15">
            <stop stop-color="#FB927E" offset="0%"></stop>
            <stop stop-color="#FF4D7B" offset="100%"></stop>
        </linearGradient>
        <linearGradient x1="46.2370963%" y1="18.768649%" x2="53.9508701%" y2="73.7746348%" id="linearGradient-16">
            <stop stop-color="#FFFFFF" offset="0%"></stop>
            <stop stop-color="#000000" offset="100%"></stop>
        </linearGradient>
        <linearGradient x1="100%" y1="51.964173%" x2="0%" y2="51.964173%" id="linearGradient-17">
            <stop stop-color="#FB927E" offset="0%"></stop>
            <stop stop-color="#FF4D7B" offset="100%"></stop>
        </linearGradient>
        <linearGradient x1="19.9887335%" y1="23.8436354%" x2="78.7778059%" y2="80.3447699%" id="linearGradient-18">
            <stop stop-color="#FFFFFF" offset="0%"></stop>
            <stop stop-color="#000000" offset="100%"></stop>
        </linearGradient>
        <linearGradient x1="2.68129334e-13%" y1="50.0786785%" x2="100%" y2="50.0786785%" id="linearGradient-19">
            <stop stop-color="#FFFFFF" offset="0%"></stop>
            <stop stop-color="#000000" offset="100%"></stop>
        </linearGradient>
        <linearGradient x1="33.7114226%" y1="25.2033405%" x2="68.4586022%" y2="78.0782155%" id="linearGradient-20">
            <stop stop-color="#FFFFFF" offset="0%"></stop>
            <stop stop-color="#000000" offset="100%"></stop>
        </linearGradient>
        <linearGradient x1="100%" y1="51.964173%" x2="0%" y2="51.964173%" id="linearGradient-21">
            <stop stop-color="#FB927E" offset="0%"></stop>
            <stop stop-color="#FF4D7B" offset="100%"></stop>
        </linearGradient>
        <linearGradient x1="38.4951686%" y1="40.7246581%" x2="53.7536948%" y2="66.3669366%" id="linearGradient-22">
            <stop stop-color="#FFFFFF" offset="0%"></stop>
            <stop stop-color="#000000" offset="100%"></stop>
        </linearGradient>
        <linearGradient x1="33.8717388%" y1="38.5048316%" x2="68.8034433%" y2="76.0426469%" id="linearGradient-23">
            <stop stop-color="#FFFFFF" offset="0%"></stop>
            <stop stop-color="#000000" offset="100%"></stop>
        </linearGradient>
        <linearGradient x1="46.0467932%" y1="29.5510699%" x2="-17.1070861%" y2="92.9397418%" id="linearGradient-24">
            <stop stop-color="#FFFFFF" offset="0%"></stop>
            <stop stop-color="#000000" offset="100%"></stop>
        </linearGradient>
        <linearGradient x1="49.085751%" y1="-20.8377418%" x2="51.1789437%" y2="144.350895%" id="linearGradient-25">
            <stop stop-color="#131F77" offset="0%"></stop>
            <stop stop-color="#4F5095" offset="21%"></stop>
            <stop stop-color="#988CB9" offset="49%"></stop>
            <stop stop-color="#CEB8D4" offset="73%"></stop>
            <stop stop-color="#EFD4E5" offset="90%"></stop>
            <stop stop-color="#FCDEEB" offset="100%"></stop>
        </linearGradient>
        <linearGradient x1="48.9988221%" y1="21.7131662%" x2="53.2979976%" y2="124.603602%" id="linearGradient-26">
            <stop stop-color="#131F77" offset="0%"></stop>
            <stop stop-color="#4F5095" offset="21%"></stop>
            <stop stop-color="#988CB9" offset="49%"></stop>
            <stop stop-color="#CEB8D4" offset="73%"></stop>
            <stop stop-color="#EFD4E5" offset="90%"></stop>
            <stop stop-color="#FCDEEB" offset="100%"></stop>
        </linearGradient>
    </defs>
    <g id="Page-1" stroke="none" stroke-width="1" fill="none" fill-rule="evenodd">
        <g id="Desktop" transform="translate(-268.000000, -6218.000000)">
            <g id="Email_Marketing" transform="translate(268.000000, 6218.000000)">
                <path d="M479.978661,263.137271 C474.195347,257.552054 468.054122,252.349177 461.593984,247.56168 C458.663093,245.520435 455.865425,243.567939 453.067756,241.970443 C425.179888,225.019231 404.663653,230.521718 390.497682,252.664794 C387.396085,257.351601 384.791592,262.348565 382.726381,267.574761 C376.807,282.755594 372.736682,298.592877 370.603152,314.745281 C363.453555,361.472052 274.860724,394.620103 193.950379,400.47759 C136.575975,404.471331 82.9317946,394.620103 64.9467838,365.820792 C31.2415415,311.594663 43.0095115,274.80787 67.3003778,241.970443 C85.0633514,217.786122 109.887107,195.776171 128.227377,170.704352 C171.657848,111.419484 111.841034,122.868208 111.174923,50.8921183 C110.642033,-6.79525322 239.956481,-26.187085 304.34726,50.2708697 C356.037513,111.641358 457.15324,-14.3833613 559.690005,55.7289826 C707.833205,157.214382 542.859588,322.865888 479.978661,263.137271 Z" id="Path" fill="#F1EFF8" fill-rule="nonzero" opacity="0.5"></path>
                <path d="M331.416979,416.434663 C147.568898,416.434663 -92.9571597,475.99245 36.8780513,489.38072 C174.042311,503.480659 136.508697,535.99503 209.310583,518.203309 C312.716799,492.939065 382.897995,500.767422 347.274375,529.456573 C290.374305,575.270255 778.933144,512.065165 575.674189,440.497966 C387.295424,374.357242 331.416979,416.434663 331.416979,416.434663 Z" id="Path" fill="#F1EFF8" fill-rule="nonzero" opacity="0.5"></path>
                <path d="M561.230275,231.004331 C558.068931,238.823953 551.528799,244.794726 543.442296,247.243757 C523.564229,254.91977 557.983969,270.271795 544.731924,292.057473 C531.47988,313.843151 519.828753,316.106021 520.629212,331.014347 C521.429671,345.922672 542.552897,358.523756 508.133157,429.249561 C508.577856,437.103054 485.898182,438.389784 485.453483,430.447552 C456.147787,389.050327 439.916255,355.905925 460.105612,342.151221 C470.205987,336.203812 475.391207,324.500846 473.001897,313.04449 C472.245908,305.457218 469.844531,296.938175 467.843383,287.309881 C462.862749,263.128223 487.276751,259.844841 502.352063,251.281428 C517.427376,242.718015 495.325811,212.235815 515.426228,206.378973 C535.526645,200.522131 547.088832,195.020249 556.91669,208.819323 C561.892274,215.071003 563.501985,223.349837 561.230275,231.004331 L561.230275,231.004331 Z" id="Path" fill="#FCDEEB" fill-rule="nonzero"></path>
                <path d="M497.841359,438.677403 C496.487158,438.754354 495.275896,437.835663 494.976641,436.504636 C493.830753,430.91752 467.563491,299.398592 529.617695,228.894513 C530.108422,228.341446 530.797536,228.007323 531.533254,227.965738 C532.268971,227.924153 532.990945,228.178516 533.540155,228.672802 C534.087117,229.158753 534.418175,229.844623 534.459568,230.577598 C534.500961,231.310573 534.24925,232.029758 533.760518,232.574915 C473.557363,300.950568 500.133133,434.021474 500.397569,435.351739 C500.695599,436.856619 499.731408,438.321652 498.238012,438.633061 L497.841359,438.677403 Z" id="Path" fill="#FFFFFF" fill-rule="nonzero"></path>
                <path d="M561.282953,230.93846 C558.120095,238.760597 551.576834,244.73329 543.486462,247.183109 C523.598884,254.86159 558.035093,270.218553 544.776708,292.011238 C531.518322,313.803923 519.861621,316.067521 520.662463,330.980641 C521.463305,345.893762 542.596638,358.498899 508.160429,429.247452 C508.605341,437.10347 485.914816,438.390615 485.469904,430.445827 C456.150186,389.035288 439.910888,355.880226 460.109905,342.121097 C470.215113,336.171775 475.402813,324.465046 473.01236,313.005005 L483.823728,310.075642 C493.70078,307.323817 504.245201,303.151694 509.717622,294.363605 C515.190042,285.575516 514.166744,274.301908 516.524779,264.226675 C519.918975,250.73491 529.404886,239.582545 542.196217,234.04536 C548.230032,231.544255 554.765141,230.480484 561.282953,230.93846 Z" id="Path" fill="url(#linearGradient-1)" fill-rule="nonzero" opacity="0.7" style="mix-blend-mode: overlay;"></path>
                <path d="M690.895954,310.349449 C685.392925,317.593154 679.132489,324.225925 672.221529,330.134523 C647.514509,352.364944 645.0305,325.688439 646.627363,342.138951 C648.224226,358.589462 608.834938,337.381641 602.71363,349.074842 C601.381198,351.975554 601.702888,355.369671 603.556419,357.96701 L603.556419,357.96701 C607.238075,365.214128 616.109537,373.750609 618.460474,384.109985 C618.722998,385.036924 618.871952,385.992452 618.904047,386.955479 C619.442565,391.566399 618.527405,396.230616 616.286966,400.293732 C611.318948,409.808352 600.673194,410.697569 586.745,409.497126 C579.514759,408.830213 571.308658,407.674231 562.570268,406.918397 C561.704747,406.778268 560.829891,406.703955 559.953187,406.696093 C551.882626,406.039039 543.778869,405.890544 535.689741,406.251484 C533.649305,406.473789 531.564511,406.696093 529.435361,407.007319 C528.853944,407.037547 528.275646,407.111861 527.705426,407.229623 C524.430067,407.719465 521.186359,408.402382 517.991176,409.274822 C515.817668,409.808352 513.555445,410.564186 511.381937,411.32002 C509.399053,411.997617 507.34521,412.445146 505.260629,412.653846 C504.088184,412.876369 502.884489,412.876369 501.712044,412.653846 C500.434601,412.444859 499.25517,411.838212 498.340889,410.919873 C497.617938,410.192734 497.097918,409.28824 496.832741,408.296683 C496.311388,406.691019 496.085928,405.003655 496.167381,403.317069 C496.145842,403.21445 496.145842,403.108462 496.167381,403.005843 L496.167381,403.005843 C496.788384,399.004367 502.199975,369.260064 521.938976,348.585773 C523.136623,347.38533 524.112484,346.095966 525.177059,344.895523 C533.161374,333.869234 533.161374,321.331277 532.762159,308.971163 C532.762159,306.081208 532.762159,303.146793 532.762159,300.078994 C532.655047,294.593687 533.206072,289.115358 534.403379,283.761866 C535.362354,280.233292 536.858516,276.874067 538.83911,273.802637 C539.90711,271.943528 541.123516,270.174135 542.476409,268.511797 C543.008696,267.844884 543.585341,267.311354 543.984557,266.777824 C548.420288,261.887132 552.190659,262.33174 555.118241,265.799686 C563.989702,275.53661 567.98186,309.282389 579.292973,304.969687 C590.604086,300.656985 581.022908,282.250197 578.982471,266.466598 C577.451015,260.239056 578.929614,253.652168 582.974629,248.682262 C597.302039,233.743419 603.157203,259.263942 635.937252,251.838981 C668.717301,244.414021 676.302401,214.847561 696.39626,216.537073 C716.49012,218.226585 665.080002,256.551831 680.42763,252.105746 C695.775258,247.659662 690.762883,262.820809 679.008196,273.313568 C667.25351,283.806326 649.865446,288.919323 678.78641,289.008245 C698.126195,289.586236 699.723058,298.033796 690.895954,310.349449 Z" id="Path" fill="url(#linearGradient-2)" opacity="0.942968786"></path>
                <path d="M547.249105,298.641516 C548.754229,298.996722 550.613499,300.239943 551.144719,304.280409 C551.830735,309.22949 551.830735,314.249974 551.144719,319.199055 C551.144719,320.664279 550.702036,322.085103 550.480694,323.639129 C549.804969,326.849667 549.493112,330.126509 549.551059,333.40729 C550.095011,339.638063 552.660826,345.518094 556.855336,350.146366 C560.049172,349.359948 563.197059,348.396453 566.284493,347.260318 C578.412405,341.849994 588.506647,332.705347 595.103185,321.152688 C597.887397,316.576431 600.414627,311.847791 602.673072,306.988854 C600.245735,304.599256 598.345498,301.72525 597.095261,298.552715 C595.973353,293.892033 596.126291,289.014053 597.537944,284.433282 L598.201969,281.192028 C599.00563,276.632592 599.124999,271.978249 598.556116,267.383401 C598.334774,265.562971 597.626481,263.387335 596.386967,263.209732 C595.696665,263.191804 595.076306,262.782544 594.786511,262.153888 C594.496716,261.525232 594.587695,260.786098 595.021226,260.247008 C595.454757,259.707919 596.155728,259.462274 596.82965,259.613272 C599.707093,259.968478 601.6549,262.632522 602.18612,266.939393 C602.770624,271.892244 602.621449,276.904575 601.743437,281.813639 C601.743437,282.923657 601.300753,284.078076 601.079411,285.188094 C599.833271,289.140205 599.650017,293.352335 600.548191,297.398296 C601.399067,299.624164 602.677534,301.660742 604.311001,303.392395 C605.948929,299.840336 607.498321,296.288277 609.003445,292.736219 L612.544913,284.610885 C614.127953,280.502823 616.387546,276.690553 619.229433,273.333099 C625.559806,266.495386 635.033232,264.452952 644.993609,263.165331 C645.469138,263.088565 645.955589,263.204525 646.345833,263.487673 C646.736077,263.770822 646.998108,264.197936 647.074221,264.674956 C647.18343,265.6705 646.507075,266.581463 645.524829,266.76179 C636.228477,268.138213 627.419076,269.825441 621.885533,275.641937 C619.34301,278.747368 617.310645,282.239701 615.865038,285.987307 C614.669793,288.651351 613.518816,291.359796 612.367839,294.068241 C609.711739,300.195542 606.967101,306.500446 603.868317,312.583346 C607.277963,314.031637 611.127343,314.031637 614.536988,312.583346 C617.140334,311.376014 619.604453,309.887166 621.885533,308.143273 L623.56773,306.944453 C626.718073,304.468404 630.377017,302.72445 634.28067,301.838369 C638.176309,301.272642 642.152032,301.826905 645.746171,303.436795 C646.993695,303.969097 648.193347,304.607853 649.331907,305.346027 C650.833325,306.463337 652.553025,307.250107 654.378498,307.654865 C654.856147,307.666239 655.308943,307.870729 655.634052,308.221893 C655.95916,308.573056 656.128987,309.041089 656.104963,309.519696 C656.093365,310.002551 655.890926,310.460991 655.542213,310.794092 C655.193501,311.127192 654.727102,311.307645 654.245693,311.295725 C651.787755,310.927374 649.46,309.950761 647.472636,308.454078 C646.495282,307.833329 645.474447,307.284288 644.418121,306.811251 C641.432879,305.480666 638.13884,305.004291 634.900427,305.434828 C631.535223,306.233953 628.38017,307.748062 625.648343,309.874902 L624.010414,311.073721 C621.518129,313.017263 618.833144,314.698537 615.997844,316.091004 C611.583731,317.966139 606.600233,317.966139 602.18612,316.091004 C600.946606,318.488644 599.574288,320.841882 598.157701,323.10632 C591.173737,335.35013 580.449401,345.016887 567.568275,350.679175 C564.087425,351.995028 560.523376,353.077823 556.899604,353.920428 C556.710431,353.965712 556.513288,353.965712 556.324115,353.920428 C551.041584,355.017351 545.953084,356.903182 541.22861,359.51492 C539.765451,360.47703 538.374643,361.545516 537.067386,362.711773 C540.069607,363.94117 542.909409,365.536811 545.522639,367.462651 L547.204837,368.61707 C556.217435,375.141799 567.078245,378.596528 578.192677,378.474033 C579.874875,378.474033 581.557072,378.207629 583.195,377.985625 C587.575785,377.07992 592.094719,377.07992 596.475504,377.985625 C596.940208,378.119596 597.332408,378.434007 597.565106,378.859118 C597.797804,379.284229 597.851765,379.784895 597.715017,380.250062 C597.581446,380.716157 597.267972,381.109529 596.844129,381.342923 C596.420285,381.576317 595.921112,381.630439 595.457332,381.493283 C591.600507,380.713501 587.627313,380.713501 583.770489,381.493283 C582.044023,381.715287 580.27329,381.93729 578.546824,382.026092 C569.400818,382.312535 560.34714,380.119042 552.339964,375.676787 C549.960449,374.435259 547.654633,373.056527 545.434103,371.547519 L543.751906,370.3931 C540.996995,368.228264 537.878775,366.574274 534.54409,365.509019 L534.322748,365.509019 C532.906161,366.974243 531.489574,368.483868 530.117256,369.949092 L516.349801,385.045341 C513.085216,388.418994 510.122593,392.073918 507.496132,395.967922 C501.447481,405.729003 499.990168,417.665981 503.511981,428.60246 C503.804145,429.545444 503.293489,430.550112 502.361004,430.866897 C501.910549,431.070144 501.394872,431.070144 500.944417,430.866897 C500.517479,430.646749 500.197955,430.262173 500.05905,429.80128 C496.296437,417.880418 497.913428,404.905809 504.485884,394.280694 C507.212854,390.211538 510.294192,386.392922 513.6937,382.869706 L527.505423,367.729056 C531.037831,363.516676 535.117342,359.798296 539.63495,356.673273 C543.883809,354.246275 548.461779,352.451489 553.225331,351.345186 C549.134379,346.283868 546.692737,340.084011 546.230933,333.584893 C546.171922,330.037411 546.498484,326.494041 547.204837,323.017518 C547.470447,321.641096 547.691788,320.220272 547.868862,318.799449 C548.488625,314.172959 548.488625,309.484109 547.868862,304.857619 C547.868862,303.081589 547.1163,302.371178 546.762153,302.282376 C546.129531,302.139611 545.620901,301.66918 545.42786,301.048292 C545.234819,300.427404 545.386694,299.750385 545.826275,299.272263 C546.265856,298.79414 546.926361,298.587552 547.558983,298.730318 L547.249105,298.641516 Z" id="Path" fill="#FEFEFE" fill-rule="nonzero"></path>
                <path d="M690.588752,310.153392 C685.067338,317.410956 678.785986,324.056418 671.851937,329.976321 C647.062375,352.249275 644.570067,325.52173 646.172265,342.003716 C647.774463,358.485702 608.25358,337.237304 602.111822,348.952878 C600.774938,351.859139 601.097703,355.259751 602.957426,357.862059 L602.957426,357.862059 C606.651382,365.123042 615.552482,373.675857 617.911273,384.055053 C618.174675,384.983765 618.324126,385.941122 618.356328,386.905991 C618.896646,391.525733 617.978428,396.198874 615.730504,400.269764 C610.745888,409.802588 600.064569,410.693506 586.089842,409.490767 C578.835446,408.822578 570.601929,407.664385 561.834346,406.907104 C560.965933,406.766707 560.088154,406.692252 559.208521,406.684375 C551.110998,406.026063 542.980166,405.877284 534.864014,406.238915 C532.816761,406.461645 530.725002,406.684375 528.588738,406.996196 C528.00538,407.026482 527.425149,407.100938 526.853024,407.218925 C523.566722,407.709704 520.312178,408.393928 517.10632,409.268037 C514.92555,409.802588 512.65577,410.559869 510.475001,411.317149 C508.485492,411.996042 506.424787,412.444428 504.333242,412.653526 C503.15688,412.876475 501.949164,412.876475 500.772802,412.653526 C499.491091,412.44414 498.30772,411.836332 497.390384,410.916236 C496.665018,410.187706 496.14326,409.281481 495.877197,408.288027 C495.354102,406.679291 495.127889,404.988698 495.209615,403.298886 C495.188003,403.19607 495.188003,403.089879 495.209615,402.987064 L495.209615,402.987064 C495.832692,398.977932 501.262362,369.17672 521.067309,348.462873 C522.268958,347.260133 523.248079,345.968302 524.316211,344.765562 C532.3272,333.718177 532.3272,321.156231 531.926651,308.772468 C531.926651,305.876984 531.926651,302.936954 531.926651,299.863287 C531.819181,294.367485 532.372047,288.878673 533.573354,283.514938 C536.632999,285.07221 539.439064,287.084798 541.895882,289.48409 C542.751286,290.402772 543.553685,291.369501 544.299179,292.379574 C548.304674,297.145986 551.197532,302.491495 555.203026,307.12427 C562.988633,315.980797 573.830254,321.565642 585.555776,322.759884 C586.341414,322.804291 587.12893,322.804291 587.914568,322.759884 C589.825972,322.893612 591.744372,322.893612 593.655777,322.759884 C595.168964,322.759884 596.815667,322.448062 598.328854,322.225333 C605.638183,321.066492 612.652183,318.494374 618.979405,314.652528 C622.9849,312.247049 626.678857,309.351565 630.461824,306.856994 C631.752483,305.966076 633.176659,305.119704 634.467319,304.362424 C636.071734,303.381865 637.736607,302.504037 639.451935,301.734215 C656.505462,293.012694 677.248118,296.445838 690.588752,310.197937 L690.588752,310.153392 Z" id="Path" fill="url(#linearGradient-3)" opacity="0.942968786"></path>
                <path d="M628.785895,376.16056 C627.830029,380.847343 624.648413,384.783329 620.249366,386.721127 C619.728089,386.909189 619.192961,387.056917 618.648767,387.162992 C614.301076,388.037008 609.781669,387.264787 605.977357,384.997855 C594.728702,379.076867 601.220021,400.59568 586.058789,403.070122 C585.66832,403.114139 585.281846,403.188002 584.902801,403.291055 C572.764924,404.97014 567.118366,402.318952 561.649652,405.323632 C560.860197,405.682517 560.150001,406.193102 559.55998,406.825972 C559.321213,406.962839 559.11014,407.142642 558.937525,407.35621 C556.092016,410.139958 554.936027,414.337673 550.712224,419.374931 C545.55253,425.004616 539.14365,429.361759 531.994106,432.100635 C524.631634,435.354443 517.000513,437.971141 509.185567,439.921641 C507.762812,441.335608 505.272991,440.363505 503.094398,438.55186 C502.239107,437.856029 501.477062,437.054142 500.826882,436.16579 C500.604577,435.944858 500.515655,435.856485 500.515655,435.635553 C500.337193,435.436217 500.18755,435.21314 500.071044,434.972756 C499.030368,433.745581 498.741031,432.054112 499.315205,430.554108 C499.315205,430.554108 499.315205,430.333176 499.537511,430.244803 C499.759816,430.15643 499.537511,430.023871 499.537511,429.891311 C500.071044,427.77036 500.604577,425.472664 501.13811,423.572646 C502.249637,419.684236 503.316703,416.060945 504.517153,412.6144 C510.030328,395.735168 516.610569,384.55599 525.502787,383.80482 C526.108817,383.742759 526.719661,383.742759 527.325691,383.80482 C528.214913,383.80482 529.059674,384.025752 529.948895,384.246685 C536.592536,386.477839 543.928968,384.278086 548.222403,378.767562 C549.067164,377.883833 549.956385,376.91173 550.801146,375.851255 L553.068662,372.934948 C554.580339,370.90237 556.225399,368.5163 557.959381,366.39535 C566.851599,355.127799 577.52226,364.00928 587.170316,367.676757 C587.170316,367.676757 587.70385,367.676757 587.926155,368.030249 C593.972863,370.1512 598.196666,362.727872 603.042925,358.353412 L603.042925,358.353412 C605.518376,355.154432 610.061223,354.401967 613.44682,356.630139 C624.250864,363.302297 631.275716,366.39535 628.785895,376.16056 Z" id="Path" fill="#131F77" fill-rule="nonzero"></path>
                <path d="M501.337243,438.178049 C500.807914,437.549644 500.807914,436.630719 501.337243,436.002314 C503.421418,433.293746 552.953841,369.797799 609.448297,370.685854 C609.89124,370.685692 610.315431,370.864865 610.624435,371.18264 C610.933439,371.500415 611.101002,371.929793 611.089031,372.373159 C611.064989,373.287646 610.31755,374.016378 609.403953,374.016061 C554.594575,373.128006 504.441334,437.3788 503.953548,438.044841 C503.375427,438.754369 502.345571,438.890568 501.603308,438.35566 C501.603308,438.35566 501.381587,438.400063 501.337243,438.178049 Z" id="Path" fill="#FFFFFF" fill-rule="nonzero"></path>
                <path d="M619.710018,386.501124 C619.191059,386.689953 618.658312,386.838285 618.11654,386.944793 C613.788192,387.822378 609.288893,387.047003 605.501507,384.770814 C594.302898,378.825649 600.765336,400.432333 585.67156,402.91688 C585.282828,402.961076 584.898074,403.035241 584.520715,403.138714 C572.436841,404.824657 566.815405,402.162642 561.371023,405.179592 C560.58508,405.539942 559.878044,406.052612 559.290649,406.688067 C559.052944,406.825492 558.842809,407.006029 558.670963,407.22047 C555.838113,410.015585 554.687268,414.230441 550.482257,419.288268 C545.34552,424.940942 538.965154,429.315877 531.847419,432.065938 C524.517704,435.333033 516.920535,437.960416 509.140359,439.91888 C507.723934,441.338622 505.245191,440.36255 503.076291,438.543506 C502.224805,437.844834 501.466151,437.039672 500.818864,436.147693 C500.597547,435.925859 500.509021,435.837125 500.509021,435.61529 C500.331353,435.415141 500.182376,435.191153 500.066388,434.949787 C499.030343,433.717601 498.742293,432.019225 499.313912,430.513096 C499.313912,430.513096 499.313912,430.291262 499.535229,430.202528 C499.756545,430.113794 499.535229,429.980693 499.535229,429.847592 C500.066388,427.717981 500.597547,425.410902 501.128707,423.503125 C502.235289,419.598837 503.297607,415.96075 504.492715,412.500132 C509.981361,395.551973 516.532326,384.327145 525.384981,383.572908 C525.988315,383.510593 526.596441,383.510593 527.199775,383.572908 C528.08504,383.572908 528.926043,383.794742 529.811308,384.016577 C536.42539,386.256842 543.729181,384.048106 548.003514,378.51508 C549.818308,379.801721 551.633102,380.999627 553.580686,382.286267 C554.333162,382.81867 555.085638,383.262339 555.838113,383.706008 L557.343065,384.637714 L558.670963,385.436318 C559.984165,386.10009 561.345431,386.663668 562.743184,387.12226 C565.339428,388.041422 568.122628,388.300576 570.843363,387.876498 C575.184441,386.673242 579.245794,384.622733 582.794447,381.842598 L582.794447,381.842598 C583.635449,381.221462 584.520715,380.644692 585.361717,380.112289 L586.999458,379.269318 C588.065631,378.706266 589.175904,378.23144 590.319204,377.849577 C597.010391,375.57364 604.327262,376.036001 610.68031,379.136217 C613.213229,380.334785 615.484709,382.023535 617.364064,384.105311 C618.219816,384.827821 619.005314,385.630014 619.710018,386.501124 Z" id="Path" fill="url(#linearGradient-4)" fill-rule="nonzero" opacity="0.7" style="mix-blend-mode: overlay;"></path>
                <path d="M537.087397,117.788592 L532.641174,164.200793 L526.194151,229.888492 L518.146488,312.675422 L507.60894,421.044581 C507.190666,424.783449 506.122366,428.420713 504.452121,431.792669 C498.062312,444.482123 486.646628,453.920362 472.972864,457.819033 C470.430407,458.468809 467.816325,458.797077 465.191973,458.796132 L461.946231,458.796132 L461.946231,458.796132 L329.04863,454.710081 C320.579038,454.932653 312.401455,451.610717 306.491225,445.546707 C300.580994,439.482697 297.475564,431.228044 297.925069,422.776711 L297.925069,422.776711 L297.925069,421.177821 L302.771452,355.001573 L312.997765,214.654631 L312.997765,213.988427 L319.844948,119.964858 L320.200646,114.990536 C320.698012,110.392988 322.468681,106.024989 325.313802,102.377077 C325.765999,101.783535 326.256104,101.21979 326.781056,100.68936 C336.774158,90.2456623 350.60028,84.3266637 365.063035,84.3007459 L506.052762,84.3007459 C514.810847,84.0496946 523.251818,87.5839612 529.213066,93.9980531 C535.174315,100.412145 538.076591,109.08281 537.176322,117.788592 L537.087397,117.788592 Z" id="Path" fill="url(#linearGradient-5)" opacity="0.942968786"></path>
                <path d="M526.608953,122.657647 L523.233711,156.720577 L522.478722,164.74843 L520.30258,186.614348 L519.592002,194.863964 L516.882927,222.318331 L516.127938,230.346183 L510.132443,291.331248 L502.937848,365.84391 L501.161405,383.895489 L500.228773,393.475688 L499.962306,396.181207 L499.473784,401.326129 L499.207318,404.608235 L498.629974,409.664451 L498.629974,411.615973 L498.141452,416.539131 L497.297642,425.409686 C497.184149,426.7678 496.976398,428.116409 496.675886,429.445788 L496.675886,429.445788 C495.848749,433.112898 494.423379,436.6192 492.456834,439.824338 C486.123059,450.714472 474.830552,457.796194 462.257302,458.762972 L462.257302,458.762972 C461.47333,458.807187 460.687486,458.807187 459.903514,458.762972 L318.631877,458.762972 C303.925068,459.206058 291.014589,449.05941 287.988234,434.679416 L287.988234,434.679416 C287.352209,431.60259 287.187492,428.447176 287.499712,425.32098 L287.899412,421.240525 L289.853499,401.326129 L292.829042,370.988831 L293.58403,363.44886 L294.161374,357.283824 L296.026639,338.300837 L296.781627,330.539101 L298.735715,310.669058 L299.490703,303.217792 L317.033079,122.657647 C317.255134,121.149652 317.5216,119.641658 317.788067,118.222369 C319.139281,112.60953 321.802644,107.396192 325.560005,103.009367 C326.048527,102.432781 326.492638,101.856195 327.069982,101.235256 C334.24245,93.5788262 344.240065,89.1875736 354.738083,89.0825962 L495.521198,89.0825962 C505.513065,88.8999048 514.995269,93.4783257 521.057568,101.412668 C525.4795,107.562965 527.457759,115.133701 526.608953,122.657647 L526.608953,122.657647 Z" id="Path" fill="#4862C1" fill-rule="nonzero"></path>
                <path d="M520.012238,135.925658 L509.239367,246.776777 L508.840372,250.811758 L508.441377,254.713717 L507.953716,260.167593 L503.121441,308.942085 L502.63378,314.750684 L502.412116,316.967706 L501.747124,324.28388 L498.510829,357.228833 L493.190893,412.077967 C492.766129,416.439623 490.448459,420.39493 486.851302,422.897036 C484.138564,425.046307 480.780487,426.217931 477.31975,426.22257 L307.170459,426.22257 C303.477001,426.350911 299.911381,424.861111 297.406794,422.14308 C294.902207,419.42505 293.707962,415.749342 294.136615,412.077967 L320.95796,135.836977 C321.91399,127.81659 328.665251,121.746994 336.740437,121.648034 L506.934061,121.648034 C510.647403,121.546437 514.222032,123.061783 516.731397,125.801291 C519.240762,128.540798 520.4378,132.234747 520.012238,135.925658 L520.012238,135.925658 Z" id="Path" fill="#FFFFFF" fill-rule="nonzero"></path>
                <path d="M454.244511,107.27589 L391.979469,107.27589 C391.372562,107.279277 390.792937,107.017631 390.385527,106.556376 C389.978117,106.095121 389.781438,105.477863 389.844667,104.858944 L389.844667,104.858944 C390.003129,103.498855 391.132841,102.47793 392.468694,102.487601 L454.733736,102.487601 C455.336583,102.470911 455.917086,102.722 456.326134,103.176372 C456.735182,103.630744 456.932914,104.244119 456.868538,104.858944 L456.868538,104.858944 C456.711876,106.226984 455.587822,107.262331 454.244511,107.27589 Z" id="Path" fill="#FFFFFF" fill-rule="nonzero"></path>
                <path d="M536.379613,106.768868 C534.785667,105.836182 533.103509,105.062858 531.357575,104.460127 C527.97992,103.128162 524.602266,102.018191 521.135726,100.90822 C512.250201,98.2540049 503.149113,96.3821054 493.93672,95.3139647 C481.581616,93.8932015 468.293213,94.1595946 457.626936,100.50863 C456.693637,101.085815 455.760338,101.751798 454.827039,102.284584 C453.012702,103.712846 451.318235,105.286843 449.760557,106.990862 C446.013607,111.157336 443.115255,116.013304 441.227536,121.287291 C438.199813,129.944688 437.270714,139.196059 438.516524,148.281791 C438.899571,151.053582 439.463718,153.79737 440.205351,156.495578 C440.844688,159.137373 441.661319,161.733174 442.649706,164.265376 C443.888805,167.913381 445.373626,171.473423 447.093988,174.9211 C447.848376,176.709488 448.693896,178.45813 449.627229,180.160164 C450.649414,182.202511 451.760484,184.200459 452.782669,186.154009 C454.382611,189.039934 455.982552,191.748263 457.582494,194.545391 C458.293579,195.699761 458.960221,196.89853 459.626863,198.008501 L473.670794,222.028278 C474.515208,223.626637 475.448507,225.136197 476.381806,226.734556 L478.337291,230.06447 C488.159154,246.891633 498.069903,264.118386 506.202939,281.789128 C507.713995,284.852649 509.047279,287.960568 510.336121,291.112886 C513.422915,298.193477 516.108542,305.441941 518.380271,312.823923 L513.935989,358.776731 L511.58052,383.773283 L510.647221,393.363434 L510.380564,396.071764 L509.891693,401.22203 L509.53615,404.507545 L509.091722,409.569014 L508.869508,411.522563 L508.158423,416.406437 L507.669552,421.112714 C507.264246,424.852897 506.195768,428.491149 504.514111,431.857236 C504.051788,432.483137 503.546911,433.076522 503.003056,433.63319 L503.003056,433.63319 C501.160896,436.003994 499.156146,438.244125 497.003275,440.337416 C496.733808,440.661415 496.419558,440.945455 496.069976,441.180994 C489.279468,447.833504 481.517208,453.4174 473.048595,457.741764 C470.522933,458.399463 467.92552,458.742459 465.315544,458.762938 L462.026776,458.762938 L462.026776,458.762938 C461.242244,458.807199 460.455838,458.807199 459.671306,458.762938 L318.654239,458.762938 C303.936918,459.206484 291.017211,449.049296 287.988693,434.654363 L287.988693,434.654363 C287.352213,431.574341 287.187379,428.415649 287.499822,425.286206 L287.899807,421.201512 L289.855291,401.266429 L292.83296,370.897617 L293.588488,363.349813 L294.166245,357.178373 C295.943958,356.689985 297.632785,356.245997 299.410498,355.846407 C300.572776,355.476499 301.761274,355.19451 302.965923,355.002829 C314.654385,352.205702 326.609503,350.163355 338.520179,347.455025 C350.23297,345.005507 361.604678,341.144144 372.385608,335.955723 C376.102582,333.988538 379.694466,331.794022 383.14077,329.384694 C388.143861,325.969197 392.633408,321.857851 396.473616,317.17501 C411.806389,298.749488 415.272929,273.131353 414.606287,249.200373 C414.409277,235.426247 412.330903,221.743465 408.428735,208.531028 C406.099478,201.067913 402.939068,193.889562 399.006857,187.130783 C391.543924,173.752351 381.299802,162.125574 368.963511,153.032468 L367.85244,152.188889 C354.519594,142.731935 338.831279,135.139732 326.209518,125.238789 C324.03182,123.551632 321.765236,121.775678 320.031966,119.999724 C319.192642,119.287311 318.405472,118.515757 317.676497,117.690984 C319.028677,112.072315 321.693943,106.853561 325.45399,102.462179 C325.942861,101.884994 326.387289,101.307809 326.965046,100.686225 C336.944746,90.2329803 350.770675,84.3134447 365.230314,84.3030502 L506.114053,84.3030502 C520.199601,83.8651385 532.734384,93.1695808 536.379613,106.768868 Z" id="Path" fill="url(#linearGradient-6)" fill-rule="nonzero" opacity="0.7" style="mix-blend-mode: overlay;"></path>
                <g id="Group" opacity="0.1" transform="translate(198.059754, 137.680141)" fill="#000000" fill-rule="nonzero">
                    <path d="M52.5614486,83.8409807 L48.5213555,82.1114317 L48.5213555,82.1114317 L16.0674209,68.2306924 C15.0919933,67.8784288 14.0238778,67.8784288 13.0484502,68.2306924 C11.752754,68.59296 10.6914333,69.5226248 10.1626695,70.7584948 L8.07602799,75.7254047 L8.07602799,75.7254047 L1.15015412,91.8678619 C0.677870173,92.9550386 0.660865847,94.1858109 1.10293483,95.2855923 C1.54500381,96.3853737 2.40936382,97.2626572 3.50317537,97.72172 L39.997203,113.332008 C41.0855863,113.803769 42.3177245,113.820754 43.4187265,113.379175 C44.5197285,112.937596 45.3979856,112.074194 45.8575578,110.981595 L54.7368833,89.9165758 C55.2895873,88.6897519 55.2895873,87.2851751 54.7368833,86.0583512 C54.2811628,85.0964756 53.5149896,84.315533 52.5614486,83.8409807 Z" id="Path"></path>
                    <path d="M149.656873,80.4262301 C148.342323,78.9500823 146.081131,78.8113911 144.595657,80.1157983 L141.976256,82.466211 L141.976256,82.466211 L120.843461,100.959081 C120.240025,101.526559 119.835325,102.27287 119.689149,103.087757 C119.513816,104.148211 119.841942,105.229826 120.577082,106.014686 L132.741757,119.718035 C134.056307,121.194183 136.317499,121.332874 137.802973,120.028467 L161.510772,99.0077948 C162.217846,98.3847886 162.647916,97.5065184 162.706211,96.5665227 C162.764505,95.6265269 162.44624,94.701951 161.821548,93.9965375 L149.656873,80.4262301 Z" id="Path"></path>
                    <path d="M109.566718,148.144725 L90.1653919,136.126577 C89.1650815,135.501184 87.9566673,135.29933 86.807082,135.565605 C85.6574967,135.83188 84.6613398,136.544372 84.0386573,137.545694 L81.7300327,141.270876 L81.7300327,141.270876 L63.2166391,171.027988 C62.660817,171.896653 62.425338,172.931612 62.5506897,173.954917 C62.7461072,175.284201 63.506797,176.464388 64.6373312,177.192278 L84.0386573,189.210426 C85.0389678,189.835819 86.2473819,190.037673 87.3969672,189.771398 C88.5465525,189.505123 89.5427094,188.792631 90.1653919,187.791309 L110.98741,154.264667 C111.613497,153.265466 111.815575,152.058391 111.549004,150.910081 C111.282434,149.76177 110.569151,148.766717 109.566718,148.144725 L109.566718,148.144725 Z" id="Path"></path>
                    <path d="M187.305212,109.828563 C186.929098,109.473343 186.444389,109.254684 185.928917,109.207699 C185.259247,109.127692 184.589482,109.356139 184.108655,109.828563 L182.1996,111.735501 L182.1996,111.735501 L175.895279,117.944139 C175.038325,118.836364 175.038325,120.244927 175.895279,121.137152 L189.96901,135.328323 C190.871013,136.162214 192.263564,136.162214 193.165567,135.328323 L201.378943,127.212747 C201.851891,126.732454 202.080592,126.063432 202.000496,125.394504 C201.972408,124.874804 201.750692,124.384404 201.378943,124.019734 L187.305212,109.828563 Z" id="Path"></path>
                    <path d="M249.504887,68.6741665 L233.211325,63.529867 C232.785117,63.3524774 232.305634,63.3524774 231.879426,63.529867 C231.344794,63.7372504 230.935446,64.1788561 230.769511,64.7272471 L230.059165,66.9446176 L230.059165,66.9446176 L227.75054,74.1288979 C227.457989,75.1550001 228.025153,76.229463 229.038042,76.5680055 L245.331604,81.7566524 C246.346245,82.0532948 247.416596,81.5089929 247.773419,80.514925 L250.747993,71.0689267 C250.989404,70.5485545 250.989404,69.9484447 250.747993,69.4280725 C250.425754,69.0495604 249.989744,68.7851337 249.504887,68.6741665 L249.504887,68.6741665 Z" id="Path"></path>
                    <path d="M264.777327,101.579945 C264.630887,101.261835 264.356803,101.020264 264.022584,100.914733 C263.767266,100.80629 263.478764,100.80629 263.223445,100.914733 L253.54498,104.906 C253.291383,105.020793 253.075781,105.20539 252.923428,105.438169 C252.787769,105.764664 252.787769,106.131665 252.923428,106.45816 L253.456187,107.788582 L253.456187,107.788582 L255.232052,112.223323 C255.478649,112.834265 256.17297,113.131502 256.785934,112.888534 L266.508796,108.897267 C267.103106,108.633879 267.378862,107.945252 267.130348,107.345108 L264.777327,101.579945 Z" id="Path"></path>
                    <path d="M49.8088577,30.7127838 L93.3175524,30.7127838 C96.8336639,30.7254621 100.206186,29.3205977 102.671488,26.81629 C105.13679,24.3119823 106.486338,20.9200653 106.414557,17.4085608 L106.414557,12.9738199 C106.446405,6.13838913 101.084886,0.489625881 94.2498816,0.157418426 L94.2498816,0.157418426 C93.987346,0.093488967 93.7132779,0.093488967 93.4507423,0.157418426 L49.9420475,0.157418426 C49.0046047,0.180142088 48.0699441,0.269058697 47.14506,0.423502885 C41.2107433,1.76729199 36.9932337,7.02873551 36.9782324,13.1068621 L36.9782324,17.5416031 C36.9308107,20.9878648 38.2560391,24.3117608 40.6623169,26.7819069 C43.0685946,29.252053 46.3587625,30.6660569 49.8088577,30.7127838 Z" id="Path"></path>
                </g>
                <path d="M588.742995,346.629944 C588.233532,347.081937 587.681357,347.483669 587.094202,347.829514 C587.688689,354.224493 587.807847,360.654559 587.450698,367.067068 C587.450698,369.466209 587.094202,371.509921 586.871392,373.686919 C586.871392,374.842061 586.559459,376.041632 586.470335,377.241202 L586.470335,377.552202 C586.470335,378.307487 586.247525,379.062772 586.113839,379.818057 C586.070833,380.320667 586.070833,380.826016 586.113839,381.328627 C584.468572,388.086674 584.060973,395.085412 584.910666,401.987894 C584.969088,402.287812 585.043463,402.584421 585.133476,402.876465 C585.44541,404.475892 585.980153,406.65289 586.648582,409.229745 C579.384983,408.563317 571.14102,407.408175 562.362314,406.65289 C562.141886,406.089106 561.96316,405.509987 561.827571,404.920177 C561.087612,403.061886 560.506244,401.144658 560.089654,399.188897 C559.644034,396.478756 559.109291,393.235473 558.663671,389.547905 C558.440862,388.392763 558.351738,387.059907 558.128928,385.77148 C558.194805,385.299851 558.194805,384.821396 558.128928,384.349767 C558.128928,382.972483 558.128928,381.461912 557.816994,379.906914 C557.371375,381.121294 556.970317,382.276436 556.613821,383.372339 L555.009591,387.548621 C554.341161,389.503477 553.583608,391.369475 553.048864,393.102188 C551.409716,397.003075 550.532487,401.180057 550.464271,405.408891 L550.464271,405.853176 C550.464271,408.652174 550.68708,413.406027 550.999014,419.181736 C545.827615,424.842261 539.404194,429.223273 532.238429,431.977153 C530.723322,424.602017 529.29734,418.026594 528.316976,412.38417 C528.094167,410.8736 527.915919,409.496316 527.693109,408.16346 C527.597039,407.812909 527.52263,407.456812 527.470299,407.097175 C527.019867,404.155365 526.766787,401.186871 526.712746,398.211469 C526.712746,394.212901 527.158365,389.325763 527.782233,383.416768 C528.227852,379.329343 528.85172,374.797633 529.742959,370.088208 C529.742959,370.088208 529.742959,370.088208 529.742959,370.088208 C530.099455,367.955639 530.500512,365.645355 531.079818,363.423929 C532.015619,358.981075 533.129668,354.849222 534.421965,350.450797 C534.421965,350.450797 534.421965,350.450797 534.421965,350.450797 C532.492578,336.338917 532.312979,322.0439 533.887221,307.888264 C533.887221,304.822695 534.332841,301.801555 534.555651,299.002558 C533.905699,299.47308 533.280972,299.977297 532.684048,300.513128 C530.10648,302.958288 526.922812,304.675695 523.459723,305.489123 C517.235873,304.868366 511.187006,303.074216 505.634939,300.202128 L501.847172,298.380558 C500.109255,297.491988 498.371339,296.647846 496.544299,295.537132 C489.503509,291.760707 482.106224,287.006854 474.664376,282.208573 C474.664376,282.208573 471.812411,279.720575 469.094131,277.14372 C468.827295,276.893286 468.614945,276.590836 468.470264,276.25515 C467.439876,274.651609 467.24111,272.653379 467.93552,270.879297 L467.579024,270.435012 L464.014068,265.992159 L461.295788,262.304591 L459.245938,259.816593 L458.934004,259.194593 C458.750177,258.815738 458.750177,258.373878 458.934004,257.995023 C459.08226,257.58048 459.409455,257.254264 459.825243,257.106452 L468.247454,253.774313 C468.746009,253.660237 469.264005,253.660237 469.762561,253.774313 C470.23187,253.667667 470.719233,253.667667 471.188543,253.774313 C471.188543,253.774313 471.188543,253.774313 471.188543,253.774313 C471.554047,253.933754 471.886519,254.159761 472.168906,254.440741 L472.391716,254.440741 L478.986886,262.971019 L480.056373,264.392732 L480.412869,264.792588 L481.259546,265.903302 L481.616042,266.303158 L482.373595,267.413872 L482.685529,267.724871 L482.908339,268.169157 L484.200636,269.768584 L485.047313,270.968154 L485.047313,271.190297 C485.196808,271.345614 485.317507,271.52612 485.403809,271.723439 C485.589919,272.120887 485.587771,272.580535 485.397954,272.976237 C485.208137,273.371938 484.850593,273.662123 484.423445,273.767152 L478.674953,276.033007 L499.485388,283.408143 L505.011071,285.362999 L512.586604,288.073139 L519.449146,290.516708 L536.115319,270.879297 L536.115319,270.879297 L536.115319,270.879297 C537.855547,270.080644 539.659022,269.426799 541.507317,268.924442 C542.203488,268.609868 542.937356,268.385887 543.690853,268.258014 C547.131584,267.279267 550.649931,266.595541 554.207475,266.214301 C554.430285,265.148017 554.742219,263.948446 554.875905,262.882162 C554.46374,262.804899 554.060584,262.685803 553.672732,262.526733 C548.458982,261.238306 546.721066,253.152313 547.033,245.910462 C547.033,244.399892 547.033,242.889322 547.478619,241.467609 L542.48768,241.467609 L543.690853,233.781473 L544.002786,232.048761 L558.307176,227.961336 L561.471075,229.916191 L573.19087,237.024756 L573.814738,252.174885 L569.358542,257.017595 L569.358542,257.684023 C569.020078,257.805041 568.692182,257.953638 568.378179,258.128309 L565.882709,260.705163 C566.168269,262.363983 566.631389,263.987498 567.26413,265.547873 C570.923795,265.632561 574.566005,266.079033 578.137248,266.880729 C579.906016,267.13733 581.621518,267.677446 583.217312,268.480157 C591.684084,274.655722 588.653871,297.225416 587.985441,323.171679 C587.985441,325.792962 587.985441,328.369817 587.985441,331.079958 C587.985441,332.81267 587.985441,334.63424 587.985441,336.500238 C588.163689,339.521379 588.431061,343.075661 588.742995,346.629944 Z" id="Path" fill="#000000" fill-rule="nonzero" opacity="0.1"></path>
                <path d="M239.095247,219.337874 L230.179539,240.535832 C229.718576,241.646647 228.82921,242.524144 227.713028,242.969424 C226.596847,243.414705 225.348374,243.390061 224.250593,242.901078 L187.607034,227.192275 C186.497432,226.730809 185.620894,225.84047 185.176099,224.723068 C184.731305,223.605666 184.755922,222.355828 185.244371,221.256847 L194.160079,200.05889 C194.680068,198.798134 195.747443,197.844666 197.057684,197.470507 C198.049183,197.197826 199.104359,197.276656 200.044447,197.693644 L236.688006,213.402446 C237.64753,213.805349 238.436043,214.531574 238.916933,215.455301 C239.565766,216.654254 239.631447,218.084377 239.095247,219.337874 Z" id="Path" fill="#FCDEEB" fill-rule="nonzero"></path>
                <path d="M238.497364,214.9996 L215.684466,218.30609 C213.673703,218.654394 211.643514,217.802933 210.497718,216.130768 L208.343899,213.085317 L197.311072,197.466503 C198.288713,197.20067 199.329142,197.277521 200.25609,197.684035 L236.3875,212.998304 C237.300806,213.407712 238.045258,214.113857 238.497364,214.9996 Z" id="Path" fill="url(#linearGradient-7)" opacity="0.942968786"></path>
                <path d="M239.011999,219.285562 L230.109976,240.529823 C229.649721,241.643065 228.76172,242.522478 227.647252,242.968732 C226.532783,243.414985 225.286226,243.390287 224.190131,242.900236 L187.602817,227.15712 C186.494917,226.694645 185.619725,225.802362 185.175613,224.682519 C184.731502,223.562675 184.756081,222.310108 185.243781,221.208726 L192.187358,204.973638 C195.436597,206.449555 198.463285,208.685793 201.623503,210.430059 C203.815117,211.651701 206.127247,212.640968 208.522571,213.381893 C212.13865,214.742925 215.931574,215.57145 219.78363,215.841755 C223.431515,216.278937 227.127238,215.641886 230.421547,214.00804 C231.397206,213.42938 232.197405,212.594397 232.736073,211.592903 L236.786494,213.337168 C237.744545,213.740951 238.531848,214.468763 239.011999,215.394507 C239.602913,216.623571 239.602913,218.056498 239.011999,219.285562 Z" id="Path" fill="url(#linearGradient-8)" fill-rule="nonzero" opacity="0.7" style="mix-blend-mode: overlay;"></path>
                <path d="M333.65557,210.014849 L345.870166,223.81189 C347.128912,225.321967 346.992322,227.558141 345.559249,228.90206 L321.796307,250.066453 C320.301908,251.35531 318.059114,251.216869 316.732801,249.753899 L304.562621,235.956858 C303.911918,235.249938 303.577058,234.306286 303.635777,233.344966 C303.694496,232.383645 304.141688,231.488267 304.873538,230.866688 L328.636481,209.702295 C329.245709,209.145616 330.034247,208.82854 330.857317,208.809283 C331.925147,208.755558 332.957836,209.200469 333.65557,210.014849 L333.65557,210.014849 Z" id="Path" fill="#FCDEEB" fill-rule="nonzero"></path>
                <path d="M331.405975,208.804921 L326.059708,226.542342 C325.556695,228.0827 324.262577,229.222156 322.685424,229.51336 L319.74936,230.001139 L304.586995,232.750439 C304.742965,231.94251 305.159033,231.209622 305.770185,230.666292 L329.214882,209.647448 C329.822288,209.110687 330.599583,208.811798 331.405975,208.804921 Z" id="Path" fill="url(#linearGradient-9)" opacity="0.942968786"></path>
                <path d="M333.673912,210.017178 L345.871374,223.813434 C347.128354,225.323424 346.991956,227.559472 345.560893,228.903314 L321.831285,250.066503 C320.338982,251.355287 318.099335,251.216854 316.774883,249.753966 L307.460457,239.172372 C309.633823,237.341801 312.250733,235.913063 314.601517,234.216436 C316.221754,233.04458 317.709161,231.69705 319.036957,230.198109 C321.221744,228.035321 323.088671,225.569695 324.581258,222.875824 C326.17179,220.391873 326.976037,217.48053 326.887688,214.526634 C326.797639,213.626047 326.476672,212.764467 325.956245,212.026341 L328.61751,209.704641 C329.225883,209.147994 330.013314,208.830936 330.83523,208.81168 C331.916794,208.743813 332.967463,209.189998 333.673912,210.017178 L333.673912,210.017178 Z" id="Path" fill="url(#linearGradient-10)" fill-rule="nonzero" opacity="0.7" style="mix-blend-mode: overlay;"></path>
                <path d="M274.589786,265.200005 L293.852645,277.273366 C294.855257,277.888688 295.572646,278.88138 295.845722,280.0313 C296.118797,281.18122 295.924989,282.393327 295.307277,283.398821 L274.633866,316.911276 C273.993788,317.916594 272.978434,318.61979 271.817167,318.862017 C270.6559,319.104243 269.446692,318.865065 268.462698,318.19851 L249.199839,306.125148 C248.20456,305.502596 247.496368,304.506647 247.2317,303.357302 C246.967032,302.207957 247.167667,300.999795 247.789286,299.999693 L268.462698,266.487238 C269.073756,265.47763 270.059569,264.755235 271.20152,264.480254 C272.343471,264.205273 273.547179,264.400433 274.545706,265.022455 L274.589786,265.200005 Z" id="Path" fill="#FCDEEB" fill-rule="nonzero"></path>
                <path d="M271.063269,265.316344 L271.063247,288.36598 C271.069043,290.394101 269.902959,292.248274 268.058349,293.144023 L264.649808,294.780945 L247.158608,303.629174 C247.018684,302.613507 247.24062,301.581426 247.786497,300.709259 L268.820786,267.307196 C269.312787,266.408047 270.105129,265.704608 271.063269,265.316344 Z" id="Path" fill="url(#linearGradient-11)" opacity="0.942968786"></path>
                <path d="M274.609226,265.805911 L293.854567,277.958313 C294.856268,278.577663 295.573004,279.576854 295.845831,280.734302 C296.118658,281.89175 295.925027,283.111793 295.307877,284.12387 L274.653266,317.855722 C274.01377,318.867621 272.999339,319.575421 271.839128,319.819233 C270.678918,320.063046 269.47081,319.822301 268.48771,319.151382 L253.822496,310.215793 C255.760242,307.22237 258.226464,304.541693 260.516527,301.726982 C262.037555,299.740748 263.351113,297.599611 264.436059,295.338035 C266.257149,291.970353 267.60603,288.361305 268.44367,284.615328 C269.406323,281.081143 269.329786,277.338579 268.223472,273.847942 C267.79561,272.799521 267.11399,271.877523 266.241686,271.167265 L268.53175,267.458995 C269.142252,266.442777 270.127168,265.715653 271.268081,265.438871 C272.408994,265.16209 273.611607,265.358528 274.609226,265.984623 L274.609226,265.805911 Z" id="Path" fill="url(#linearGradient-12)" fill-rule="nonzero" opacity="0.7" style="mix-blend-mode: overlay;"></path>
                <path d="M386.119532,256.541554 L377.947315,264.691677 C377.049832,265.524567 375.664259,265.524567 374.766776,264.691677 L360.763572,250.561843 C359.932939,249.661922 359.932939,248.272585 360.763572,247.372664 L368.891615,239.266835 C369.409674,238.704123 370.165126,238.424175 370.923626,238.513834 C371.441125,238.57628 371.923044,238.8101 372.293024,239.178246 L386.296228,253.308081 C386.663377,253.679066 386.896564,254.162294 386.958841,254.681199 C386.976752,255.397233 386.667684,256.082292 386.119532,256.541554 L386.119532,256.541554 Z" id="Path" fill="#FCDEEB" fill-rule="nonzero"></path>
                <path d="M386.959578,254.780316 L375.212267,251.844046 C374.196011,251.588712 373.409145,250.799745 373.171228,249.797555 L372.763021,247.929019 L370.676626,238.497364 C371.207975,238.560084 371.702792,238.794933 372.082674,239.164698 L386.460658,253.35667 C386.781087,253.764998 386.956329,254.265043 386.959578,254.780316 L386.959578,254.780316 Z" id="Path" fill="url(#linearGradient-13)" opacity="0.942968786"></path>
                <path d="M385.37767,256.613999 L377.137519,264.696835 C376.232576,265.522848 374.835484,265.522848 373.930541,264.696835 L359.81093,250.683658 C358.973392,249.791167 358.973392,248.4133 359.81093,247.520809 L366.091262,241.370826 C367.33842,242.644751 368.31833,244.226175 369.476405,245.763671 C370.252491,246.74855 371.150267,247.633972 372.148887,248.399379 C373.568422,249.694333 375.174462,250.774966 376.914812,251.606156 C378.541308,252.503527 380.402535,252.901243 382.259775,252.748295 C382.809055,252.645846 383.327161,252.420416 383.774181,252.089369 L385.333129,253.626864 C385.70333,253.994787 385.938455,254.474026 386.001249,254.988647 C386.013884,255.5895 385.790443,256.171896 385.37767,256.613999 L385.37767,256.613999 Z" id="Path" fill="url(#linearGradient-14)" fill-rule="nonzero" opacity="0.7" style="mix-blend-mode: overlay;"></path>
                <path d="M434.753309,201.071292 L431.797269,210.361152 C431.461229,211.359459 430.381144,211.905583 429.37067,211.588115 L413.178634,206.504984 C412.189663,206.152795 411.648153,205.096343 411.943274,204.094878 L414.899313,194.805018 C415.079197,194.247095 415.499538,193.797498 416.046433,193.578055 C416.462725,193.447034 416.90962,193.447034 417.325913,193.578055 L433.517949,198.705006 C433.948488,198.82317 434.313753,199.107086 434.532709,199.493768 C434.856418,199.954156 434.938442,200.540712 434.753309,201.071292 L434.753309,201.071292 Z" id="Path" fill="#FCDEEB" fill-rule="nonzero"></path>
                <path d="M434.850615,198.635669 L425.338701,201.058847 C424.50575,201.302867 423.612739,201.00124 423.080164,200.295995 L422.037763,199.039532 L416.652021,192.622597 C417.061835,192.488425 417.501776,192.488425 417.91159,192.622597 L433.851647,197.872816 C434.268086,197.98299 434.626489,198.25668 434.850615,198.635669 L434.850615,198.635669 Z" id="Path" fill="url(#linearGradient-15)" opacity="0.942968786"></path>
                <path d="M434.692161,200.606929 L431.744018,210.303486 C431.408876,211.345497 430.331675,211.91553 429.323901,211.584163 L413.175119,206.2785 C412.18879,205.910893 411.648726,204.808191 411.943059,203.762884 L414.187168,196.353251 C415.639238,196.856375 417.003304,197.679667 418.587381,198.320006 C419.575555,198.771641 420.608465,199.10908 421.66753,199.326252 C423.24297,199.776467 424.874762,199.976925 426.507765,199.920852 C428.064697,199.960868 429.597415,199.514772 430.907978,198.640175 C431.300758,198.342681 431.617915,197.950215 431.832022,197.496713 L433.592108,198.091313 C434.021497,198.21465 434.385785,198.510995 434.604157,198.914606 C434.898241,199.429726 434.931113,200.06186 434.692161,200.606929 L434.692161,200.606929 Z" id="Path" fill="url(#linearGradient-16)" fill-rule="nonzero" opacity="0.7" style="mix-blend-mode: overlay;"></path>
                <path d="M448.710538,230.636919 L451.049252,236.445095 C451.29101,237.081531 450.995254,237.802438 450.387352,238.058477 L440.767733,242.253271 C440.159041,242.480236 439.485756,242.178804 439.223299,241.561822 L436.884585,235.753646 C436.726814,235.419454 436.726814,235.027615 436.884585,234.693423 C436.993278,234.433304 437.201343,234.23267 437.458232,234.140264 L447.07785,229.94547 C447.335394,229.854146 447.614587,229.854146 447.872131,229.94547 C448.254494,229.991247 448.579174,230.259016 448.710538,230.636919 Z" id="Path" fill="#FCDEEB" fill-rule="nonzero"></path>
                <path d="M448.260105,230.843529 L444.521143,235.962738 C444.188261,236.429508 443.611342,236.661582 443.044021,236.556932 L442.028501,236.556932 L436.766257,235.734202 C436.879958,235.47628 437.097611,235.277341 437.366337,235.185715 L447.429225,231.026358 C447.677395,230.874273 447.970242,230.809834 448.260105,230.843529 L448.260105,230.843529 Z" id="Path" fill="url(#linearGradient-17)" opacity="0.942968786"></path>
                <path d="M448.757641,230.765343 L451.050891,236.509721 C451.28795,237.139166 450.997942,237.852155 450.401858,238.105382 L440.969243,242.254099 C440.372384,242.478571 439.712187,242.18045 439.454832,241.570244 L437.724077,237.011214 C438.589455,236.692082 439.54137,236.509721 440.406748,236.236179 C441.022522,236.044914 441.617216,235.785104 442.180772,235.461144 C443.075543,235.007695 443.905699,234.424565 444.647098,233.728713 C445.387244,233.099373 445.942451,232.261408 446.248046,231.312427 C446.314474,231.012521 446.314474,230.700526 446.248046,230.400621 L447.286499,229.944718 C447.539036,229.854397 447.812802,229.854397 448.065339,229.944718 C448.424446,230.058926 448.692098,230.376189 448.757641,230.765343 Z" id="Path" fill="url(#linearGradient-18)" fill-rule="nonzero" opacity="0.7" style="mix-blend-mode: overlay;"></path>
                <path d="M291.17472,142.265615 L291.17472,146.687535 C291.248159,150.227713 289.866037,153.644501 287.347748,156.148317 C284.829458,158.652133 281.392919,160.026312 277.832277,159.953295 L234.246961,159.953295 C230.743991,159.942403 227.392946,158.529742 224.949656,156.03394 C222.506365,153.538137 221.17661,150.169395 221.260316,146.687535 L221.260316,142.265615 C221.376402,136.226169 225.581493,131.027282 231.489523,129.618923 C232.401091,129.464934 233.32261,129.376267 234.246961,129.353608 L277.832277,129.353608 C278.095275,129.289863 278.369825,129.289863 278.632823,129.353608 L278.632823,129.353608 C285.661769,129.522532 291.24976,135.275424 291.17472,142.265615 L291.17472,142.265615 Z" id="Path" fill="#F7F7EF" fill-rule="nonzero"></path>
                <path d="M259.633275,150.377856 L259.633275,147.496575 L254.780316,147.496575 L254.780316,146.550482 L259.462996,139.841828 L260.995509,139.841828 L260.995509,146.378466 L262.442882,146.378466 L262.442882,147.496575 L260.995509,147.496575 L260.995509,150.377856 L259.633275,150.377856 Z M259.633275,146.378466 L259.633275,142.852122 C259.633275,142.293067 259.633275,141.777017 259.633275,141.217962 L259.633275,141.217962 C259.376877,141.748912 259.092676,142.265694 258.781879,142.766113 L256.22769,146.335461 L259.633275,146.335461 L259.633275,146.378466 Z" id="Shape" fill="#F851A7" fill-rule="nonzero"></path>
                <path d="M263.400703,148.278619 C263.415279,146.932941 264.313718,145.747883 265.629813,145.338381 L265.629813,145.338381 C264.567669,144.938954 263.854239,143.958949 263.818661,142.850487 C263.852526,141.988607 264.251039,141.178799 264.919616,140.613263 C265.588193,140.047726 266.467226,139.776883 267.348085,139.865015 C268.170146,139.762277 268.998371,140.003971 269.627017,140.530057 C270.255664,141.056143 270.625739,141.817252 270.645311,142.624315 C270.640042,143.777409 269.899192,144.805718 268.787719,145.202677 L268.787719,145.202677 C270.123994,145.565658 271.052142,146.746468 271.063269,148.097681 C271.017649,149.031999 270.57802,149.906516 269.848286,150.514543 C269.118552,151.122571 268.163469,151.410155 267.208766,151.309325 C266.286429,151.423475 265.35644,151.163639 264.63646,150.590632 C263.91648,150.017625 263.469706,149.181741 263.400703,148.278619 Z M269.530756,148.278619 C269.530756,146.921586 268.55552,146.288304 267.023007,145.835959 C265.863293,146.030288 265.007026,146.997019 264.979656,148.142915 C264.96533,148.726924 265.203701,149.289901 265.636524,149.694282 C266.069347,150.098663 266.656752,150.307199 267.255206,150.268934 C267.840868,150.319847 268.421454,150.128083 268.854526,149.740686 C269.287599,149.35329 269.533084,148.806108 269.530756,148.233384 L269.530756,148.278619 Z M265.304735,142.714784 C265.304735,143.845644 266.140651,144.433692 267.440965,144.795568 C268.420604,144.562321 269.133671,143.739816 269.205677,142.760018 C269.205677,141.710762 268.332421,140.860172 267.255206,140.860172 C266.17799,140.860172 265.304735,141.710762 265.304735,142.760018 L265.304735,142.714784 Z" id="Shape" fill="#F851A7" fill-rule="nonzero"></path>
                <path d="M278.503586,141.122926 L274.402415,141.122926 L273.961429,144.005396 L274.843401,144.005396 C275.660559,143.975009 276.469768,144.180943 277.180628,144.600191 C278.168935,145.19131 278.762464,146.299753 278.724079,147.482661 C278.714496,148.555506 278.278161,149.576584 277.518311,150.304305 C276.758462,151.032026 275.742608,151.401734 274.711105,151.325954 C273.772968,151.33648 272.847537,151.100375 272.02109,150.639652 L272.373879,149.450061 C273.08764,149.866666 273.892157,150.087155 274.711105,150.09061 C275.365038,150.141091 276.010095,149.909562 276.494169,149.450619 C276.978243,148.991675 277.258489,148.345939 277.268825,147.665675 C277.268825,146.201563 276.298655,145.194986 274.137823,145.194986 L272.63847,145.194986 L273.344048,139.841828 L278.503586,139.841828 L278.503586,141.122926 Z" id="Path" fill="#F851A7" fill-rule="nonzero"></path>
                <path d="M244.244288,153.251318 L242.152477,153.251318 C242.073255,151.381746 241.046008,149.679613 239.424028,148.730319 C238.527049,149.146845 237.549156,149.362892 236.559157,149.363259 C235.58367,149.363693 234.620408,149.147446 233.73976,148.730319 C232.11778,149.679613 231.090533,151.381746 231.011311,153.251318 L228.9195,153.251318 C228.896638,150.922991 230.016657,148.729708 231.920794,147.374019 C229.718894,145.27296 229.241384,141.950109 230.763407,139.320104 C232.28543,136.690098 235.414887,135.430471 238.348575,136.267024 C241.282263,137.103577 243.264415,139.8208 243.152909,142.85302 C243.139918,144.569502 242.416167,146.204836 241.152046,147.374019 C243.039519,148.754002 244.180637,150.922878 244.244288,153.251318 L244.244288,153.251318 Z" id="Path" fill="#4862C1" fill-rule="nonzero"></path>
                <path d="M267.39102,139.748015 C267.017199,141.037071 266.838086,142.375475 266.859701,143.71825 C266.596751,147.248542 267.095201,150.794355 268.320829,154.112235 C269.366322,156.001947 270.29782,157.953428 271.110256,159.956063 L234.537769,159.956063 C235.201918,158.216298 236.264557,156.744188 237.061536,155.13825 C239.421333,150.066437 239.800678,144.285728 238.124175,138.945046 C237.459292,136.545836 236.280427,134.322659 234.670599,132.432077 C233.845659,131.364996 232.876996,130.419082 231.792619,129.621686 C232.700125,129.466338 233.617537,129.376889 234.537769,129.35403 L277.928856,129.35403 C278.190682,129.289723 278.464009,129.289723 278.725835,129.35403 C276.224569,130.81387 273.841052,132.469515 271.597299,134.305671 C269.719305,135.689504 268.262441,137.574485 267.39102,139.748015 Z" id="Path" fill="url(#linearGradient-19)" fill-rule="nonzero" opacity="0.7" style="mix-blend-mode: overlay;"></path>
                <g id="Group-6" transform="translate(62.000000, 292.000000)">
                    <path d="M180.07006,138.24582 L180.07006,222.941146 C179.926676,232.018916 172.567337,239.336536 163.461872,239.455185 L16.5637811,239.455185 C7.47565229,239.312842 0.142771761,232.001982 0,222.941146 L0,158.080376 C13.322076,158.434564 26.6441519,161.48944 39.9662279,162.817647 C49.1894752,163.836026 58.4973055,163.836026 67.7205528,162.817647 C81.9234742,162.12651 95.9523032,159.397762 109.374244,154.715585 C122.420428,150.946747 134.065313,143.432638 142.857061,133.110087 C145.312568,129.738003 146.843202,125.785567 147.297753,121.643234 L163.550686,121.643234 C167.951404,121.654933 172.166555,123.412137 175.265822,126.527015 C178.365089,129.641894 180.093672,133.858365 180.07006,138.24582 Z" id="Path" fill="url(#linearGradient-20)" fill-rule="nonzero" opacity="0.7" style="mix-blend-mode: overlay;"></path>
                    <path d="M153.251318,14.9402277 L153.251318,137.662985 L117.153226,159.895369 L100.079805,170.344589 C96.4909284,172.552907 92.3084243,173.593554 88.1062363,173.323729 C84.9558122,173.050913 81.9154925,172.029691 79.2369263,170.344589 L67.352051,162.874509 L22.029877,135.084029 L22.029877,15.0291572 C22.0298595,11.0354784 23.6151534,7.20601623 26.4357599,4.3862332 C29.2563664,1.56645016 33.0803139,-0.0117497474 37.0633574,6.5870461e-05 L138.262184,6.5870461e-05 C146.505941,-7.88339332e-05 153.202538,6.67463991 153.251318,14.9402277 Z" id="Path" fill="#F8F7F2" fill-rule="nonzero"></path>
                    <rect id="Rectangle" fill="#FCDEEB" fill-rule="nonzero" x="42.1441125" y="13.4094903" width="52.6801406" height="16.2829525" rx="1.81"></rect>
                    <rect id="Rectangle" fill="#FCDEEB" fill-rule="nonzero" x="42.1441125" y="44.059754" width="99.6133568" height="37.3550088" rx="2.92"></rect>
                    <path d="M98.655536,127.337253 L78.9091384,137.113242 C72.6984979,140.212338 65.5073569,140.692421 58.9408711,138.446332 C57.6835655,138.039025 56.4656993,137.518473 55.3022091,136.891061 C50.3496012,134.360197 46.3486357,130.291247 43.8981098,125.293183 C37.5021309,112.335248 42.8065006,96.6384999 55.7459483,90.2329311 L75.4479721,80.456942 C70.5224661,82.9009393 69.3243701,90.9439121 71.7205622,100.319974 C72.5929652,103.554667 73.7820329,106.695242 75.2704764,109.696037 C81.7046958,122.67144 92.1325687,130.581104 98.655536,127.337253 Z" id="Path" fill="#131F77" fill-rule="nonzero"></path>
                    <path d="M111.107206,121.447169 L108.10741,122.812722 L98.3021087,127.614183 C91.7204679,130.82984 81.1987973,123.209173 74.7067027,109.994144 C73.2048709,107.019431 72.0051076,103.906152 71.1248574,100.699574 C68.7071118,91.4050039 69.9159846,83.4319366 74.885795,81.0091813 L84.7358696,76.2077208 C85.7656501,75.7231698 86.7058845,75.2386187 87.6461189,74.7100176 C86.8622815,76.0752599 86.331656,77.5668522 86.0790615,79.1150272 C85.8150026,80.4645839 85.6949563,81.8375876 85.720877,83.2116861 C85.7253402,84.5959936 85.8150507,85.9787635 85.9895154,87.3523951 C86.7946539,92.5827498 88.4420783,97.6533973 90.8697796,102.373478 C93.7421736,108.433449 97.9659656,113.778499 103.227146,118.011262 C104.317634,118.874783 105.50426,119.613685 106.764218,120.213767 C108.12286,120.883181 109.594969,121.301259 111.107206,121.447169 L111.107206,121.447169 Z" id="Path" fill="#FFFFFF" fill-rule="nonzero"></path>
                    <path d="M186.775044,117.099154 C182.567128,119.352613 177.966522,120.774286 173.223491,121.286835 C155.984138,122.623329 150.030341,105.560755 116.840143,118.925696 C114.885165,119.683042 112.752461,120.618588 110.575327,121.643234 C109.023182,121.484145 107.515361,121.030592 106.132194,120.30674 C104.881853,119.69985 103.704285,118.952567 102.62212,118.07925 C97.4010971,113.79847 93.2095445,108.392785 90.359075,102.26407 C87.9499039,97.4904447 86.3150538,92.3622756 85.5160609,87.0725876 C85.3429278,85.6833734 85.253902,84.2849174 85.2494729,82.8849062 C85.2237501,81.4952199 85.3428801,80.1066408 85.6049235,78.7417746 C85.8555899,77.1760371 86.3821653,75.6675241 87.1600198,74.2867945 C89.3223441,73.1878993 91.3217536,72.0741543 93.1582483,70.9455593 C123.904723,52.591041 113.907676,37.4441084 125.504251,24.5246659 C128.78416,21.0902932 132.671009,18.2957796 136.967532,16.2829525 L138.611491,19.5796379 L155.850844,54.4621327 L162.559973,68.1389218 L167.802869,78.6972248 L185.042222,113.624269 L186.775044,117.099154 Z" id="Path" fill="url(#linearGradient-21)" opacity="0.942968786"></path>
                    <ellipse id="Oval" fill="#FFFFFF" fill-rule="nonzero" transform="translate(162.302775, 66.552891) rotate(-26.330000) translate(-162.302775, -66.552891) " cx="162.302775" cy="66.5528913" rx="28.1020586" ry="55.9255148"></ellipse>
                    <path d="M198.499881,73.5233577 C197.569862,70.1606507 196.462697,66.7094513 195.178385,63.2140059 C195.178385,63.2140059 195.178385,63.2140059 195.178385,63.2140059 C193.896419,59.6109625 192.417987,56.0807374 190.749724,52.6391771 C189.008678,49.0921137 187.087079,45.6363948 184.992465,42.285579 C182.955281,39.0556104 180.785237,36.0468725 178.570906,33.1708731 C167.100674,18.7466297 153.681832,10.5610927 142.521606,11.5787541 C140.290945,11.8291445 138.119325,12.4575908 136.100048,13.4370922 C131.493899,15.8518139 127.967652,19.9119824 126.224134,24.8083516 C121.44118,36.8875493 123.035498,55.5151765 131.49424,74.9834805 L131.49424,74.9834805 C132.335686,76.8418187 133.177131,78.7001568 134.10715,80.5584949 C134.50573,81.4876639 135.037169,82.416833 135.524322,83.346002 C145.975962,103.256768 160.590543,116.973073 173.610806,120.601257 L173.610806,120.601257 C176.467195,121.519456 179.483142,121.835841 182.468128,121.530426 C184.618005,121.299398 186.705762,120.669141 188.623967,119.672087 C189.648045,119.193968 190.613892,118.600144 191.502596,117.902242 C191.502596,117.902242 191.502596,117.902242 191.502596,117.902242 C193.341346,116.47648 194.915269,114.739258 196.15269,112.769689 C201.865663,103.964706 202.707108,89.6289547 198.499881,73.5233577 Z M140.395849,77.4170185 C139.820123,76.3993572 139.421543,75.3816959 138.890104,74.3640345 L136.72006,69.1429893 C127.862738,46.6217013 128.615611,24.8968439 139.06725,19.8970294 C139.861408,19.4716523 140.711024,19.1589216 141.591587,18.9678604 C151.99894,16.6670608 166.923528,27.8170895 178.39376,45.5155477 C179.058059,46.6217013 179.766645,47.7721011 180.430944,48.966747 L180.430944,48.966747 L180.430944,48.966747 C181.670969,51.0020697 182.866707,53.3913616 183.973873,55.3824381 C185.081038,57.3735146 185.96677,59.8070527 186.985362,62.0193599 L186.985362,62.0193599 C196.462697,85.160094 195.842684,107.504397 185.125324,112.902427 C173.522233,119.052641 152.928959,102.593075 140.395849,77.4170185 Z" id="Shape" fill="#131F77" fill-rule="nonzero"></path>
                    <path d="M180.262905,72.6814619 L167.704724,78.9896088 C166.590017,79.5613898 165.296207,79.6561059 164.11224,79.2526041 C162.928273,78.8491023 161.952774,77.9809943 161.403601,76.8421545 C157.909041,72.1039507 155.30946,66.7493191 153.736501,61.0494181 C152.592968,58.7020972 153.539852,55.8579964 155.851563,54.6965326 L168.409744,48.3883857 C171.576488,46.7552647 175.257294,46.4847236 178.622688,47.6377289 C181.988083,48.7907343 184.754903,51.2702725 186.299645,54.5175781 L186.299645,54.5175781 C187.908132,57.7328207 188.174592,61.4699974 187.038979,64.8869329 C185.903365,68.3038685 183.461228,71.1130627 180.262905,72.6814619 L180.262905,72.6814619 Z" id="Path" fill="#FF7FAF" fill-rule="nonzero"></path>
                    <path d="M117.811951,159.817261 L100.726003,170.296915 C97.1326423,172.600215 92.88498,173.654472 88.6364687,173.297499 L88.1457496,167.251545 L85.2460457,133.707696 L91.8930592,130.348833 L98.0047428,127.213894 L98.3170186,127.213894 L98.3170186,127.213894 L101.305944,125.780778 L107.506849,122.601054 L117.811951,159.817261 Z" id="Path" fill="#F851A7" fill-rule="nonzero"></path>
                    <path d="M188.583046,119.815998 C183.822496,122.016942 178.408492,122.335235 173.423903,120.707214 C156.175377,122.044039 150.218411,104.977243 117.010553,118.34549 C115.054534,119.103024 112.920696,120.038802 110.742403,121.063701 L107.76392,122.445086 L98.0282826,127.302216 L78.2458233,137.105597 C72.0238407,140.213376 64.819567,140.694804 58.2410892,138.442422 C56.9814874,138.033974 55.7613971,137.511963 54.5957821,136.882793 C55.3959714,133.139684 56.3739807,129.441135 57.5298097,125.831709 C60.4414745,116.57284 64.9558045,107.899771 70.8662992,100.209235 C75.0032245,94.8552593 79.989258,90.2186472 85.6253475,86.4845016 C86.6922666,85.7715284 87.7591858,85.103116 88.8705599,84.4792645 C99.4299127,78.9917489 111.04356,75.8458618 122.923063,75.255174 L130.880502,74.6758833 L134.703629,74.3639576 L138.526756,74.0520318 C144.695099,73.5819127 150.784677,72.3700735 156.664381,70.4426051 C158.755741,69.7353374 160.779224,68.8404984 162.710256,67.7689557 C165.492678,66.2303632 168.025856,64.2771248 170.223145,61.9760486 C173.967771,57.9326856 176.575542,52.9661212 177.780489,47.5829026 C177.971512,46.7893573 178.119908,45.9861073 178.225039,45.1766182 C178.544131,43.2620914 178.70767,41.3247616 178.714044,39.3837111 C178.722249,37.0984773 178.528858,34.8169915 178.136129,32.5659051 C182.94403,38.5983052 187.07366,45.1437399 190.450154,52.0835458 C205.431478,82.1621017 204.542378,111.83961 188.583046,119.815998 Z" id="Path" fill="url(#linearGradient-22)" fill-rule="nonzero" opacity="0.7" style="mix-blend-mode: overlay;"></path>
                    <path d="M117.811951,159.864902 L100.71089,170.307705 C97.1143501,172.602907 92.8629305,173.653456 88.6106611,173.297739 L88.1195079,167.273045 C91.9192704,167.680128 95.7613743,167.17525 99.3267307,165.800342 C102.224776,164.952215 104.71594,163.080837 106.336826,160.534313 C107.417605,158.190838 107.878809,155.609425 107.676335,153.036916 C107.548216,143.957561 105.573319,134.999171 101.871797,126.706772 C101.803706,126.370098 101.666908,126.051068 101.469945,125.769597 L107.676335,122.601054 L117.811951,159.864902 Z" id="Path" fill="url(#linearGradient-23)" fill-rule="nonzero" opacity="0.7" style="mix-blend-mode: overlay;"></path>
                    <path d="M180.070239,138.207822 L180.070239,222.934946 C179.926854,232.016125 172.567511,239.336491 163.46204,239.455185 L16.5638517,239.455185 C7.47571686,239.312788 0.142831468,231.999184 5.96120651e-05,222.934946 L5.96120651e-05,138.207822 C-0.0117384996,133.818714 1.72816051,129.605339 4.83575376,126.497608 C7.94334702,123.389876 12.1631561,121.643278 16.5638517,121.643293 L163.46204,121.643293 C167.870426,121.63149 172.101666,123.372886 175.218876,126.4819 C178.336087,129.590914 180.082074,133.811028 180.070239,138.207822 Z" id="Path" fill="#FCDEEB" fill-rule="nonzero"></path>
                    <path d="M174.323374,125.325199 L154.053008,137.746285 L117.947805,159.926797 L100.871019,170.351638 C97.2814357,172.554803 93.0981077,173.593022 88.8950918,173.323826 C85.744047,173.051647 82.7031283,172.032808 80.0240344,170.351638 L68.1368175,162.898986 L22.8057143,135.173346 L6.70474517,125.325199 C9.69210635,122.94506 13.3975361,121.64721 17.2169482,121.643234 L163.855527,121.643234 C167.657932,121.667525 171.34286,122.963663 174.323374,125.325199 Z" id="Path" fill="#F4B8D4" fill-rule="nonzero"></path>
                </g>
                <path d="M454.393684,243.968753 L456.36072,246.741629 L459.158282,250.6326 L462.655233,255.552218 L467.026423,261.992446 C467.197599,262.219528 467.404392,262.415996 467.63839,262.573856 C468.436313,263.197679 469.437188,263.485692 470.435952,263.378884 C470.609898,263.404572 470.786548,263.404572 470.960494,263.378884 L470.960494,263.378884 L470.960494,263.378884 L478.784924,259.666808 C479.294253,259.45242 479.675086,259.005031 479.812706,258.459411 C479.950325,257.913791 479.828643,257.333719 479.484315,256.893932 L479.484315,256.893932 L479.484315,256.893932 L476.774177,252.913514 L471.004206,244.460715 L471.004206,244.460715 L467.157559,238.780791 L467.157559,238.512449 C466.976411,238.221812 466.718863,237.989302 466.414457,237.841592 L466.414457,237.841592 C465.493073,237.43886 464.450855,237.43886 463.529471,237.841592 L455.093075,241.46422 C454.252404,241.816552 453.8155,242.768893 454.087701,243.655686 C454.185407,243.764339 454.28749,243.868785 454.393684,243.968753 L454.393684,243.968753 Z" id="Path" fill="#F851A7" fill-rule="nonzero"></path>
                <path d="M455.237642,243.996857 L456.764346,245.989396 L457.078668,246.476462 L458.066535,247.760542 L458.425759,248.247608 L459.593239,249.885918 L459.952464,250.328704 L462.601745,253.915275 L465.834765,258.34314 L466.643021,259.405828 L467.047148,259.937171 L467.047148,259.937171 L467.271663,260.247122 L467.271663,260.247122 L467.271663,260.557073 L467.271663,260.557073 L467.271663,260.867023 L467.630888,261.398367 L467.855403,261.398367 L467.855403,261.398367 C468.031857,261.610342 468.244624,261.790178 468.484046,261.929711 C469.237207,262.424856 470.172291,262.570447 471.043521,262.328219 L471.043521,262.328219 L479.709813,258.697369 C480.146652,258.529759 480.497115,258.196452 480.68278,257.772032 C480.868445,257.347612 480.873812,256.867511 480.69768,256.439158 L480.69768,256.439158 C480.620127,256.233998 480.514365,256.040314 480.383359,255.863536 L480.383359,255.597864 L479.485297,254.446619 L478.183108,252.631194 L477.823884,252.188408 L477.599369,251.834178 L476.74621,250.727212 L476.431889,250.240147 L475.533828,249.088902 L475.219506,248.646115 L468.169725,238.506304 C468.169725,238.506304 468.169725,238.506304 467.945209,238.506304 C467.652364,238.193202 467.301903,237.937767 466.912439,237.753567 L466.912439,237.753567 C466.223131,237.468202 465.446399,237.468202 464.757092,237.753567 L456.0908,241.340138 C455.477097,241.567942 455.04388,242.114748 454.968223,242.757055 C454.94544,243.186531 455.038397,243.614297 455.237642,243.996857 Z" id="Path" fill="#131F77" fill-rule="nonzero"></path>
                <path d="M456.064006,245.042079 L460.859564,251.564182 L460.859564,251.828591 L460.859564,251.828591 L461.081581,252.137069 L463.168537,255.001506 L463.434957,255.354052 L463.434957,255.354052 L463.74578,255.794735 L465.166686,257.733738 L467.520062,260.906653 C467.725553,261.160082 468.004574,261.344692 468.319322,261.435472 C468.551454,261.501591 468.797642,261.501591 469.029775,261.435472 L479.375747,257.028646 C479.607201,256.943477 479.782072,256.751373 479.844022,256.514225 C479.905972,256.277077 479.847174,256.02485 479.686571,255.838803 L468.230515,239.974228 C467.877821,239.516504 467.267032,239.338216 466.720802,239.533546 L456.330426,243.940372 C456.13585,244.040368 455.994656,244.21934 455.94352,244.430798 C455.892384,244.642256 455.936353,244.865331 456.064006,245.042079 L456.064006,245.042079 Z" id="Path" fill="#FFFFFF" fill-rule="nonzero"></path>
                <path d="M459.298989,241.76256 L463.369728,240.038483 C463.369728,240.038483 463.369728,240.038483 463.369728,240.038483 L463.369728,240.038483 C463.280822,239.987154 463.171287,239.987154 463.082381,240.038483 L459.011643,241.76256 C459.011643,241.76256 459.011643,241.76256 459.011643,241.76256 L459.011643,241.76256 C459.011643,241.76256 459.203207,241.810451 459.298989,241.76256 Z" id="Path" fill="#FFFFFF" fill-rule="nonzero"></path>
                <path d="M453.625901,243.926671 L453.625901,243.657444 C453.801985,243.504348 453.967376,243.339437 454.120918,243.163863 C454.56722,242.754932 455.066727,242.4078 455.605968,242.131829 C456.312429,241.634741 457.176361,241.411408 458.036051,241.503634 L458.036051,241.503634 L458.531068,241.503634 C458.921261,241.675801 459.284915,241.902425 459.611105,242.1767 C460.103543,242.633472 460.501097,243.182336 460.781144,243.792057 C460.798893,243.971105 460.798893,244.151462 460.781144,244.33051 L460.781144,244.868962 L460.781144,245.676641 C460.781144,245.676641 460.781144,245.945868 460.781144,246.03561 L460.781144,246.529191 C460.803481,246.737997 460.803481,246.94858 460.781144,247.157386 L460.781144,247.426612 C460.781144,248.054807 460.781144,248.683001 460.781144,249.266325 L460.781144,249.894519 C460.788799,251.213694 460.863899,252.531622 461.006152,253.843171 C461.006152,253.843171 461.006152,254.291881 461.006152,254.516237 C461.006152,254.740592 461.006152,255.593142 461.321163,256.086723 L463.346232,258.823857 L464.426268,260.304601 L464.831282,260.887925 L464.831282,260.887925 L464.831282,261.202022 L464.831282,261.202022 L465.05629,261.516119 L465.05629,261.516119 L465.281298,261.830217 L465.281298,262.099443 C465.457523,262.327272 465.670418,262.524386 465.911319,262.682766 L465.911319,262.682766 L465.911319,262.682766 L466.541341,262.951993 L466.541341,262.951993 C467.188274,263.207546 467.871815,263.359003 468.566409,263.400703 L469.106428,263.400703 L469.106428,263.400703 L469.106428,263.400703 L477.791724,259.721278 C478.229521,259.551425 478.580753,259.213659 478.766825,258.783561 C478.952897,258.353463 478.958276,257.866938 478.781757,257.432854 L478.781757,257.432854 C478.704034,257.224949 478.59804,257.028674 478.466747,256.849531 L478.466747,256.580305 L477.566716,255.413657 L476.261671,253.573945 L475.901659,253.125234 L475.676652,252.766266 L475.04663,252.766266 L472.571546,253.214976 C471.733986,253.305793 470.88902,253.305793 470.05146,253.214976 L469.151429,253.214976 C468.703017,253.127939 468.265429,252.992529 467.846385,252.811137 C466.248173,251.97462 464.95646,250.655239 464.156259,249.041969 C463.651962,248.203863 463.27296,247.296896 463.031221,246.349707 C462.641644,244.859868 462.75229,243.283794 463.346232,241.862603 L463.346232,241.862603 C463.796247,240.920311 464.516272,240.02289 464.921285,239.080598 C464.921285,239.080598 464.921285,238.766501 464.921285,238.587017 C464.921285,238.407532 464.921285,238.587017 464.921285,238.587017 C464.627798,238.269725 464.276568,238.010873 463.88625,237.824209 L463.88625,237.824209 C462.932806,237.444654 461.869593,237.444654 460.916149,237.824209 L452.230853,241.458763 C452.016536,241.969564 452.05066,242.550402 452.323324,243.032758 C452.595988,243.515114 453.076667,243.844987 453.625901,243.926671 Z" id="Path" fill="url(#linearGradient-24)" fill-rule="nonzero" opacity="0.7" style="mix-blend-mode: overlay;"></path>
                <path d="M590.975395,476.9039 C591.863742,478.523133 592.352446,480.339274 592.399183,482.195033 C592.399183,485.237435 605.342707,482.724147 605.342707,482.724147 C604.489111,480.328221 603.494971,477.987058 602.365696,475.713394 C601.475952,473.735322 600.29762,471.906699 598.870945,470.289982 L590.975395,476.9039 Z" id="Path" fill="#FBD783" fill-rule="nonzero"></path>
                <path d="M583.014266,331.405975 C588.082165,367.870356 578.607397,383.801396 581.427793,397.785308 C584.248189,411.769221 600.553603,472.484185 600.553603,472.484185 C597.82748,475.739397 593.655388,477.401909 589.448294,476.909473 C575.390383,444.339347 558.600214,406.680139 556.528986,395.041629 C553.200956,375.120964 552.726086,354.824829 555.118788,334.769195 L583.014266,331.405975 Z" id="Path" fill="#FFFFFF" fill-rule="nonzero"></path>
                <path d="M604.6484,478.910369 C606.740183,481.065642 607.659285,484.17645 607.09529,487.192163 C597.61359,489.38844 588.481447,491.76774 579.524081,493.27768 C578.824969,489.70873 586.908446,483.028388 591.671143,480.466065 C595.997241,482.045694 600.775129,481.472928 604.6484,478.910369 Z" id="Path" fill="#131F77" fill-rule="nonzero"></path>
                <path d="M540.210896,480.873116 C540.76683,482.634234 540.886425,484.506188 540.559195,486.324844 C540.036747,489.314501 553.620387,489.446397 553.620387,489.446397 C553.249935,486.939445 552.726491,484.457994 552.053044,482.016221 C551.532655,479.920837 550.726782,477.908533 549.658492,476.036907 L540.210896,480.873116 Z" id="Path" fill="#FBD783" fill-rule="nonzero"></path>
                <path d="M561.282953,335.811692 C559.125324,372.718165 546.707951,386.546976 546.796017,400.820443 C546.884084,415.09391 550.979175,478.190639 550.979175,478.190639 C547.646562,480.784374 543.248535,481.519011 539.266334,480.147127 C531.86875,445.330539 522.75387,404.911281 522.974036,392.994492 C523.580067,372.702578 527.080017,352.604885 533.36588,333.321617 L561.282953,335.811692 Z" id="Path" fill="#FFFFFF" fill-rule="nonzero"></path>
                <path d="M553.988139,486.688021 C555.688321,489.081933 556.009912,492.130661 554.843733,494.799193 C544.891819,495.013774 535.165061,495.40002 525.843585,495.05669 C525.843585,491.666306 535.300155,487.031351 540.568816,485.615114 C544.640417,487.891662 549.575454,488.28623 553.988139,486.688021 L553.988139,486.688021 Z" id="Path" fill="#131F77" fill-rule="nonzero"></path>
                <path d="M585.584837,338.626018 C578.592249,345.877407 540.929636,348.457655 530.35224,342.36293 C526.501891,322.922091 530.35224,290.09065 532.697855,256.725365 C545.974922,250.141282 570.935807,249.073593 580.362524,254.100629 C591.426746,262.686629 582.796653,301.212412 585.584837,338.626018 Z" id="Path" fill="url(#linearGradient-25)" fill-rule="nonzero"></path>
                <path d="M565.114236,252.22361 C563.116735,248.272867 562.134927,243.883698 562.258083,239.455185 L552.131725,239.455185 C552.440941,244.233105 551.973226,249.029683 550.746924,253.6568 C551.785525,255.654581 564.11891,254.872841 565.114236,252.22361 Z" id="Path" fill="#FBD783" fill-rule="nonzero"></path>
                <path d="M567.029877,242.177084 C560.902633,244.902461 556.532466,249.817073 550.945862,247.449123 C543.106594,245.349243 542.926381,227.790673 545.584523,219.927292 L567.029877,217.425308 L567.029877,242.177084 Z" id="Path" fill="#FBD783" fill-rule="nonzero"></path>
                <path d="M570.86116,236.429598 L560.647963,248.075571 L552.547841,238.319322 L557.962596,232.781991 L555.497342,229.442014 L552.547841,233.089621 L550.654878,230.892267 L552.151639,224.69573 C547.864212,225.092415 543.554587,225.195199 539.253076,225.00336 L540.79386,215.115269 L555.145163,210.720562 L569.980712,220.344971 L570.86116,236.429598 Z" id="Path" fill="#2A195B" fill-rule="nonzero"></path>
                <path d="M532.344131,256.695958 L515.321095,277.881712 L472.808069,261.846828 L469.332162,268.654935 C487.692085,281.733668 506.408511,293.289534 518.841566,294.050967 C524.634746,294.050967 540.499145,277.792132 545,270.446543 L532.344131,256.695958 Z" id="Path" fill="url(#linearGradient-26)" fill-rule="nonzero"></path>
                <path d="M469.737218,268.189807 C469.737218,268.189807 466.925955,265.665241 464.202544,263.012308 C462.530054,260.94587 462.158787,258.151233 463.236173,255.738137 C463.236173,255.738137 467.628771,260.017061 468.902624,259.50359 C470.176478,258.99012 468.902624,257.021814 470.132552,256.72229 C471.362479,256.422765 473.163445,261.685842 473.163445,261.685842 L469.737218,268.189807 Z" id="Path" fill="#FBD783" fill-rule="nonzero"></path>
            </g>
        </g>
    </g>
</svg>