<?xml version="1.0" encoding="UTF-8"?>
<svg width="60px" height="60px" viewBox="0 0 60 60" version="1.1" xmlns="http://www.w3.org/2000/svg" xmlns:xlink="http://www.w3.org/1999/xlink">
    <!-- Generator: Sketch 55 (78076) - https://sketchapp.com -->
    <title>LOGO</title>
    <desc>Created with Sketch.</desc>
    <g id="Page-1" stroke="none" stroke-width="1" fill="none" fill-rule="evenodd">
        <g id="Desktop" transform="translate(-215.000000, -20.000000)" fill="#FFFFFF" fill-rule="nonzero">
            <g id="HEADER">
                <g id="Header-Menus">
                    <g id="LOGO" transform="translate(215.000000, 20.000000)">
                        <g id="Group" transform="translate(1.176471, 0.000000)">
                            <path d="M28.8420541,27.3147901 L41.6425105,13.922101 C46.5110601,8.82830041 43.0647834,0.128775857 36.1859057,0.128775857 L36.1859057,0.128775857 C34.8046598,0.128775857 33.4917925,0.701112998 32.507142,1.71701142 L28.8283784,5.5659787 L25.0675605,1.63116085 C24.0965857,0.615262427 22.7700427,0.0429252856 21.3887968,0.0429252856 L21.3887968,0.0429252856 C14.5372705,0.0429252856 11.0909938,8.69952455 15.932192,13.7790167 L28.8420541,27.3147901 Z" id="Path"></path>
                            <path d="M31.5771943,30.1764758 L44.3776507,43.5691649 C49.2462004,48.6629655 57.5610268,45.0572415 57.5610268,37.8601019 L57.5610268,37.8601019 C57.5610268,36.4149506 57.0139988,35.0413415 56.043024,34.0111346 L52.3642603,30.1621674 L56.1250782,26.2273495 C57.096053,25.2114511 57.643081,23.8235335 57.643081,22.3783822 L57.643081,22.3783822 C57.643081,15.2098595 49.3692817,11.6041355 44.5144078,16.6693192 L31.5771943,30.1764758 Z" id="Path"></path>
                            <path d="M26.0795624,30.1764758 L13.279106,16.7837867 C8.4105563,11.6899861 0.0957299092,15.2957101 0.0957299092,22.4928497 L0.0957299092,22.4928497 C0.0957299092,23.9380009 0.642757961,25.3116101 1.61373275,26.3418169 L5.29249641,30.1907842 L1.53167855,34.1256021 C0.560703754,35.1415005 0.0136757013,36.5294181 0.0136757013,37.9745693 L0.0136757013,37.9745693 C0.0136757013,45.143092 8.28747499,48.748816 13.142349,43.6836323 L26.0795624,30.1764758 Z" id="Path"></path>
                            <polygon id="Path" points="19.8160912 46.4880843 28.8420541 37.0445215 37.8680169 46.4880843 43.0647834 46.4880843 28.8420541 31.6073186 14.6193247 46.4880843"></polygon>
                        </g>
                        <g id="Group" transform="translate(0.000000, 47.755102)">
                            <polygon id="Path" points="3.95245174 7.7356094 2.86809226 9.04715371 2.86809226 11.9447516 0.0166284412 11.9447516 0.0166284412 0.323858976 2.86809226 0.323858976 2.86809226 5.15827232 6.81730272 0.323858976 9.99005824 0.323858976 5.82665332 5.46328262 10.2176399 11.9447516 6.87085134 11.9447516"></polygon>
                            <polygon id="Path" points="10.6058673 0.323858976 13.4974926 0.323858976 13.4974926 9.3369135 18.3704167 9.3369135 18.3704167 11.9447516 10.6192545 11.9447516 10.6192545 0.323858976"></polygon>
                            <path d="M21.2084934,11.3957331 C20.3517155,10.8772155 19.6689706,10.1604413 19.1870331,9.2301599 C18.6917084,8.31512898 18.4507396,7.27809394 18.4507396,6.11905478 C18.4507396,4.97526613 18.6917084,3.9382311 19.1870331,3.00794966 C19.6823578,2.09291875 20.3517155,1.37614453 21.2084934,0.842376495 C22.0652712,0.323858976 23.0425335,0.0646002159 24.1135058,0.0646002159 C25.1844781,0.0646002159 26.1617404,0.323858976 27.0185182,0.842376495 C27.8752961,1.36089401 28.558041,2.07766823 29.0399785,3.00794966 C29.5353032,3.92298058 29.776272,4.96001562 29.776272,6.11905478 C29.776272,7.26284343 29.5353032,8.29987846 29.0399785,9.2301599 C28.5446538,10.1451908 27.8752961,10.861965 27.0185182,11.3957331 C26.1617404,11.9142506 25.1844781,12.1735093 24.1135058,12.1735093 C23.0425335,12.1735093 22.0652712,11.9295011 21.2084934,11.3957331 Z M25.519157,9.04715371 C25.9341588,8.77264444 26.2688376,8.37613104 26.5098064,7.87286404 C26.7507752,7.36959703 26.8712596,6.79007745 26.8712596,6.1343053 C26.8712596,5.47853314 26.7507752,4.89901356 26.5098064,4.39574655 C26.2688376,3.89247955 25.9341588,3.49596615 25.519157,3.22145688 C25.1041552,2.9469476 24.6356048,2.80969297 24.126893,2.80969297 C23.6181811,2.80969297 23.1496307,2.9469476 22.7346289,3.22145688 C22.3196272,3.49596615 21.9849483,3.89247955 21.7439795,4.39574655 C21.5030108,4.89901356 21.3825264,5.47853314 21.3825264,6.1343053 C21.3825264,6.79007745 21.5030108,7.36959703 21.7439795,7.87286404 C21.9849483,8.37613104 22.3196272,8.77264444 22.7346289,9.04715371 C23.1496307,9.32166299 23.6181811,9.45891763 24.126893,9.45891763 C24.6356048,9.45891763 25.1041552,9.32166299 25.519157,9.04715371 Z" id="Shape"></path>
                            <polygon id="Path" points="40.9411585 0.323858976 36.5635591 11.9447516 33.7254824 11.9447516 29.3746574 0.323858976 32.4938643 0.323858976 35.2650052 7.88811455 38.0896947 0.323858976"></polygon>
                            <polygon id="Path" points="49.3616784 9.41316608 49.3616784 11.9600021 41.1687401 11.9600021 41.1687401 0.339109491 49.1742583 0.339109491 49.1742583 2.88594554 44.0335911 2.88594554 44.0335911 4.8380115 48.5718363 4.8380115 48.5718363 7.29334446 44.0335911 7.29334446 44.0335911 9.41316608"></polygon>
                            <path d="M55.0512189,8.86414753 L53.4849219,8.86414753 L53.4849219,11.9447516 L50.5932966,11.9447516 L50.5932966,0.323858976 L55.2520262,0.323858976 C56.1757399,0.323858976 56.9789691,0.491614644 57.661714,0.842376495 C58.3444588,1.19313835 58.8665578,1.69640535 59.2413981,2.33692699 C59.6162385,2.97744863 59.7902715,3.7399744 59.7902715,4.62450428 C59.7902715,5.46328262 59.6162385,6.19530736 59.2681725,6.82057848 C58.9201065,7.44584961 58.4247817,7.9338661 57.7955855,8.28462795 L59.9910788,11.9295011 L56.8986462,11.9295011 L55.0512189,8.86414753 Z M56.4300958,3.37396203 C56.1221912,3.06895173 55.6804152,2.93169709 55.0913804,2.93169709 L53.4849219,2.93169709 L53.4849219,6.33256199 L55.0913804,6.33256199 C55.6804152,6.33256199 56.1355784,6.18005684 56.4300958,5.89029705 C56.7246132,5.60053726 56.885259,5.17352283 56.885259,4.6397548 C56.8718719,4.09073625 56.7246132,3.66372182 56.4300958,3.37396203 Z" id="Shape"></path>
                        </g>
                    </g>
                </g>
            </g>
        </g>
    </g>
</svg>