<?xml version="1.0" encoding="UTF-8"?>
<svg width="673px" height="545px" viewBox="0 0 673 545" version="1.1" xmlns="http://www.w3.org/2000/svg" xmlns:xlink="http://www.w3.org/1999/xlink">
    <!-- Generator: Sketch 55 (78076) - https://sketchapp.com -->
    <title>Budget_Management</title>
    <desc>Created with Sketch.</desc>
    <defs>
        <linearGradient x1="100%" y1="51.964173%" x2="0%" y2="51.964173%" id="linearGradient-1">
            <stop stop-color="#FB927E" offset="0%"></stop>
            <stop stop-color="#FF4D7B" offset="100%"></stop>
        </linearGradient>
        <linearGradient x1="60.6153566%" y1="65.5847752%" x2="31.9435549%" y2="35.380884%" id="linearGradient-2">
            <stop stop-color="#FFFFFF" offset="0%"></stop>
            <stop stop-color="#000000" offset="100%"></stop>
        </linearGradient>
        <linearGradient x1="48.6241868%" y1="28.4216412%" x2="45.1431305%" y2="74.2364331%" id="linearGradient-3">
            <stop stop-color="#FFFFFF" offset="0%"></stop>
            <stop stop-color="#000000" offset="100%"></stop>
        </linearGradient>
        <linearGradient x1="87.039985%" y1="29.6053513%" x2="16.8669261%" y2="49.4393115%" id="linearGradient-4">
            <stop stop-color="#FFFFFF" offset="0%"></stop>
            <stop stop-color="#000000" offset="100%"></stop>
        </linearGradient>
        <linearGradient x1="100%" y1="51.964173%" x2="0%" y2="51.964173%" id="linearGradient-5">
            <stop stop-color="#FB927E" offset="0%"></stop>
            <stop stop-color="#FF4D7B" offset="100%"></stop>
        </linearGradient>
        <linearGradient x1="100%" y1="51.964173%" x2="0%" y2="51.964173%" id="linearGradient-6">
            <stop stop-color="#FB927E" offset="0%"></stop>
            <stop stop-color="#FF4D7B" offset="100%"></stop>
        </linearGradient>
        <linearGradient x1="28.034863%" y1="25.6704376%" x2="74.8699339%" y2="91.4350787%" id="linearGradient-7">
            <stop stop-color="#FFFFFF" offset="0%"></stop>
            <stop stop-color="#000000" offset="100%"></stop>
        </linearGradient>
        <linearGradient x1="39.2952325%" y1="43.3665351%" x2="102.783536%" y2="86.2181952%" id="linearGradient-8">
            <stop stop-color="#FFFFFF" offset="0%"></stop>
            <stop stop-color="#000000" offset="100%"></stop>
        </linearGradient>
        <linearGradient x1="100%" y1="51.964173%" x2="0%" y2="51.964173%" id="linearGradient-9">
            <stop stop-color="#FB927E" offset="0%"></stop>
            <stop stop-color="#FF4D7B" offset="100%"></stop>
        </linearGradient>
        <linearGradient x1="35.5910825%" y1="38.2082567%" x2="80.5036465%" y2="112.485375%" id="linearGradient-10">
            <stop stop-color="#FFFFFF" offset="0%"></stop>
            <stop stop-color="#000000" offset="100%"></stop>
        </linearGradient>
        <linearGradient x1="-0.576059344%" y1="50.0071378%" x2="99.8449749%" y2="50.0071378%" id="linearGradient-11">
            <stop stop-color="#FFFFFF" offset="0%"></stop>
            <stop stop-color="#F9F9F9" offset="10%"></stop>
            <stop stop-color="#EAEAEA" offset="22%"></stop>
            <stop stop-color="#D0D0D0" offset="36%"></stop>
            <stop stop-color="#ABABAB" offset="51%"></stop>
            <stop stop-color="#7D7D7D" offset="67%"></stop>
            <stop stop-color="#434343" offset="83%"></stop>
            <stop stop-color="#010101" offset="100%"></stop>
            <stop stop-color="#000000" offset="100%"></stop>
        </linearGradient>
        <linearGradient x1="2.02006232%" y1="43.0681959%" x2="93.6921638%" y2="60.8979829%" id="linearGradient-12">
            <stop stop-color="#FFFFFF" offset="0%"></stop>
            <stop stop-color="#C2C2C2" offset="26%"></stop>
            <stop stop-color="#292929" offset="85%"></stop>
            <stop stop-color="#000000" offset="100%"></stop>
        </linearGradient>
        <linearGradient x1="0.275793078%" y1="50.164986%" x2="99.8922528%" y2="50.164986%" id="linearGradient-13">
            <stop stop-color="#FFFFFF" offset="0%"></stop>
            <stop stop-color="#FBFBFB" offset="14%"></stop>
            <stop stop-color="#F0F0F0" offset="26%"></stop>
            <stop stop-color="#DDDDDD" offset="39%"></stop>
            <stop stop-color="#C2C2C2" offset="51%"></stop>
            <stop stop-color="#A0A0A0" offset="63%"></stop>
            <stop stop-color="#767676" offset="75%"></stop>
            <stop stop-color="#444444" offset="86%"></stop>
            <stop stop-color="#0C0C0C" offset="98%"></stop>
            <stop stop-color="#000000" offset="100%"></stop>
        </linearGradient>
        <linearGradient x1="100%" y1="51.964173%" x2="0%" y2="51.964173%" id="linearGradient-14">
            <stop stop-color="#FB927E" offset="0%"></stop>
            <stop stop-color="#FF4D7B" offset="100%"></stop>
        </linearGradient>
        <linearGradient x1="100%" y1="51.964173%" x2="0%" y2="51.964173%" id="linearGradient-15">
            <stop stop-color="#FB927E" offset="0%"></stop>
            <stop stop-color="#FF4D7B" offset="100%"></stop>
        </linearGradient>
        <linearGradient x1="50.6711298%" y1="-9.85279296%" x2="49.5145274%" y2="116.327925%" id="linearGradient-16">
            <stop stop-color="#131F77" offset="0%"></stop>
            <stop stop-color="#4F5095" offset="21%"></stop>
            <stop stop-color="#988CB9" offset="49%"></stop>
            <stop stop-color="#CEB8D4" offset="73%"></stop>
            <stop stop-color="#EFD4E5" offset="90%"></stop>
            <stop stop-color="#FCDEEB" offset="100%"></stop>
        </linearGradient>
        <linearGradient x1="50.1577287%" y1="34.9036107%" x2="47.0820189%" y2="241.520713%" id="linearGradient-17">
            <stop stop-color="#131F77" offset="0%"></stop>
            <stop stop-color="#4F5095" offset="21%"></stop>
            <stop stop-color="#988CB9" offset="49%"></stop>
            <stop stop-color="#CEB8D4" offset="73%"></stop>
            <stop stop-color="#EFD4E5" offset="90%"></stop>
            <stop stop-color="#FCDEEB" offset="100%"></stop>
        </linearGradient>
    </defs>
    <g id="Page-1" stroke="none" stroke-width="1" fill="none" fill-rule="evenodd">
        <g id="Desktop" transform="translate(-870.000000, -2040.000000)">
            <g id="ABOUT-US" transform="translate(0.000000, 1000.000000)">
                <g id="2" transform="translate(215.000000, 1040.000000)">
                    <g id="Budget_Management" transform="translate(655.000000, 0.000000)">
                        <path d="M511.113867,316.096452 C469.124902,313.126433 421.50437,301.696359 380.461508,292.4713 C323.15468,279.646217 278.282353,323.566501 232.328765,364.471765 C206.063136,387.871916 179.346981,410.372061 149.792516,420.812128 C142.857677,423.295681 135.663464,424.986474 128.347508,425.852161 C120.283467,426.977133 112.109665,427.082967 104.019138,426.167163 C98.6578862,425.537159 94.0174748,424.772154 90.0979041,424.007149 C51.2626168,415.997097 73.6987804,400.066994 90.0979041,380.941871 C101.315986,367.891787 109.785863,353.356693 93.9724223,339.226602 C84.8433911,331.882022 74.44495,326.26941 63.2916443,322.666495 C30.0879241,310.336415 22.7443605,296.521326 27.2496143,281.58123 C31.754868,266.641133 47.3880985,252.061039 62.0301732,236.580939 C84.3311793,212.730785 104.469664,187.890625 79.0600324,164.175472 C52.4339827,139.380312 44.324526,112.470138 48.4693594,87.6749782 C48.8391454,85.2287346 49.3658424,82.8087382 50.0461982,80.4299315 C64.778378,25.0795742 140.736956,-16.7706958 205.477453,6.62945518 C301.754725,41.0096771 323.875521,147.525364 397.130947,85.3349631 C498.048631,-0.165588673 603.291358,92.9400122 619.870692,223.935858 C630.052566,304.351377 577.611412,320.821483 511.113867,316.096452 Z" id="Path" fill="#F1EFF8" fill-rule="nonzero" opacity="0.5"></path>
                        <path d="M201.494342,435.146155 C88.3289548,435.146155 -98.4479942,502.676641 103.916226,503.483778 C306.280445,504.290916 314.43448,483.888279 384.487098,496.129861 C455.260515,503.483778 279.610895,528.953444 354.483855,543.033505 C429.356814,557.113567 831.517408,492.36322 602.528689,451.423424 C332.904945,403.219392 201.494342,435.146155 201.494342,435.146155 Z" id="Path" fill="#F1EFF8" fill-rule="nonzero" opacity="0.5"></path>
                        <path d="M520.491494,127.641605 L469.661782,127.641605 C469.096504,122.830092 464.820465,119.330782 459.990642,119.727197 L441.997824,119.727197 C445.715417,115.742832 448.334817,110.862017 449.59979,105.562206 C451.120259,99.476802 449.643484,93.031382 445.625031,88.2142759 C441.606579,83.3971697 435.529281,80.78717 429.267905,81.1894283 C418.430165,81.4869654 408.442264,87.1276379 402.593551,96.2537836 C400.731783,99.0817327 399.433545,102.242352 398.770077,105.562206 C397.644835,110.328408 398.217502,115.337699 400.389431,119.727197 L375.694288,119.727197 C370.32656,119.853232 365.451058,122.884414 362.964369,127.641605 L311.99971,127.641605 C294.937661,128.128039 280.25934,139.848746 276.014073,156.3763 L232.426471,364.669118 C278.308158,323.748033 323.110276,279.859046 380.327438,292.719958 C421.261101,301.938444 468.807123,313.360373 510.775372,316.328276 L544.242015,156.421268 C546.125547,149.270514 544.451747,141.650546 539.744559,135.946618 C535.037372,130.242689 527.872037,127.151846 520.491494,127.641605 L520.491494,127.641605 Z M440.873273,105.562206 C439.65399,110.793326 436.421665,115.333348 431.876863,118.198277 C430.977222,118.737896 430.122564,119.277515 429.222923,119.727197 C428.578803,120.020717 427.917917,120.27598 427.243713,120.491657 C427.919289,120.245026 428.580117,119.959756 429.222923,119.637261 L413.434224,119.637261 C413.954893,119.956884 414.495821,120.242286 415.053578,120.491657 C414.497025,120.273963 413.955983,120.01855 413.434224,119.727197 L413.434224,119.727197 C408.567619,116.860424 406.183559,111.122105 407.586558,105.652143 C407.993662,103.884763 408.660652,102.187494 409.565769,100.615701 C413.209467,94.0434116 420.045624,89.8746375 427.558587,89.6434546 C431.65665,89.3603336 435.642239,91.0575795 438.277263,94.2079571 C440.912286,97.3583348 441.877576,101.580252 440.873273,105.562206 L440.873273,105.562206 Z M413.34426,119.637261 C413.864928,119.956884 414.405857,120.242286 414.963614,120.491657 C415.525475,120.738917 416.114197,120.920006 416.717914,121.031276 C417.244722,121.256028 417.80962,121.378131 418.38225,121.391021 C419.191166,121.440625 420.002363,121.440625 420.81128,121.391021 L420.81128,121.391021 C421.500175,121.438846 422.191559,121.438846 422.880454,121.391021 C424.301012,121.183443 425.700757,120.852422 427.063784,120.40172 C427.739361,120.15509 428.400188,119.86982 429.042995,119.547324 L413.34426,119.637261 Z" id="Shape" fill="#000000" fill-rule="nonzero" opacity="0.1"></path>
                        <path d="M182.566772,309.822373 C184.011201,314.983945 187.689521,319.231883 192.596875,321.40572 C204.695966,327.691257 181.757168,334.874728 188.593829,349.825327 C195.430491,364.775926 202.761911,366.886071 201.18768,376.314377 C199.613448,385.742682 185.265455,392.252703 202.132218,439.663612 C201.322614,444.647145 215.625629,447.071567 216.480212,442.043137 C238.024691,417.798922 250.708498,397.86479 238.96923,387.67324 C232.997827,383.169821 230.557189,375.373905 232.897195,368.277868 C233.886712,363.473922 236.045658,358.221009 237.979713,352.249749 C242.837341,337.254253 227.589787,333.438034 218.59418,326.883116 C209.598572,320.328199 225.835644,302.549108 213.466684,297.385988 C201.097723,292.222869 194.171106,287.957683 186.929642,296.039088 C183.319019,299.653526 181.692103,304.79332 182.566772,309.822373 L182.566772,309.822373 Z" id="Path" fill="url(#linearGradient-1)" opacity="0.942968786"></path>
                        <path d="M208.116188,445.789214 C208.960041,445.946293 209.788882,445.447481 210.060848,444.618882 C211.165768,441.107885 236.932511,359.094598 202.724176,309.580539 C202.419943,308.942114 201.775885,308.545238 201.079435,308.56703 C200.382985,308.588822 199.764063,309.025218 199.498885,309.681459 C199.233707,310.3377 199.37174,311.091369 199.851383,311.606114 C233.043191,359.544726 207.011267,442.548294 206.746086,443.403537 C206.592936,443.851024 206.623928,444.342565 206.832017,444.766427 C207.040107,445.19029 207.407616,445.510465 207.851007,445.654176 L208.116188,445.789214 Z" id="Path" fill="#FFFFFF" fill-rule="nonzero"></path>
                        <path d="M182.334559,309.568015 C183.784497,314.739313 187.476847,318.995254 192.402919,321.173187 C204.54816,327.470568 181.521866,334.667574 188.384605,349.646343 C195.247343,364.625113 202.606727,366.739233 201.026491,376.185304 C199.446256,385.631375 185.043535,392.153662 201.974633,439.653903 C201.16194,444.646827 215.519512,447.075816 216.377354,442.037912 C238.00401,417.748016 250.736196,397.776323 238.952152,387.56557 C232.957972,383.053666 230.508025,375.243061 232.856956,368.133653 L226.174816,365.479757 C219.733526,363.580164 214.230411,359.364012 210.733655,353.649678 C207.979529,347.577204 209.424316,340.560123 208.566474,333.947874 C207.356335,325.101828 202.082782,317.320744 194.299202,312.89663 C190.618075,310.892314 186.525424,309.753721 182.334559,309.568015 L182.334559,309.568015 Z" id="Path" fill="url(#linearGradient-2)" fill-rule="nonzero" opacity="0.7" style="mix-blend-mode: overlay;"></path>
                        <path d="M94.6131148,351.490263 C97.6274978,356.462089 101.146676,361.112129 105.115199,365.367115 C119.358369,381.219958 122.829015,364.648572 120.620422,374.842894 C118.411829,385.037215 145.140309,374.483622 148.205295,382.342681 C151.270281,390.20174 129.68016,398.150616 135.855205,413.778915 C142.03025,429.407214 174.212602,414.40764 202.112988,428.239583 C209.099353,431.473024 211.984046,429.407214 212.389706,424.24269 C211.656372,411.087485 207.288801,398.390024 199.769176,387.552114 C189.492458,374.079442 198.371903,359.259503 196.43375,345.652105 C196.130678,343.371058 195.492839,341.146763 194.54067,339.050496 C182.370873,313.497328 176.511341,361.100769 166.414917,355.936244 C156.318493,350.77172 176.195828,330.517804 168.08263,320.00912 C159.969432,309.500436 154.560633,325.263462 134.007198,318.212763 C113.453764,311.162065 110.884584,291.806327 97.9485407,291.536873 C85.0124972,291.26742 115.16655,319.066033 105.611005,315.293684 C96.0554611,311.521336 98.3091272,321.356387 105.025052,328.766356 C111.740977,336.176326 122.513501,340.667216 104.078512,338.736133 C91.5030556,337.793046 89.880416,343.002479 94.6131148,351.490263 Z" id="Path" fill="#131F77" fill-rule="nonzero"></path>
                        <path d="M186.55102,353.328655 C185.564137,353.328655 184.308106,354.141229 183.68009,356.669236 C182.882296,359.779087 182.505075,362.983042 182.558633,366.194404 L182.558633,369.038412 C182.806435,371.122604 182.806435,373.229094 182.558633,375.313286 C181.801566,379.274037 179.7486,382.86569 176.727056,385.515599 C174.748333,384.793471 172.815757,383.949199 170.940338,382.987592 C163.589133,378.679272 157.803548,372.113359 154.432491,364.253256 C152.962177,361.12618 151.674059,357.915594 150.574678,354.637802 C152.308677,353.290428 153.731944,351.580908 154.746499,349.626931 C155.766131,346.732333 156.013607,343.61925 155.464231,340.598335 C155.464231,339.876048 155.464231,339.198903 155.464231,338.476615 C155.23403,335.447832 155.476204,332.401451 156.181964,329.448019 C156.451113,328.274302 157.079129,326.965156 157.886578,326.920013 C158.34926,327.01267 158.821844,326.815707 159.083947,326.420976 C159.34605,326.026245 159.34605,325.511489 159.083947,325.116757 C158.821844,324.722026 158.34926,324.525064 157.886578,324.617721 C156.047389,324.617721 154.611924,326.197725 153.983908,329.132019 C153.224702,332.260925 152.952315,335.489401 153.176459,338.70233 C153.176459,339.424618 153.176459,340.146905 153.176459,340.869193 C153.701622,343.485569 153.531411,346.19508 152.683018,348.724071 C151.975699,350.09609 150.999004,351.309349 149.812088,352.290367 C149.049497,349.897789 148.331764,347.505211 147.614032,345.157776 C146.896299,342.810341 146.492575,341.501195 145.909417,339.695476 C145.185594,336.949441 144.018715,334.341614 142.45533,331.976026 C138.323057,327.493785 132.805388,324.550383 126.79979,323.624575 C126.170648,323.479971 125.539336,323.857192 125.364325,324.482292 C125.191925,325.105462 125.553046,325.75153 126.171774,325.926867 C131.592507,326.702022 136.607138,329.256989 140.436707,333.194887 C141.872027,335.346494 142.933817,337.727786 143.576787,340.237191 C144.159944,341.997768 144.698244,343.84863 145.236543,345.654349 C146.492575,349.76236 147.793465,353.960657 149.318647,358.113811 C147.048381,358.76475 144.614659,358.489016 142.545046,357.34638 C140.928334,356.373162 139.423862,355.222506 138.059218,353.915514 L137.072336,353.012654 C135.242002,351.207716 133.035472,349.835302 130.612743,348.994929 C128.179994,348.290084 125.599018,348.290084 123.166269,348.994929 C122.334975,349.263716 121.525192,349.595722 120.743922,349.988075 C119.712722,350.58801 118.565274,350.957523 117.379551,351.071506 C116.735412,351.071506 116.213235,351.596998 116.213235,352.245224 C116.213235,352.89345 116.735412,353.418941 117.379551,353.418941 C118.957664,353.351815 120.496426,352.902742 121.865379,352.109795 C122.533789,351.7787 123.223102,351.492177 123.92886,351.252078 C125.936751,350.671368 128.066553,350.671368 130.074444,351.252078 C132.170019,351.985933 134.072181,353.190048 135.636871,354.773231 L136.623753,355.630947 C138.058845,357.061417 139.654584,358.318842 141.378731,359.377814 C144.100302,360.960099 147.361588,361.304707 150.350387,360.325817 C150.978403,361.950964 151.651277,363.530968 152.413868,365.110973 C155.991023,373.442848 162.141686,380.392407 169.953456,384.92874 C172.078647,386.006471 174.265605,386.956147 176.502765,387.772748 L176.861631,387.772748 C180.064806,388.804924 183.090849,390.327548 185.833287,392.287046 C186.73031,392.986073 187.556704,393.77235 188.300493,394.634481 C186.29326,395.203622 184.364415,396.022518 182.558633,397.072202 L181.437176,397.704203 C175.248328,401.197087 168.116411,402.619876 161.071516,401.767072 C159.994917,401.767072 158.963177,401.360785 157.886578,401.089927 C155.188657,400.253677 152.350136,399.977238 149.542938,400.277353 C148.908113,400.39231 148.474191,400.987778 148.556056,401.631643 C148.669919,402.265875 149.270666,402.689067 149.901804,402.579645 C152.413024,402.341265 154.9462,402.61769 157.348279,403.392219 C158.469736,403.663077 159.546335,403.888792 160.667792,404.069363 C166.469392,404.916697 172.390721,404.167933 177.803655,401.9025 C179.339019,401.284485 180.836888,400.576019 182.289483,399.78078 L183.500657,399.148779 C185.391979,397.939424 187.491664,397.097282 189.691099,396.665915 L189.691099,396.665915 L192.068588,399.78078 L199.784212,410.479666 C201.61042,412.864472 203.231191,415.401673 204.628907,418.063687 C207.770591,424.734022 207.852552,432.45424 204.853198,439.190601 C204.718685,439.470677 204.705012,439.794207 204.815407,440.084766 C204.925803,440.375325 205.150476,440.607144 205.436356,440.725462 C205.725213,440.836611 206.044664,440.836611 206.333521,440.725462 C206.611809,440.621227 206.837658,440.410179 206.961537,440.138603 C210.283404,432.759796 210.184837,424.278858 206.692388,416.980255 C205.257322,414.175857 203.55999,411.515446 201.623402,409.035091 L194.266644,398.787635 C192.320804,395.831811 189.981328,393.158515 187.31361,390.842471 C184.802803,388.92971 182.020365,387.407918 179.059687,386.328173 C182.001151,383.413896 183.988693,379.665573 184.756688,375.584144 C185.024823,373.319958 185.024823,371.031739 184.756688,368.767554 L184.756688,366.013832 C184.710086,362.972009 185.05691,359.937008 185.788429,356.985237 C186.057579,355.901805 186.416445,355.450375 186.685594,355.450375 C187.329733,355.37558 187.791658,354.789455 187.717335,354.141229 C187.643011,353.493003 187.060583,353.028145 186.416445,353.10294 L186.55102,353.328655 Z" id="Path" fill="#FEFEFE" fill-rule="nonzero"></path>
                        <path d="M94.1727941,351.031082 C97.1728056,356.032066 100.675205,360.709376 104.624808,364.989315 C118.800071,380.935128 122.25417,364.266558 120.056107,374.520665 C117.858044,384.774771 144.459092,374.159286 147.509466,382.064434 C150.559839,389.969582 129.072651,397.965075 135.218256,413.685026 C141.363861,429.404978 173.392779,414.317438 201.160146,428.230499 C208.113202,431.482902 210.984142,429.404978 211.387868,424.210166 C210.65803,410.977813 206.311282,398.205887 198.827508,387.304418 C188.599786,373.752736 197.436896,358.845885 195.507984,345.158686 C193.472403,345.93097 191.566259,347.012581 189.855822,348.365918 C186.177431,351.347288 183.6205,355.412793 180.166401,358.665196 C174.593213,363.702768 167.333476,366.430096 159.845533,366.299311 C152.368606,366.088905 145.154214,363.477352 139.255515,358.845885 C136.070566,356.406583 133.379061,353.470385 130.283829,351.121426 C122.904065,345.262341 113.224887,343.222681 104.131365,345.610409 C100.505466,346.776753 97.1279626,348.615204 94.1727941,351.031082 L94.1727941,351.031082 Z" id="Path" fill="url(#linearGradient-3)" fill-rule="nonzero" opacity="0.7" style="mix-blend-mode: overlay;"></path>
                        <path d="M133.000016,404.256727 C135.931957,405.668514 139.348445,405.668514 142.280387,404.256727 C149.931034,401.227747 144.227001,414.609509 153.733723,417.27682 C163.240445,419.944131 167.314754,417.548072 170.845822,421.797686 C174.37689,426.0473 171.887035,435.360283 200.31666,446.255569 C202.263274,448.60642 209.00852,443.000546 207.016635,440.649696 C204.390969,421.209973 200.22612,407.602168 190.855208,409.003636 C186.433996,409.984882 181.879016,408.037997 179.537682,404.16631 C177.772148,401.815459 176.187694,398.786479 174.19581,395.531456 C169.216098,387.393898 161.474911,392.864145 154.956016,394.40124 C148.437121,395.938334 146.626317,381.516772 139.3831,385.359508 C132.139884,389.202244 127.477063,390.468086 128.337195,396.932924 C128.617763,399.982299 130.353953,402.709298 133.000016,404.256727 Z" id="Path" fill="#FCDEEB" fill-rule="nonzero"></path>
                        <path d="M206.126958,446.733159 C206.462583,446.34392 206.462583,445.768348 206.126958,445.37911 C204.996025,443.48344 177.717923,399.386562 141.437596,395.730629 C140.853243,395.677549 140.332355,396.097314 140.261426,396.678463 C140.236404,396.965978 140.327407,397.251569 140.514246,397.471879 C140.701086,397.69219 140.968313,397.829005 141.256647,397.851973 C176.451278,401.237096 204.000804,445.830459 204.272228,446.281809 C204.41298,446.537287 204.654914,446.72194 204.938881,446.790625 C205.222848,446.85931 205.522675,446.805695 205.765059,446.642889 L206.126958,446.733159 Z" id="Path" fill="#FFFFFF" fill-rule="nonzero"></path>
                        <path d="M133.244485,404.860956 C136.16679,406.252702 139.572049,406.252702 142.494354,404.860956 C150.119856,401.874976 144.434571,415.06677 153.910046,417.696215 C163.385522,420.325661 167.44644,417.963617 170.965902,422.152903 C174.485365,426.342189 172.003693,435.522964 200.339877,446.26358 C202.280093,448.581057 209.003169,443.054765 207.017831,440.737288 C204.400795,421.573533 200.249634,408.158905 190.909523,409.540478 C186.502841,410.507795 181.962833,408.588548 179.629194,404.771823 L175.839004,406.777332 C172.433004,408.905199 168.356779,409.729447 164.378191,409.094809 C160.786668,407.371026 157.472188,405.133461 154.541745,402.454345 C150.032615,399.589333 144.434645,398.947553 139.380984,400.716237 C137.035498,401.604858 134.933717,403.024444 133.244485,404.860956 L133.244485,404.860956 Z" id="Path" fill="url(#linearGradient-4)" fill-rule="nonzero" opacity="0.7" style="mix-blend-mode: overlay;"></path>
                        <path d="M526.235952,138.084124 L466.789189,421.986158 C463.204313,436.305702 451.665437,447.263601 437.178481,450.105979 C435.110859,450.593286 432.993011,450.835295 430.868741,450.827 L222.016353,450.827 C220.886077,450.820763 219.757237,450.745517 218.636135,450.601681 C211.837095,450.144155 205.598926,446.67053 201.629877,441.132015 C197.660829,435.593501 196.376827,428.570492 198.129481,421.986158 L257.531174,138.084124 C261.727162,121.477489 276.462096,109.691048 293.58683,109.243283 L502.439219,109.243283 C509.82167,108.793334 516.973855,111.90199 521.680641,117.606456 C526.387427,123.310923 528.080671,130.92263 526.235952,138.084124 Z" id="Path" fill="#F8F7F2" fill-rule="nonzero"></path>
                        <path d="M410.753676,102.306851 C408.132338,103.445689 405.252412,104.04845 402.329128,104.070087 C399.658163,104.108848 397.026771,103.498743 394.724265,102.306851 L410.753676,102.306851 Z" id="Path" fill="#131F77" fill-rule="nonzero"></path>
                        <path d="M441.132869,101.500983 L423.20409,101.500983 C426.934431,97.5897231 429.549677,92.7539763 430.778999,87.4945207 C432.304391,81.4364968 430.84617,75.0153674 426.852944,70.2065351 C422.859719,65.3977028 416.809766,62.7771329 410.5643,63.1510201 C399.788506,63.4452115 389.862422,69.0625252 384.074529,78.1419626 C382.169374,80.9771328 380.830113,84.1527064 380.130198,87.4945207 C379.048067,92.2145491 379.633975,97.1629539 381.78861,101.500983 L357.315826,101.500983 C351.939328,101.650424 347.059183,104.676324 344.541571,109.421571 C343.85275,110.471348 343.32405,111.617515 342.972803,112.822501 C342.160608,115.664499 342.806091,118.723573 344.697652,120.996916 C346.589213,123.270259 349.482941,124.464731 352.430234,124.188768 L436.247276,124.188768 C443.05693,124.112744 448.945945,119.431308 450.545478,112.822501 C450.817474,111.69526 450.893282,110.529716 450.769588,109.376822 C450.206322,104.588757 445.945501,101.1065 441.132869,101.500983 L441.132869,101.500983 Z M408.861066,71.5190984 C412.999031,71.1829237 417.043842,72.8682768 419.714772,76.0415162 C422.385702,79.2147557 423.351981,83.4829055 422.307651,87.4945207 C421.077548,92.6816166 417.859011,97.1802435 413.343261,100.024264 C412.495651,100.574693 411.61219,101.06803 410.698766,101.500983 C408.129168,102.757603 405.312555,103.430046 402.451528,103.469943 C399.82115,103.52502 397.227971,102.842898 394.966262,101.500983 C390.085433,98.6771277 387.713686,92.9317798 389.184231,87.4945207 C389.546005,85.7224885 390.21331,84.0266541 391.156397,82.4826235 C394.71499,75.9728781 401.438535,71.8093577 408.861066,71.5190984 L408.861066,71.5190984 Z" id="Shape" fill="#4862C1" fill-rule="nonzero"></path>
                        <ellipse id="Oval" fill="#FCDEEB" fill-rule="nonzero" transform="translate(300.928253, 203.816202) rotate(-36.940000) translate(-300.928253, -203.816202) " cx="300.928253" cy="203.816202" rx="23.946557" ry="19.4435129"></ellipse>
                        <path d="M422.731656,199.352895 L357.033045,199.352895 C355.407477,199.471153 353.8269,198.771814 352.791564,197.476221 C351.756228,196.180627 351.394287,194.449146 351.820296,192.82979 L351.820296,192.82979 C352.728676,189.095907 355.946527,186.445685 359.684357,186.352949 L425.382967,186.352949 C426.999847,186.244716 428.569825,186.937356 429.608858,188.217321 C430.647892,189.497285 431.031218,191.210883 430.640654,192.82979 L430.640654,192.82979 C429.717708,196.58021 426.488209,199.243804 422.731656,199.352895 L422.731656,199.352895 Z" id="Path" fill="url(#linearGradient-5)" opacity="0.942968786"></path>
                        <path d="M467.456395,242.428233 L351.646618,242.428233 C348.939027,242.596936 346.313198,241.473658 344.581684,239.405994 C342.85017,237.338329 342.221766,234.575609 342.89093,231.972745 L345.869669,217.89805 C347.385833,211.86743 352.773556,207.574734 359.048334,207.39788 L474.858111,207.39788 C477.57588,207.224774 480.212405,208.353711 481.946188,210.432932 C483.67997,212.512152 484.300265,215.288924 483.613799,217.89805 L480.63506,231.972745 C479.101723,237.985676 473.718166,242.256801 467.456395,242.428233 Z" id="Path" fill="#FCDEEB" fill-rule="nonzero"></path>
                        <ellipse id="Oval" fill="#FCDEEB" fill-rule="nonzero" transform="translate(284.432841, 282.520168) rotate(-36.940000) translate(-284.432841, -282.520168) " cx="284.432841" cy="282.520168" rx="23.946557" ry="19.4435129"></ellipse>
                        <path d="M405.553259,278.499989 L340.022432,278.499989 C338.405257,278.608256 336.834992,277.9154 335.795769,276.635038 C334.756546,275.354676 334.37315,273.640546 334.763785,272.021136 L334.763785,272.021136 C335.668815,268.276749 338.883368,265.609991 342.629282,265.496005 L408.384838,265.496005 C410.004447,265.398838 411.571683,266.104193 412.602404,267.394176 C413.633125,268.68416 414.003286,270.403525 413.598539,272.021136 L413.598539,272.021136 C412.67282,275.821997 409.359027,278.49059 405.553259,278.499989 L405.553259,278.499989 Z" id="Path" fill="url(#linearGradient-5)" opacity="0.942968786"></path>
                        <path d="M451.411046,321.573655 L335.669651,321.573655 C332.947747,321.741503 330.308431,320.614862 328.566914,318.541721 C326.825397,316.468579 326.191232,313.698392 326.860294,311.086794 L329.887099,297.029939 C331.404734,291.006963 336.797682,286.719709 343.078546,286.543079 L458.819941,286.543079 C461.540346,286.370192 464.179429,287.497698 465.914893,289.574283 C467.650356,291.650868 468.271253,294.424121 467.584122,297.029939 L464.602493,311.086794 C463.084858,317.10977 457.69191,321.397025 451.411046,321.573655 Z" id="Path" fill="#FCDEEB" fill-rule="nonzero"></path>
                        <ellipse id="Oval" fill="#FCDEEB" fill-rule="nonzero" transform="translate(267.937428, 361.224134) rotate(-36.940000) translate(-267.937428, -361.224134) " cx="267.937428" cy="361.224134" rx="23.946557" ry="19.4435129"></ellipse>
                        <path d="M389.541711,356.646219 L323.93523,356.646219 C322.329363,356.739001 320.776173,356.03955 319.749997,354.761477 C318.723821,353.483403 318.34653,351.778493 318.733349,350.167421 L318.733349,350.167421 C319.622658,346.41408 322.837991,343.740636 326.581014,343.642346 L392.322026,343.642346 C393.945602,343.529559 395.522892,344.228261 396.562009,345.520556 C397.601126,346.812852 397.975638,348.541502 397.568751,350.167421 L397.568751,350.167421 C396.6173,353.949497 393.327918,356.604428 389.541711,356.646219 L389.541711,356.646219 Z" id="Path" fill="url(#linearGradient-5)" opacity="0.942968786"></path>
                        <path d="M434.254325,399.716092 L318.59975,399.716092 C315.881385,399.889179 313.244282,398.760371 311.51012,396.681389 C309.775958,394.602407 309.155527,391.825953 309.842143,389.217126 L312.821535,375.144044 C314.359756,369.116187 319.768149,364.841429 326.048229,364.689755 L441.793089,364.689755 C444.507465,364.500768 447.147452,365.6183 448.884159,367.691474 C450.620865,369.764647 451.241313,372.53922 450.550695,375.144044 L447.571303,389.217126 C446.041428,395.294116 440.581286,399.598834 434.254325,399.716092 L434.254325,399.716092 Z" id="Path" fill="#FCDEEB" fill-rule="nonzero"></path>
                        <path d="M277.297316,296.135947 C276.235134,296.189395 275.234441,295.627558 274.712439,294.684674 L269.676386,284.616464 C269.109167,282.841552 269.905668,280.911698 271.548193,280.081235 C273.018026,279.093344 274.993514,279.475302 276.004878,280.942929 L278.901722,286.748022 L298.466565,264.071875 C299.643523,262.481652 301.792117,262.017271 303.502618,262.98342 C304.174131,263.586076 304.558824,264.453286 304.558824,265.364416 C304.558824,266.275545 304.174131,267.142756 303.502618,267.745411 L280.238727,294.956787 C279.455054,295.946116 278.278538,296.528114 277.029915,296.544118 L277.297316,296.135947 Z" id="Path" fill="url(#linearGradient-6)" opacity="0.942968786"></path>
                        <path d="M369.496508,279.342112 C364.458046,294.919369 367.42714,311.982318 372.240671,327.559575 C385.241703,368.663723 411.333741,404.09523 432.747206,441.642721 C434.321725,444.389001 435.896245,447.270343 437.245833,450.106664 C435.182032,450.593509 433.068098,450.835288 430.947755,450.827 L222.481374,450.827 C221.353187,450.820769 220.226433,450.745594 219.107403,450.601895 C212.785294,439.499408 208.704239,427.262094 207.096069,414.585116 C203.767085,387.302406 212.314476,359.479445 226.710083,336.11356 C241.10569,312.747675 261.214553,293.11853 282.088183,275.380267 C302.961813,257.642003 324.645196,241.254369 341.110171,219.779365 C361.813613,192.463466 372.331472,158.767614 370.846096,124.514985 L370.846096,123.929712 C370.660147,119.121739 370.103664,114.335301 369.181604,109.613043 C368.686755,106.956805 368.011961,104.300568 367.292181,101.64433 L382.272609,101.64433 C380.110075,97.2799435 379.522019,92.3014726 380.608117,87.5527658 C381.310599,84.1906469 382.65477,80.9957788 384.566909,78.1433824 C386.816223,79.5390325 389.065536,80.9346827 391.359836,82.6454797 C390.413292,84.1988917 389.74354,85.9050298 389.38044,87.6878287 C387.904504,93.158124 390.284946,98.9383802 395.183669,101.779393 C397.45367,103.129461 400.056355,103.815728 402.696377,103.760316 C405.567893,103.720177 408.394832,103.043648 410.97385,101.779393 C411.890623,101.343809 412.777323,100.847475 413.62804,100.293701 C416.957025,103.355127 420.196036,106.596638 423.16513,109.748106 C427.670195,114.48569 431.919919,119.46005 435.896245,124.650048 C436.256135,125.145279 436.571039,125.640509 436.975915,126.13574 C448.807305,142.208227 457.849545,162.152519 453.890753,181.736642 C449.392126,203.346709 430.947755,218.608819 413.403109,231.619881 C395.858463,244.630942 376.154476,258.452381 369.496508,279.342112 Z" id="Path" fill="url(#linearGradient-7)" fill-rule="nonzero" opacity="0.7" style="mix-blend-mode: overlay;"></path>
                        <path d="M644.181985,370.815943 L644.181985,445.682219 C644.181985,451.843517 639.154957,456.838235 632.953802,456.838235 L503.130756,456.838235 C496.939868,456.81368 491.927288,451.833317 491.902574,445.682219 L491.902574,370.815943 C491.927288,364.664845 496.939868,359.684482 503.130756,359.659926 L632.953802,359.659926 C639.154957,359.659926 644.181985,364.654645 644.181985,370.815943 Z" id="Path" fill="#131F77" fill-rule="nonzero"></path>
                        <rect id="Rectangle" fill="#FFFFFF" fill-rule="nonzero" x="491.902574" y="384.705882" width="152.279412" height="15.0275735"></rect>
                        <rect id="Rectangle" fill="#FFFFFF" fill-rule="nonzero" x="596.09375" y="424.779412" width="30.0551471" height="20.0367647" rx="2.18"></rect>
                        <path d="M644.181985,376.760922 L644.181985,445.674041 C644.181985,451.839855 639.154957,456.838235 632.953802,456.838235 L503.130756,456.838235 C496.939868,456.813662 491.927288,451.829648 491.902574,445.674041 L491.902574,403.752267 L492.894622,403.48325 C500.677771,401.325063 508.857706,400.987454 516.793967,402.496856 C526.939915,404.828334 535.417419,411.46408 543.849829,417.606629 C552.28224,423.749177 561.481233,429.712382 571.89774,430.071071 C582.314247,430.429759 593.632616,423.031799 593.677709,412.719491 C593.47072,408.936262 592.648382,405.211402 591.242681,401.689805 C591.017216,400.927591 590.79175,400.120541 590.611378,399.313491 C589.266283,394.530955 588.943703,389.521288 589.664423,384.607243 C590.188183,381.367889 591.47022,378.296249 593.40715,375.640019 C597.939246,370.038394 604.7555,366.748389 611.985509,366.672794 C619.113537,366.685607 626.166696,368.118691 632.728337,370.88739 C636.786856,372.341668 640.637228,374.316172 644.181985,376.760922 Z" id="Path" fill="url(#linearGradient-8)" fill-rule="nonzero" opacity="0.7" style="mix-blend-mode: overlay;"></path>
                        <path d="M556.019831,447.911135 L556.019831,460.664163 C556.019831,480.942828 428.786765,480.942828 428.786765,460.664163 L428.786765,447.911135 C428.791951,442.057116 431.320602,436.489626 435.725112,432.634541 L435.725112,392.843293 C435.725112,390.905554 435.725112,388.967815 436.040491,387.120203 C436.875088,378.704006 439.601243,370.585439 444.015085,363.371633 C449.256324,354.765311 456.688134,347.705159 465.550993,342.912713 L467.803704,341.78612 L469.290492,340.5694 C480.508989,331.196151 472.219015,334.440737 458.252213,323.670513 C444.28541,312.900288 442.348079,300.507771 453.431413,308.1686 C458.29995,311.342441 463.89855,313.219376 469.69598,313.621307 C478.80256,314.452708 487.931311,312.284766 495.692255,307.44758 C505.874504,300.778153 516.867729,303.436911 528.716985,309.745829 C531.420237,311.142804 534.168543,312.765097 536.961904,314.252199 C552.010007,323.264939 529.84334,318.758569 515.831483,324.346468 C511.326063,326.239144 509.568949,328.852838 509.568949,331.015896 C509.932848,333.869489 511.365949,336.478604 513.578773,338.316215 C514.513749,339.29402 515.522972,340.197992 516.597404,341.020037 C517.233601,341.533667 517.895232,342.014955 518.579789,342.462076 C537.401002,352.188671 549.220939,371.608749 549.216646,392.79823 L549.216646,432.589477 C553.577991,436.483245 556.055962,442.06396 556.019831,447.911135 L556.019831,447.911135 Z" id="Path" fill="url(#linearGradient-9)" opacity="0.942968786"></path>
                        <path d="M523.961397,398.551521 C523.945692,405.893286 521.352483,412.994907 516.636964,418.609817 C513.840489,421.965907 510.36318,424.685716 506.436679,426.58806 C502.239184,428.655153 497.632007,429.748907 492.956127,429.788372 C487.787357,429.808536 482.698947,428.50533 478.172455,426.002087 L478.172455,426.002087 C469.969959,421.597449 464.181147,413.721489 462.411856,404.559027 C460.642564,395.396564 463.080957,385.922023 469.050614,378.763675 C470.494239,377.115004 472.088942,375.605892 473.813743,374.256193 C479.233126,369.951901 485.953947,367.630464 492.866257,367.675269 C509.712715,367.695767 523.460376,381.205941 523.826592,398.100773 C523.889201,398.245124 523.934454,398.396438 523.961397,398.551521 L523.961397,398.551521 Z" id="Path" fill="#FAF1F3" fill-rule="nonzero"></path>
                        <path d="M495.490438,417.334592 C499.100942,416.870314 502.339273,414.835847 504.373732,411.7537 C505.386346,410.059018 505.92408,408.112871 505.928309,406.127434 L505.928309,405.900569 C505.928309,400.501169 502.863572,397.143559 495.845769,394.648038 C490.737875,392.742367 488.694717,391.426547 488.694717,389.384757 C488.694717,387.342967 489.893962,385.981774 493.847028,385.981774 C496.843078,385.994012 499.794492,386.724446 502.463824,388.11431 L502.863572,386.571625 L504.240483,381.081478 C501.448396,379.789463 498.422288,379.109381 495.357188,379.085062 L495.357188,373.685662 L489.494214,373.685662 L489.494214,379.538793 C488.875507,379.65698 488.266668,379.823846 487.673138,380.037897 C482.862999,381.115597 479.418454,385.44345 479.367258,390.473712 C479.367258,396.372216 483.808905,399.548334 490.204877,401.726243 C494.20236,403.087436 496.156685,404.403256 496.4676,406.263554 C496.510737,406.473002 496.510737,406.689329 496.4676,406.898777 C496.4676,409.394298 494.06911,410.710118 490.649042,410.710118 C487.256433,410.654221 483.924277,409.783812 480.921834,408.169224 L480.699752,408.169224 L478.878676,415.292802 C482.034143,416.978014 485.53406,417.879611 489.094465,417.924443 L489.094465,423.777574 L495.001856,423.777574 L495.490438,417.334592 Z" id="Path" fill="#F851A7" fill-rule="nonzero"></path>
                        <path d="M529.956223,395.836116 C529.324596,386.619428 525.372544,377.942521 518.830438,371.408956 C504.94501,357.785513 482.931438,357.020921 468.131229,369.648033 C467.086727,370.478611 466.104214,371.384045 465.191489,372.357145 C458.555768,379.325663 454.849034,388.569072 454.834559,398.184013 C454.834559,399.267658 454.834559,400.351303 454.834559,401.299492 C455.842395,414.110519 463.362443,425.509817 474.753526,431.493748 C486.144609,437.477678 499.814082,437.209598 510.96098,430.783661 C513.791493,429.183069 516.392862,427.208695 518.694758,424.913919 C523.241062,420.45742 526.559049,414.905497 528.32806,408.794702 C529.381779,405.356181 529.915308,401.779853 529.910997,398.184013 C529.972965,397.402982 529.988067,396.618949 529.956223,395.836116 L529.956223,395.836116 Z M516.388192,418.41205 C513.573571,421.773877 510.073696,424.498335 506.121716,426.40393 C501.896982,428.474557 497.259908,429.57018 492.553685,429.609713 C487.351373,429.629911 482.229943,428.324478 477.674078,425.816956 L477.674078,425.816956 C469.372994,421.411064 463.512261,413.494475 461.729359,404.279075 C459.946458,395.063675 462.432557,385.53757 468.493043,378.362343 C469.946036,376.710854 471.551088,375.199163 473.287081,373.847157 C478.741632,369.535508 485.506066,367.210103 492.463231,367.254984 C509.419011,367.275517 523.255884,380.808784 523.624476,397.732495 C523.6687,397.971281 523.6687,398.216138 523.624476,398.454924 C523.583504,405.699225 521.025952,412.704886 516.388192,418.276594 L516.388192,418.41205 Z" id="Shape" fill="#131F77" fill-rule="nonzero"></path>
                        <path d="M521.551823,420.63654 C520.772013,420.633882 520.065974,420.174434 519.746963,419.462048 C519.115263,417.926173 503.548352,381.652423 517.626254,361.640878 C522.950589,354.006676 524.439597,347.772831 521.912795,343.571762 C520.219838,341.035715 517.421406,339.458758 514.377507,339.32552 C509.84676,346.081523 502.374268,350.274903 494.253327,350.618717 C484.762275,352.063435 475.216788,348.368087 469.165783,340.906567 C468.616247,340.045692 468.826756,338.905779 469.647415,338.298515 C470.468074,337.691252 471.618345,337.824227 472.279165,338.602755 C477.530448,344.935142 485.728176,348.025663 493.847233,346.733857 C501.021255,346.515985 507.610141,342.717557 511.399489,336.615152 L511.850704,335.666524 L512.888498,335.666524 C517.798991,335.23635 522.542838,337.567479 525.206663,341.719677 C527.598101,345.604537 528.726138,352.651492 520.694515,363.989863 C507.880014,382.284842 523.085953,417.655136 523.221317,418.19721 C523.433282,418.670133 523.447646,419.208255 523.261213,419.691836 C523.074779,420.175417 522.703016,420.564339 522.228645,420.772059 C521.997679,420.75989 521.769697,420.714242 521.551823,420.63654 L521.551823,420.63654 Z" id="Path" fill="#FFFFFF" fill-rule="nonzero"></path>
                        <path d="M556.020221,448.027652 L556.020221,460.727538 C556.020221,480.921703 428.786765,480.921703 428.786765,460.727538 L428.786765,448.027652 C428.791951,442.198025 431.320609,436.653735 435.725133,432.814714 L435.725133,393.189274 C435.725133,391.259609 435.725133,389.329944 436.040513,387.490031 C436.996966,387.589074 437.945379,387.754015 438.878937,387.983667 C450.367794,390.765974 458.792955,400.27967 468.614801,406.741802 C478.153861,413.419157 489.842765,416.329811 501.414361,414.90922 C513.107877,413.255512 522.92284,405.293003 526.915117,394.22142 C528.072382,390.15448 528.499448,385.915927 528.176639,381.701037 C527.976015,374.19588 525.545793,366.918469 521.193216,360.788857 C517.904249,356.301265 513.128489,352.307308 513.804304,347.011949 C514.03158,344.972118 514.953871,343.071486 516.417456,341.626838 C517.053654,342.138328 517.715288,342.61761 518.399847,343.062868 C537.221118,352.748933 549.041091,372.088089 549.036798,393.189274 L549.036798,432.814714 C553.453243,436.649055 555.997796,442.192201 556.020221,448.027652 L556.020221,448.027652 Z" id="Path" fill="url(#linearGradient-10)" fill-rule="nonzero" opacity="0.7" style="mix-blend-mode: overlay;"></path>
                        <path d="M515.764612,324.743529 C511.275398,326.649465 509.524605,329.281471 509.524605,331.459683 C509.99226,334.169866 511.410774,336.618792 513.520005,338.357356 C512.963665,339.198948 512.31621,339.975196 511.589643,340.671706 C510.22055,341.955262 508.714957,343.081494 507.10043,344.029784 C502.639275,347.397845 497.118549,349.01075 491.567752,348.567726 C488.771324,348.691061 485.970083,348.49315 483.217816,347.977793 C478.31303,346.379259 473.745864,343.87083 469.750176,340.580947 C480.928317,331.142027 472.668165,334.409346 458.751603,323.563664 C444.835042,312.717982 442.904681,300.23864 453.948145,307.953142 C458.799169,311.14922 464.37763,313.039305 470.154205,313.444052 C471.806579,314.585483 473.531135,315.61629 475.3168,316.529853 C487.572353,322.746834 502.656109,320.750139 515.225906,315.123091 C519.6465,312.886605 524.240851,311.01981 528.962899,309.541422 C531.656427,310.948184 534.394847,312.581843 537.178159,314.079364 C551.812994,323.654423 529.726065,318.753445 515.764612,324.743529 Z" id="Path" fill="url(#linearGradient-11)" fill-rule="nonzero" opacity="0.5" style="mix-blend-mode: overlay;"></path>
                        <path d="M232.071065,219.810415 C230.364652,216.819182 227.189707,214.966663 223.744653,214.952112 L216.723462,214.952112 C216.723462,212.914894 215.071113,211.263401 213.032837,211.263401 C210.99456,211.263401 209.342211,212.914894 209.342211,214.952112 L202.411036,214.952112 C199.505077,214.919584 196.747234,216.23137 194.939769,218.50587 L194.939769,218.50587 C193.497425,220.187744 192.685854,222.319 192.64438,224.533764 L192.64438,257.687179 C192.650805,261.807284 195.328125,265.448007 199.260501,266.684035 C200.255586,267.105799 201.330792,267.305376 202.411036,267.26883 L223.744653,267.26883 C226.88401,267.282462 229.829198,265.751759 231.620989,263.175261 C232.710465,261.513705 233.318038,259.582936 233.376286,257.59721 L233.376286,224.758685 C233.429612,223.017758 232.976194,221.298789 232.071065,219.810415 Z M233.511309,48.1054167 L226.805172,48.1054167 L226.805172,45.3613756 C226.805172,43.547754 225.334178,42.0775231 223.519615,42.0775231 C222.644536,42.0652888 221.801711,42.4073351 221.182876,43.0258489 C220.564041,43.6443626 220.221817,44.4867506 220.234058,45.3613756 L220.234058,48.1054167 L175.72151,48.1054167 L175.72151,45.3613756 C175.733751,44.4867506 175.391527,43.6443626 174.772692,43.0258489 C174.153857,42.4073351 173.311032,42.0652888 172.435953,42.0775231 C170.62139,42.0775231 169.150396,43.547754 169.150396,45.3613756 L169.150396,48.1054167 L163.659465,48.1054167 C162.765489,48.1135118 161.875067,48.2191003 161.004014,48.4203067 C160.198845,48.6059548 159.425418,48.9091021 158.708625,49.3199923 C158.182695,49.4302665 157.689627,49.6612719 157.268381,49.9947565 C156.687304,50.3387959 156.169688,50.7800629 155.738122,51.2993006 L154.207862,52.9187347 C153.874168,53.4236087 153.57349,53.9495227 153.307709,54.4931845 C152.984504,55.2644222 152.728511,56.0621053 152.54258,56.8773514 C152.315339,57.5893996 152.208852,58.3344204 152.227526,59.0815811 L152.227526,78.8296802 L59.1067364,78.8296802 C56.2254752,78.8182717 53.3895146,79.5462552 50.8703398,80.9439413 C50.1906621,83.3219017 49.6644901,85.7410371 49.2950727,88.1864105 C51.762955,85.3421177 55.3399547,83.7021435 59.1067364,83.6879824 L152.227526,83.6879824 L152.227526,108.384352 L144.306183,108.384352 C134.363372,108.384352 126.30313,116.440412 126.30313,126.378064 L126.30313,186.746969 C125.676825,187.437934 125.324692,188.333808 125.312963,189.266088 L118.156749,189.266088 C116.368415,189.230584 114.606105,189.698211 113.070887,190.615617 C110.128408,192.365369 108.305225,195.515966 108.25507,198.937709 L108.25507,223.319188 L94.3927196,223.319188 L104.969513,237.804127 L110.010368,237.804127 C108.705147,246.486093 110.010368,258.766801 116.266429,260.296267 C116.657874,260.448086 117.065697,260.553763 117.481635,260.611157 C117.481635,261.825732 117.031558,263.040308 116.80652,264.254884 C110.483179,265.011411 104.308744,266.709637 98.4884141,269.293123 L98.4884141,269.293123 L76.7047204,273.791551 L63.6525072,251.299411 L63.6525072,240.953026 C63.6520613,239.60223 63.3603933,238.267391 62.7973622,237.039394 C48.1698819,252.738908 32.5522338,267.853626 28.0514706,282.023674 C29.4288783,282.792513 30.9748423,283.209707 32.5522338,283.23825 L53.7508283,283.23825 C55.6064072,283.261094 57.4310651,282.762302 59.0167212,281.798753 C60.1760586,280.9867 61.156424,279.945602 61.8972096,278.739822 C63.7560876,282.286869 66.1212393,285.544842 68.9184001,288.411442 C72.4289954,291.245452 86.6964146,290.345766 96.7331165,288.411442 C95.2928723,307.30484 93.8526281,325.208583 94.3027044,339.4686 L94.3027044,339.4686 C94.4156736,344.539137 94.9273366,349.592949 95.8329639,354.583318 C95.8329639,354.583318 96.058002,354.583318 96.058002,354.583318 C93.5958165,363.265274 91.716319,372.101843 90.4320481,381.034075 C89.1256083,389.312657 88.3588627,397.667351 88.1366588,406.045335 C88.3686402,412.089398 89.0759413,418.105858 90.2520175,424.039047 C94.1676815,424.80378 98.8034675,425.568513 104.159376,426.198293 C106.965084,426.567496 109.790963,426.762801 112.62081,426.783088 C112.395772,421.160053 112.215742,416.571657 112.215742,413.827616 C112.215742,406.000351 115.951375,398.128102 119.777024,386.477173 C120.201677,393.399647 121.013079,400.29299 122.207436,407.124958 C123.813148,413.527489 125.904554,419.79845 128.463497,425.883403 C135.77216,425.018024 142.959203,423.327832 149.887129,420.845163 C148.671923,416.346735 147.771771,412.61304 147.366702,410.183889 C144.621237,397.363369 152.407557,382.518556 149.752107,351.704324 C150.374259,351.400354 150.937968,350.989212 151.417389,350.489749 C148.536901,313.19778 157.223373,274.646252 146.151496,265.964286 C141.019602,263.891372 135.528637,262.851841 129.993756,262.905355 C129.266599,261.252664 128.752399,259.514358 128.463497,257.732163 L130.983924,254.898153 C131.298978,254.898153 131.659039,254.583263 131.974092,254.358342 L131.974092,253.773546 L136.474855,248.510385 L136.159802,240.728105 L139.04029,240.728105 C141.618153,240.719806 144.090176,239.702442 145.926458,237.894095 C147.716813,236.071705 148.70512,233.610316 148.671923,231.056485 L148.671923,198.127991 C148.669589,195.12774 147.293255,192.293633 144.93629,190.43568 C143.221775,189.18482 141.162659,188.493568 139.04029,188.456371 L131.974092,188.456371 C131.985529,187.447558 131.538602,186.487992 130.758886,185.847283 L130.758886,126.602986 C130.783582,119.333904 136.673267,113.447275 143.946122,113.422592 L152.092503,113.422592 C152.687224,119.179191 157.509514,123.573133 163.299404,123.634023 L210.197356,123.634023 L210.197356,211.443338 L215.148195,211.443338 L215.148195,123.634023 L233.151248,123.634023 C234.791302,123.667335 236.414335,123.296548 237.877049,122.554401 C241.912343,120.697036 244.483808,116.6482 244.448164,112.208016 L244.448164,59.0815811 C244.262284,53.1155812 239.479592,48.3156994 233.511309,48.1054167 Z" id="Shape" fill="#000000" fill-rule="nonzero" opacity="0.1"></path>
                        <path d="M573.204467,497.86557 C563.802353,505.47404 553.032783,511.251804 541.463574,514.894234 C541.368733,514.961726 541.241006,514.961726 541.146165,514.894234 L541.146165,514.894234 C541.048562,514.808941 540.992647,514.686206 540.992647,514.557255 C540.992647,514.428304 541.048562,514.305569 541.146165,514.220276 L541.146165,514.220276 L541.508918,513.770971 L541.508918,513.770971 L541.508918,513.770971 C541.508918,513.770971 541.917015,513.231805 542.18908,512.962222 L542.18908,512.962222 C543.141307,511.88389 544.320254,510.446113 545.725923,508.873545 L545.725923,508.873545 C549.282629,504.862255 553.198173,501.177923 557.424709,497.86557 L557.424709,497.86557 C561.226235,494.534824 565.981375,492.461647 571.027948,491.934742 C577.512159,491.575298 577.149406,494.271129 573.204467,497.86557 Z" id="Path" fill="#131F77" fill-rule="nonzero"></path>
                        <path d="M555.404784,486.857016 C552.920086,494.199626 549.670002,501.266205 545.707084,507.94249 L545.707084,507.94249 C545.072655,509.019195 544.438226,510.006175 543.803797,510.948292 L543.803797,510.948292 C543.048524,512.084814 542.323463,513.071794 541.628612,513.909231 L541.628612,513.909231 C541.628612,513.909231 541.628612,513.909231 541.628612,513.909231 C541.512051,513.954276 541.382642,513.954276 541.266081,513.909231 C541.266081,513.909231 541.266081,513.909231 541.266081,513.909231 C541.087634,513.832901 540.978239,513.652401 540.994183,513.460604 L540.994183,512.294173 L540.994183,512.294173 C540.994183,511.935272 540.994183,511.57637 540.994183,511.172606 L540.994183,511.172606 C540.994183,510.230489 540.994183,509.108921 540.994183,507.852765 C541.412947,501.641611 542.491383,495.491399 544.211644,489.503916 C545.323957,484.923854 547.80305,480.781286 551.326312,477.615298 C557.897183,472.859851 558.078449,478.46769 555.404784,486.857016 Z" id="Path" fill="#131F77" fill-rule="nonzero"></path>
                        <path d="M541.815985,514.631351 C541.835335,514.722009 541.835335,514.815902 541.815985,514.90656 C541.702168,514.957617 541.5728,514.957617 541.458984,514.90656 L541.458984,514.90656 C541.356316,514.931882 541.249276,514.931882 541.146608,514.90656 C538.309851,510.979926 536.068047,506.63433 534.497463,502.017608 C533.936938,500.161783 533.829654,498.192637 534.185087,496.284089 C535.122215,492.614637 536.594844,493.577868 537.978224,496.559298 C539.629917,500.505033 540.784635,504.651414 541.414359,508.897832 C541.684033,510.415549 541.877664,511.946506 541.994485,513.484647 L541.994485,513.484647 L541.994485,513.484647 C541.970328,513.871816 541.910561,514.255764 541.815985,514.631351 L541.815985,514.631351 Z" id="Path" fill="#131F77" fill-rule="nonzero"></path>
                        <path d="M567.997482,496.26425 C567.89545,496.173074 567.741132,496.173074 567.6391,496.26425 C567.6391,496.26425 549.451257,504.007101 541.656467,512.913618 C542.686812,508.2142 547.076982,488.834693 550.615996,484.359057 C550.673852,484.308079 550.706996,484.234724 550.706996,484.157653 C550.706996,484.080582 550.673852,484.007227 550.615996,483.956249 C550.513964,483.865074 550.359646,483.865074 550.257614,483.956249 C546.405017,488.74518 541.925253,509.019814 541.0293,513.092644 C538.604024,508.190232 536.75501,503.023773 535.519189,497.696454 C535.521042,497.563998 535.425939,497.449981 535.295201,497.427916 C535.295201,497.427916 535.026415,497.427916 534.981618,497.651697 C536.315411,503.286214 538.28414,508.751537 540.850109,513.943015 L540.850109,513.943015 L540.850109,513.943015 C548.152125,504.991741 567.101529,496.711814 567.325517,496.622301 C567.389535,496.742225 567.512729,496.818918 567.648692,496.823489 C567.784654,496.828061 567.91273,496.759817 567.984674,496.644464 C568.056618,496.529111 568.0615,496.384174 567.997482,496.26425 Z" id="Path" fill="#FFFFFF" fill-rule="nonzero"></path>
                        <path d="M573.051471,497.532957 C563.663843,505.2896 552.910868,511.179883 541.359485,514.893248 C541.26479,514.962054 541.137259,514.962054 541.042565,514.893248 C541.042565,514.893248 541.042565,514.893248 541.042565,514.893248 C540.938403,514.918536 540.829807,514.918536 540.725645,514.893248 C537.847624,510.971977 535.57321,506.632315 533.979779,502.021898 C534.310095,501.156406 534.508547,500.24517 534.568345,499.319372 C534.651018,498.334297 535.258736,497.473508 536.152944,497.074902 C536.378816,497.096421 536.606186,497.096421 536.832058,497.074902 C537.090495,497.026912 537.327808,496.898861 537.511172,496.708458 C539.186892,500.648805 540.358406,504.789523 540.997291,509.030142 C541.415665,502.688459 542.4931,496.408998 544.211763,490.295685 C545.275217,490.616466 546.408057,490.616466 547.471511,490.295685 L547.924253,490.295685 C548.1874,490.181285 548.43169,490.026811 548.648641,489.83763 C549.463578,489.287964 550.187966,488.555076 551.002903,487.913799 C552.109734,486.898952 553.692853,486.614206 555.077587,487.18091 L555.485056,487.455743 C553.002666,494.952661 549.7556,502.167747 545.796363,508.984337 C549.347589,504.894928 553.2571,501.138845 557.477123,497.761985 L557.477123,497.761985 C558.469367,498.091994 559.526491,498.170636 560.555773,497.991012 C561.765607,497.917652 562.956885,497.654967 564.087166,497.212319 C565.076756,496.557501 566.161298,496.062957 567.301639,495.746542 C568.207231,495.721234 569.106227,495.909416 569.927546,496.296208 C571.001163,496.619476 572.046125,497.033172 573.051471,497.532957 L573.051471,497.532957 Z" id="Path" fill="url(#linearGradient-12)" fill-rule="nonzero" opacity="0.7" style="mix-blend-mode: overlay;"></path>
                        <rect id="Rectangle" fill="#FCDEEB" fill-rule="nonzero" x="187.34375" y="99.1819853" width="5.00919118" height="94.1727941"></rect>
                        <path d="M108.110385,171.314338 L103.189338,171.314338 L103.189338,108.248761 C103.189338,98.2616192 111.274577,90.1654412 121.248225,90.1654412 L145.266544,90.1654412 L145.266544,95.0027292 L121.248225,95.0027292 C113.985057,95.0026865 108.090111,100.885392 108.065238,108.158344 L108.110385,171.314338 Z" id="Path" fill="#FCDEEB" fill-rule="nonzero"></path>
                        <path d="M22.9376729,212.389706 L18.0330882,212.389706 L18.0330882,79.0839261 C18.0330882,69.1583785 26.0912803,61.1121324 36.031564,61.1121324 L135.248162,61.1121324 L135.248162,66.0543756 L35.9415716,66.0543756 C28.7728612,66.1277561 22.9863995,71.9256322 22.9376729,79.0839261 L22.9376729,212.389706 Z" id="Path" fill="#FCDEEB" fill-rule="nonzero"></path>
                        <path d="M222.408088,40.9745203 L222.408088,93.8260768 C222.375817,98.2839309 219.751442,102.325141 215.665751,104.208432 C214.248904,104.861547 212.703882,105.197703 211.140692,105.192965 L140.730781,105.192965 C134.383014,105.192965 129.237132,100.103836 129.237132,93.8260768 L129.237132,40.9745203 C129.239578,40.2438492 129.361834,39.5184067 129.599137,38.8264469 C129.752357,38.0210255 130.01095,37.2387585 130.368397,36.4993673 C130.635218,35.9439124 130.937499,35.4058074 131.273409,34.8883123 C131.723593,34.3237737 132.223289,33.7996383 132.766678,33.3220087 C133.228055,32.8029823 133.761245,32.3510032 134.350449,31.9794628 C134.763661,31.6852122 135.222013,31.4585635 135.707966,31.3081899 C136.460405,30.898824 137.26793,30.5974583 138.106247,30.4131593 C138.961056,30.1787123 139.843715,30.0583089 140.730781,30.0551471 L211.004941,30.0551471 C217.13566,30.1208531 222.14397,34.9166875 222.408088,40.9745203 Z" id="Path" fill="#F8F7F2" fill-rule="nonzero"></path>
                        <path d="M222.408088,41.143458 C222.141454,47.2721199 217.113351,52.1012842 211.004941,52.0954372 L140.730781,52.0954372 C134.596643,52.1267163 129.528004,47.2969509 129.237132,41.143458 C129.239578,40.4014824 129.361834,39.6648163 129.599137,38.9621509 C129.752357,38.1442685 130.01095,37.3498988 130.368397,36.5990682 C130.635218,36.0350197 130.937499,35.4885894 131.273409,34.9630879 C131.723593,34.3898152 132.223289,33.8575707 132.766678,33.3725515 C133.228055,32.8454951 133.761245,32.3865232 134.350449,32.0092346 C134.763661,31.7104315 135.222013,31.4802763 135.707966,31.3275762 C136.460405,30.9118769 137.26793,30.6058486 138.106247,30.4186982 C138.961056,30.180624 139.843715,30.0583578 140.730781,30.0551471 L211.004941,30.0551471 C217.13566,30.1218697 222.14397,34.9919022 222.408088,41.143458 Z" id="Path" fill="#4862C1" fill-rule="nonzero"></path>
                        <path d="M165.249449,75.9182038 C164.954537,75.9026356 164.659035,75.9026356 164.364122,75.9182038 L164.364122,75.9182038 C164.98763,75.6899091 165.582098,75.3859132 166.134776,75.012736 C168.474128,73.7901112 169.932551,71.3158062 169.897415,68.629188 C169.899503,67.6091846 169.672322,66.6023389 169.23342,65.6864177 C167.761258,62.6023347 164.557624,60.7921046 161.221212,61.1590787 C158.375805,61.1203321 155.584568,61.9562496 153.209005,63.5585683 L154.35993,66.6371589 C156.137844,65.3160255 158.271306,64.5886929 160.468685,64.5545829 C164.231323,64.5545829 165.780645,66.7277056 165.780645,69.0819219 C165.780645,72.7490665 162.018006,74.3336351 159.007895,74.3336351 L156.661779,74.3336351 L156.661779,77.5480458 L159.007895,77.5480458 C160.523298,77.4948587 162.032377,77.7726726 163.434529,78.3629668 C165.589468,79.213249 167.0013,81.3430767 166.975837,83.7052268 C166.975837,86.3310834 165.426515,89.7265877 160.203087,89.7265877 C157.81018,89.6918878 155.464876,89.037708 153.38607,87.8251053 L152.279412,91.1300628 C154.694019,92.5241002 157.43096,93.2278111 160.203087,93.1673653 C167.551299,93.1673653 171.313938,88.6400263 171.313938,83.841047 C171.350846,80.0752549 168.832693,76.7854597 165.249449,75.9182038 L165.249449,75.9182038 Z" id="Path" fill="#FF7FAF" fill-rule="nonzero"></path>
                        <polygon id="Path" fill="#FF7FAF" fill-rule="nonzero" points="185.832205 61.1121324 179.329044 64.7234097 180.076029 68.0187003 185.392802 65.0845374 185.392802 65.0845374 185.392802 92.1691176 189.347426 92.1691176 189.347426 61.1121324"></polygon>
                        <path d="M153.28125,27.3310476 L153.28125,32.7792465 C153.28125,34.5945678 151.711366,36.0661765 149.774816,36.0661765 C147.838266,36.0661765 146.268382,34.5945678 146.268382,32.7792465 L146.268382,27.3310476 C146.268382,25.5157263 147.838266,24.0441176 149.774816,24.0441176 C151.711366,24.0441176 153.28125,25.5157263 153.28125,27.3310476 L153.28125,27.3310476 Z" id="Path" fill="#FF7FAF" fill-rule="nonzero"></path>
                        <path d="M204.375,27.3229004 L204.375,32.757595 C204.375,34.5684167 202.805333,36.0363777 200.869052,36.0363777 C200.502072,36.0761094 200.131417,36.0761094 199.764438,36.0363777 C198.313876,35.6482495 197.326766,34.3927644 197.363103,32.9821691 L197.363103,27.3229004 C197.363103,25.5120787 198.93277,24.0441176 200.869052,24.0441176 C202.805333,24.0441176 204.375,25.5120787 204.375,27.3229004 L204.375,27.3229004 Z" id="Path" fill="#FF7FAF" fill-rule="nonzero"></path>
                        <path d="M215.565798,104.198842 C214.164292,104.858319 212.636,105.197749 211.089737,105.192965 L143.948825,105.192965 C143.289896,103.379572 142.912439,101.474292 142.829809,99.5445404 C142.655197,97.6010665 142.962863,95.6442907 143.725022,93.8509285 C144.517338,92.1234287 145.661179,90.5837653 147.082067,89.3321889 C152.140016,84.8134494 158.809347,81.7407064 163.419689,77.3123417 C164.1612,76.6260552 164.835706,75.8694584 165.433917,75.0529719 C165.824213,74.7058619 166.130465,74.2730202 166.329129,73.7877248 C167.215101,72.6677252 167.897091,71.3978388 168.343356,70.037171 C169.00376,68.2554797 169.381413,66.379709 169.462371,64.4791213 C169.462371,62.9879372 169.462371,61.5419406 169.462371,59.9603817 C169.605471,57.4322649 169.33323,54.8976658 168.65668,52.459274 C168.564454,51.9119379 168.333111,51.3981306 167.985271,50.96809 C166.282108,47.5488077 163.578786,44.740834 160.241686,42.9247335 C153.706637,38.8126805 145.82877,37.0051847 139.293721,32.7123821 C138.194169,32.0306992 137.173295,31.2274309 136.25,30.3174501 C136.994291,29.9040972 137.793073,29.5997962 138.622312,29.4137022 C139.467865,29.1769718 140.340967,29.0553957 141.218428,29.052203 L146.723982,29.052203 L146.723982,26.3409593 C146.723982,24.5191487 148.186903,23.0422794 149.991507,23.0422794 C151.796111,23.0422794 153.259031,24.5191487 153.259031,26.3409593 L153.259031,29.052203 L197.482512,29.052203 L197.482512,26.3409593 C197.482512,24.5191487 198.945432,23.0422794 200.750036,23.0422794 C202.55464,23.0422794 204.017561,24.5191487 204.017561,26.3409593 L204.017561,28.1484551 L203.301391,29.052203 C201.791507,30.7781067 200.580899,32.7488253 199.720542,34.8813771 C199.468569,35.6180457 199.274013,36.3734693 199.138654,37.1407469 C198.644402,41.8517332 199.353241,46.6120181 201.197642,50.96809 C201.197642,50.96809 201.197642,51.3295891 201.197642,51.4199639 C203.955038,59.7654082 207.152527,67.9560214 210.776413,75.9567198 C213.529385,80.9457739 215.62119,86.2783242 216.998137,91.8174957 C217.844519,95.9930503 217.342502,100.332554 215.565798,104.198842 Z" id="Path" fill="url(#linearGradient-13)" fill-rule="nonzero" opacity="0.7" style="mix-blend-mode: overlay;"></path>
                        <path d="M210.386029,206.924614 L210.386029,239.714678 C210.349467,241.709302 209.735564,243.651133 208.617884,245.307481 C206.792835,247.897184 203.8177,249.444348 200.638564,249.456981 L179.194139,249.456981 C178.07833,249.471493 176.970124,249.272432 175.929871,248.870638 C172.012772,247.579546 169.353123,243.95498 169.310662,239.849988 L169.310662,206.924614 C169.327709,204.704551 170.167102,202.568712 171.668188,200.925882 L171.668188,200.925882 C173.488883,198.645366 176.266911,197.33011 179.194139,197.362725 L200.638564,197.362725 C204.11253,197.406854 207.310617,199.254232 209.071255,202.233876 C209.918895,203.654219 210.372586,205.272858 210.386029,206.924614 Z" id="Path" fill="#F8F7F2" fill-rule="nonzero"></path>
                        <path d="M193.350591,196.690378 C193.420615,198.125945 192.607457,199.458873 191.298933,200.053456 C189.990409,200.64804 188.451533,200.383857 187.416233,199.386904 C186.380933,198.389951 186.058888,196.86214 186.603689,195.532121 C187.14849,194.202103 188.449799,193.339245 189.886989,193.355066 C191.759956,193.33107 193.303917,194.817843 193.350591,196.690378 Z" id="Path" fill="#FF7FAF" fill-rule="nonzero"></path>
                        <rect id="Rectangle" fill="#FF7FAF" fill-rule="nonzero" x="174.319853" y="208.382353" width="13.0238971" height="4.00735294"></rect>
                        <rect id="Rectangle" fill="#FCDEEB" fill-rule="nonzero" x="174.319853" y="217.398897" width="28.0514706" height="11.0202206"></rect>
                        <rect id="Rectangle" fill="#FCDEEB" fill-rule="nonzero" x="175.321691" y="232.426471" width="19.0349265" height="4.00735294"></rect>
                        <path d="M126.230641,181.007515 L126.230641,213.76207 C126.267608,216.331637 125.253677,218.806699 123.419657,220.623842 C121.585637,222.440985 119.087587,223.445585 116.494154,223.408959 L95.0285961,223.408959 C93.9865963,223.395074 92.9510682,223.244191 91.949149,222.960266 C87.998518,221.691626 85.2792809,218.09934 85.1562509,213.986416 L85.1562509,181.007515 C85.1547319,177.568766 87.0008222,174.389205 90.0018515,172.661834 C91.5155117,171.751806 93.2583376,171.285107 95.0285961,171.315756 L116.448868,171.315756 C119.050568,171.291551 121.55282,172.304869 123.392581,174.1277 C125.232342,175.950531 126.255072,178.429756 126.230641,181.007515 L126.230641,181.007515 Z" id="Path" fill="#F8F7F2" fill-rule="nonzero"></path>
                        <path d="M109.200086,170.791907 C109.212264,171.723598 108.82894,172.621094 108.135713,173.283979 C107.442485,173.946864 106.497094,174.319924 105.510652,174.319853 C103.618859,174.121612 102.1875,172.61131 102.1875,170.813419 C102.1875,169.015529 103.618859,167.505226 105.510652,167.306985 C106.489151,167.306985 107.427573,167.674146 108.119476,168.327695 C108.811379,168.981245 109.200086,169.867648 109.200086,170.791907 Z" id="Path" fill="#FF7FAF" fill-rule="nonzero"></path>
                        <rect id="Rectangle" fill="#FF7FAF" fill-rule="nonzero" x="90.1654412" y="182.334559" width="13.0238971" height="13.0238971"></rect>
                        <rect id="Rectangle" fill="#FCDEEB" fill-rule="nonzero" x="90.1654412" y="198.363971" width="28.0514706" height="4.00735294"></rect>
                        <rect id="Rectangle" fill="#FCDEEB" fill-rule="nonzero" x="90.1654412" y="207.380515" width="19.0349265" height="4.00735294"></rect>
                        <path d="M41.0753676,223.047843 L41.0753676,255.651995 C41.0590286,259.009578 39.3601304,262.139819 36.541814,264.005125 C34.9417068,264.96555 33.108455,265.47776 31.2375563,265.487132 L9.70317673,265.487132 C7.87590407,265.471454 6.08809711,264.958796 4.53492563,264.005125 C1.66572567,262.186072 -0.049301311,259.026114 0.00137202778,255.651995 L0.00137202778,223.047843 C-0.042602365,220.474372 0.972097577,217.993896 2.81217526,216.17672 C4.65529855,214.366968 7.15352495,213.364132 9.74851227,213.392343 L31.1922208,213.392343 C33.206858,213.36625 35.1769668,213.980055 36.8138273,215.143806 C39.4754012,216.910238 41.073479,219.874252 41.0753676,223.047843 L41.0753676,223.047843 Z" id="Path" fill="#F8F7F2" fill-rule="nonzero"></path>
                        <path d="M24.0441176,212.890625 C24.0441176,214.827175 22.4742338,216.397059 20.5376838,216.397059 C18.6011339,216.397059 17.03125,214.827175 17.03125,212.890625 C17.03125,210.954075 18.6011339,209.384191 20.5376838,209.384191 C22.4742338,209.384191 24.0441176,210.954075 24.0441176,212.890625 L24.0441176,212.890625 Z" id="Path" fill="#FF7FAF" fill-rule="nonzero"></path>
                        <rect id="Rectangle" fill="#FF7FAF" fill-rule="nonzero" x="5.00919118" y="224.411765" width="13.0238971" height="4.00735294"></rect>
                        <rect id="Rectangle" fill="#131F77" fill-rule="nonzero" x="5.00919118" y="232.426471" width="13.0238971" height="4.00735294"></rect>
                        <rect id="Rectangle" fill="#FCDEEB" fill-rule="nonzero" x="5.00919118" y="240.441176" width="28.0514706" height="4.00735294"></rect>
                        <rect id="Rectangle" fill="#131F77" fill-rule="nonzero" x="5.00919118" y="248.455882" width="19.0349265" height="4.00735294"></rect>
                        <path d="M133.244485,472.281532 C134.145441,473.870286 134.641774,475.641005 134.692926,477.448988 C134.692926,480.358397 148.272059,477.926653 148.272059,477.926653 C147.384148,475.61315 146.356426,473.351265 145.194122,471.152508 C144.256871,469.229828 143.037461,467.445812 141.57302,465.854779 L133.244485,472.281532 Z" id="Path" fill="#FBD783" fill-rule="nonzero"></path>
                        <path d="M126.646442,325.597426 C131.744112,362.32038 122.174801,378.316268 125.081367,392.329567 C127.987934,406.342866 144.264706,467.53277 144.264706,467.53277 C141.471012,470.704788 137.30733,472.288657 133.130321,471.768301 C119.044652,439.010525 102.186567,401.116041 100.084896,389.355684 C96.7484824,369.309956 96.2816629,348.885737 98.6986874,328.706486 L126.646442,325.597426 Z" id="Path" fill="url(#linearGradient-14)" opacity="0.942968786"></path>
                        <path d="M147.623693,474.871324 C149.731631,476.983002 150.668221,480.017271 150.123534,482.970055 C140.570571,485.141781 131.285447,487.494485 122.268164,488.897059 C121.553924,485.413247 129.723047,478.898067 134.544169,476.40963 C138.90933,477.926723 143.7173,477.361249 147.623693,474.871324 Z" id="Path" fill="#131F77" fill-rule="nonzero"></path>
                        <path d="M82.1507353,475.926239 C82.7479987,477.768962 82.8913921,479.728673 82.5687208,481.638708 C82.0114068,484.703935 96.1764706,484.889706 96.1764706,484.889706 C95.7532137,482.277298 95.1951546,479.688524 94.5045286,477.133753 C93.9576933,474.932294 93.097456,472.820803 91.9501729,470.863971 L82.1507353,475.926239 Z" id="Path" fill="#FBD783" fill-rule="nonzero"></path>
                        <path d="M104.191176,331.117903 C102.010659,367.944125 89.3364043,381.731504 89.4272592,396.012892 C89.5181141,410.294281 93.6520109,473.258139 93.6520109,473.258139 C90.2652118,475.838691 85.7934893,476.56424 81.7500222,475.189271 C74.1636402,440.428909 64.8964429,400.054795 65.1235801,388.153637 C65.7658881,367.906449 69.3300746,347.853737 75.708173,328.602941 L104.191176,331.117903 Z" id="Path" fill="url(#linearGradient-15)" opacity="0.942968786"></path>
                        <path d="M96.6287748,481.018018 C98.3368502,483.495507 98.657744,486.702183 97.475674,489.481039 C87.7140466,489.708539 78.219861,490.11804 69.1268382,489.75404 C69.1268382,486.205031 78.3535819,481.382018 83.5241243,479.880515 C87.4972008,482.269066 92.3176546,482.687489 96.6287748,481.018018 L96.6287748,481.018018 Z" id="Path" fill="#131F77" fill-rule="nonzero"></path>
                        <path d="M128.637605,333.525348 C121.53129,340.733823 83.3744527,343.285892 72.7828752,337.241518 C68.8902441,317.899523 72.7828752,285.259905 75.1818222,252.172557 C88.7607678,245.635678 113.836554,244.605896 123.341816,249.575715 C134.521814,257.903518 125.831289,296.408417 128.637605,333.525348 Z" id="Path" fill="url(#linearGradient-16)" fill-rule="nonzero"></path>
                        <path d="M108.198529,247.798469 C106.125461,243.655405 105.102628,239.063917 105.220504,234.430147 L94.5912448,234.430147 C94.954727,239.42118 94.4745384,244.43792 93.1709559,249.268525 C94.2705344,251.381731 107.144767,250.554824 108.198529,247.798469 Z" id="Path" fill="#FBD783" fill-rule="nonzero"></path>
                        <path d="M109.200368,236.63675 C103.032327,239.296389 98.6918541,244.172394 93.0720838,241.823046 C85.2135432,239.78399 85.0307864,222.540662 87.7264486,214.827708 L109.154678,212.389706 L109.200368,236.63675 Z" id="Path" fill="#FBD783" fill-rule="nonzero"></path>
                        <path d="M114.209559,231.586642 L103.969729,243.446691 L96.0103848,233.487871 L101.42095,227.874718 L98.9168868,224.479666 L96.0103848,228.19159 L94.0876219,225.928221 L95.5632306,219.636058 C91.2681008,220.044664 86.9501099,220.150543 82.6404756,219.952929 L72.1323529,205.376838 L98.6038789,205.376838 L113.494112,215.199856 L114.209559,231.586642 Z" id="Path" fill="#2A195B" fill-rule="nonzero"></path>
                        <path d="M80.0680495,250.516034 L53.542249,255.900859 L31.0245915,216.397059 L24.0441176,219.3836 C29.8987086,241.194404 36.9692531,262.054945 46.0213514,270.607314 C50.5248829,274.272615 73.0425404,271.964833 81.1488971,269.159294 L80.0680495,250.516034 Z" id="Path" fill="url(#linearGradient-17)" fill-rule="nonzero"></path>
                        <path d="M23.9710138,219.402574 C23.9710138,219.402574 18.3959307,216.003973 18.0447444,212.106911 C17.6935581,208.209848 25.3757591,204.44873 27.8779617,205.581597 C30.3801643,206.714464 27.8779617,211.608449 28.9315207,211.835022 C29.9850797,212.061596 30.5118592,209.841177 31.6971131,210.430267 C32.882367,211.019358 30.775249,216.411805 30.775249,216.411805 L23.9710138,219.402574 Z" id="Path" fill="#FBD783" fill-rule="nonzero"></path>
                    </g>
                </g>
            </g>
        </g>
    </g>
</svg>