<?xml version="1.0" encoding="UTF-8"?>
<svg width="733px" height="545px" viewBox="0 0 733 545" version="1.1" xmlns="http://www.w3.org/2000/svg" xmlns:xlink="http://www.w3.org/1999/xlink">
    <!-- Generator: Sketch 55 (78076) - https://sketchapp.com -->
    <title>Illustration1</title>
    <desc>Created with Sketch.</desc>
    <defs>
        <linearGradient x1="100%" y1="51.964173%" x2="0%" y2="51.964173%" id="linearGradient-1">
            <stop stop-color="#FB927E" offset="0%"></stop>
            <stop stop-color="#FF4D7B" offset="100%"></stop>
        </linearGradient>
        <linearGradient x1="100%" y1="51.964173%" x2="0%" y2="51.964173%" id="linearGradient-2">
            <stop stop-color="#FB927E" offset="0%"></stop>
            <stop stop-color="#FF4D7B" offset="100%"></stop>
        </linearGradient>
        <linearGradient x1="22.2877101%" y1="32.839301%" x2="70.3558175%" y2="54.8086014%" id="linearGradient-3">
            <stop stop-color="#FFFFFF" offset="0%"></stop>
            <stop stop-color="#000000" offset="100%"></stop>
        </linearGradient>
        <linearGradient x1="0%" y1="49.973343%" x2="100%" y2="49.973343%" id="linearGradient-4">
            <stop stop-color="#FFFFFF" offset="0%"></stop>
            <stop stop-color="#000000" offset="100%"></stop>
        </linearGradient>
        <linearGradient x1="91.3326752%" y1="50.8421146%" x2="-0.400789733%" y2="67.7771339%" id="linearGradient-5">
            <stop stop-color="#FFFFFF" offset="0%"></stop>
            <stop stop-color="#C2C2C2" offset="26%"></stop>
            <stop stop-color="#292929" offset="85%"></stop>
            <stop stop-color="#000000" offset="100%"></stop>
        </linearGradient>
        <linearGradient x1="100%" y1="51.964173%" x2="0%" y2="51.964173%" id="linearGradient-6">
            <stop stop-color="#FB927E" offset="0%"></stop>
            <stop stop-color="#FF4D7B" offset="100%"></stop>
        </linearGradient>
        <linearGradient x1="33.6957283%" y1="62.648041%" x2="72.0986398%" y2="40.1348812%" id="linearGradient-7">
            <stop stop-color="#FFFFFF" offset="0%"></stop>
            <stop stop-color="#000000" offset="100%"></stop>
        </linearGradient>
        <linearGradient x1="51.9962597%" y1="35.5100941%" x2="47.6853471%" y2="73.6223197%" id="linearGradient-8">
            <stop stop-color="#FFFFFF" offset="0%"></stop>
            <stop stop-color="#000000" offset="100%"></stop>
        </linearGradient>
        <linearGradient x1="13.6749637%" y1="37.557784%" x2="75.9607987%" y2="57.4575381%" id="linearGradient-9">
            <stop stop-color="#FFFFFF" offset="0%"></stop>
            <stop stop-color="#000000" offset="100%"></stop>
        </linearGradient>
        <linearGradient x1="33.7379507%" y1="24.7700054%" x2="68.4755444%" y2="78.4206731%" id="linearGradient-10">
            <stop stop-color="#FFFFFF" offset="0%"></stop>
            <stop stop-color="#000000" offset="100%"></stop>
        </linearGradient>
        <linearGradient x1="0%" y1="49.9250297%" x2="100%" y2="49.9250297%" id="linearGradient-11">
            <stop stop-color="#FFFFFF" offset="0%"></stop>
            <stop stop-color="#000000" offset="100%"></stop>
        </linearGradient>
        <linearGradient x1="100%" y1="51.964173%" x2="0%" y2="51.964173%" id="linearGradient-12">
            <stop stop-color="#FB927E" offset="0%"></stop>
            <stop stop-color="#FF4D7B" offset="100%"></stop>
        </linearGradient>
        <linearGradient x1="-0.171600172%" y1="49.748817%" x2="100%" y2="49.748817%" id="linearGradient-13">
            <stop stop-color="#FFFFFF" offset="0%"></stop>
            <stop stop-color="#000000" offset="100%"></stop>
        </linearGradient>
        <linearGradient x1="100%" y1="51.964173%" x2="0%" y2="51.964173%" id="linearGradient-14">
            <stop stop-color="#FB927E" offset="0%"></stop>
            <stop stop-color="#FF4D7B" offset="100%"></stop>
        </linearGradient>
        <linearGradient x1="38.2082143%" y1="-9.6969697%" x2="55.9797207%" y2="104.363636%" id="linearGradient-15">
            <stop stop-color="#FFFFFF" offset="0%"></stop>
            <stop stop-color="#000000" offset="100%"></stop>
        </linearGradient>
        <linearGradient x1="100%" y1="51.964173%" x2="0%" y2="51.964173%" id="linearGradient-16">
            <stop stop-color="#FB927E" offset="0%"></stop>
            <stop stop-color="#FF4D7B" offset="100%"></stop>
        </linearGradient>
        <linearGradient x1="-2.88021926e-13%" y1="50.0278721%" x2="99.9199643%" y2="50.0278721%" id="linearGradient-17">
            <stop stop-color="#FFFFFF" offset="0%"></stop>
            <stop stop-color="#000000" offset="100%"></stop>
        </linearGradient>
        <linearGradient x1="100%" y1="51.964173%" x2="0%" y2="51.964173%" id="linearGradient-18">
            <stop stop-color="#FB927E" offset="0%"></stop>
            <stop stop-color="#FF4D7B" offset="100%"></stop>
        </linearGradient>
        <linearGradient x1="100%" y1="51.964173%" x2="0%" y2="51.964173%" id="linearGradient-19">
            <stop stop-color="#FB927E" offset="0%"></stop>
            <stop stop-color="#FF4D7B" offset="100%"></stop>
        </linearGradient>
        <linearGradient x1="68.4135053%" y1="-16.3132183%" x2="33.0755553%" y2="99.8929133%" id="linearGradient-20">
            <stop stop-color="#F851A7" offset="0%"></stop>
            <stop stop-color="#131F77" offset="100%"></stop>
        </linearGradient>
        <linearGradient x1="37.8074084%" y1="8.87884882%" x2="67.2555885%" y2="108.530654%" id="linearGradient-21">
            <stop stop-color="#FFFFFF" offset="0%"></stop>
            <stop stop-color="#C2C2C2" offset="26%"></stop>
            <stop stop-color="#292929" offset="85%"></stop>
            <stop stop-color="#000000" offset="100%"></stop>
        </linearGradient>
    </defs>
    <g id="Page-1" stroke="none" stroke-width="1" fill="none" fill-rule="evenodd">
        <g id="Desktop" transform="translate(0.000000, -1365.000000)">
            <g id="ABOUT-US" transform="translate(0.000000, 1000.000000)">
                <g id="1" transform="translate(0.000000, 365.000000)">
                    <g id="Illustration1">
                        <path d="M387.65847,265.239026 C334.070941,399.064516 198.303572,358.433162 181.88605,317.663607 C177.274387,305.640043 179.580219,294.031085 184.929748,282.560329 C196.643373,257.545788 222.099755,233.590795 214.167694,209.267264 C213.442036,207.001686 212.467659,204.823269 211.262346,202.771776 C189.310828,165.042662 136,185.772944 136,129.985451 C136,73.2305446 245.204188,-7.70969115 282.650895,9.33520767 C320.097601,26.3801065 330.427727,84.563099 368.243367,19.2857432 C406.059006,-45.9916126 572.955104,70.3283051 589.603208,132.38095 C637.241691,308.450148 441.245998,131.413537 387.65847,265.239026 Z" id="Path" fill="#F1EFF8" fill-rule="nonzero" opacity="0.5"></path>
                        <path d="M471.787097,510.696721 C203.642518,493.445673 434.928736,539.402464 326.104424,544.232757 C229.811954,548.603022 239.948004,533.330095 124.028457,523.025469 C118.499703,522.534773 112.648438,522.120748 106.474662,521.783394 C96.2464669,521.185358 85.1889585,520.817335 73.0717721,520.633324 C-69.1554301,518.793212 17.78423,437.55228 150.382185,411.146676 C168.633256,407.533993 187.102135,405.121328 205.669727,403.924238 C208.341959,403.648221 211.01419,403.556216 213.640348,403.418207 C220.735583,403.111522 227.87689,402.973514 235.064271,403.004182 C235.064271,403.004182 256.027464,405.258319 302.653291,408.708528 C349.970213,412.112735 423.871227,416.713014 529.147922,421.129283 C738.134832,429.869813 739.931677,527.901765 471.787097,510.696721 Z" id="Path" fill="#F1EFF8" fill-rule="nonzero" opacity="0.5"></path>
                        <path d="M512.719403,370 L320,370 L382.99377,123.472211 C384.546943,117.282913 390.132162,112.957446 396.51551,113.000316 L563.252867,113.000316 C566.865146,113.089658 570.246477,114.795367 572.464261,117.646994 C574.682045,120.498622 575.501969,124.194886 574.697889,127.716327 L512.719403,370 Z" id="Path" fill="#FCDEEB" fill-rule="nonzero"></path>
                        <path d="M531,166 C529.10086,166.000492 527.204277,166.139243 525.325294,166.415153 C508.524217,169.448982 494.898783,181.749153 490.169797,198.151287 C489.662303,199.858027 489.108673,201.564766 488.739586,203.40989 L438.543811,430.636919 C436.429769,438.827599 429.189652,444.659981 420.735384,444.982758 L248.879444,444.982758 C245.240065,445.184181 241.728389,443.611321 239.455879,440.761997 C237.18337,437.912674 236.431321,434.13958 237.43776,430.636919 L287.679671,203.594403 C290.575419,188.761708 300.356097,176.191102 314.023225,169.736376 C318.990279,167.455031 324.382078,166.24483 329.847813,166.184512 L531,166 Z" id="Path" fill="#F8F7F2" fill-rule="nonzero"></path>
                        <path d="M460.844466,209.144324 L443.240263,288.855676 C442.469601,291.799377 439.852649,293.888377 436.805306,293.992426 L300.292292,293.992426 C298.981984,294.072552 297.714199,293.513176 296.891894,292.492092 C296.069589,291.471008 295.795048,290.115228 296.155534,288.855676 L313.805701,209.144324 C314.530418,206.190132 317.147653,204.085874 320.194694,204.007574 L456.707708,204.007574 C458.018016,203.927448 459.285801,204.486824 460.108106,205.507908 C460.930411,206.528992 461.204952,207.884772 460.844466,209.144324 L460.844466,209.144324 Z" id="Path" fill="#131F77" fill-rule="nonzero"></path>
                        <path d="M333.435199,323.991838 L294.289185,323.991838 C292.973292,324.074337 291.699025,323.527517 290.877503,322.527798 C290.055981,321.528079 289.791187,320.202 290.168552,318.977395 L290.168552,318.977395 C290.904352,316.127659 293.503184,314.098088 296.532641,314.007328 L335.724439,314.007328 C337.02964,313.929803 338.292483,314.471027 339.111583,315.458978 C339.930683,316.446929 340.204153,317.758715 339.845072,318.977395 L339.845072,318.977395 C339.094587,321.843127 336.483724,323.885604 333.435199,323.991838 L333.435199,323.991838 Z" id="Path" fill="#FCDEEB" fill-rule="nonzero"></path>
                        <path d="M377.468623,342.996019 L290.312537,342.996019 C288.999665,343.052718 287.737331,342.50111 286.913061,341.510532 C286.08879,340.519954 285.801067,339.208761 286.138219,337.979478 L286.138219,337.979478 C286.907332,335.130105 289.519025,333.108046 292.560246,333.007331 L379.716332,333.007331 C381.024008,332.929773 382.289245,333.471224 383.109898,334.459588 C383.930551,335.447952 384.20454,336.760287 383.844779,337.979478 L383.844779,337.979478 C383.097726,340.83116 380.505667,342.870503 377.468623,342.996019 Z" id="Path" fill="#FCDEEB" fill-rule="nonzero"></path>
                        <path d="M373.423719,361.995319 L286.280455,361.995319 C284.969053,362.057094 283.707002,361.504571 282.889025,360.510557 C282.071048,359.516544 281.797009,358.202395 282.152616,356.979129 L282.152616,356.979129 C282.908113,354.121495 285.52736,352.09343 288.573698,352.00733 L375.716963,352.00733 C377.024446,351.929778 378.289497,352.471191 379.110029,353.459486 C379.930562,354.447781 380.20451,355.760024 379.844801,356.979129 L379.844801,356.979129 C379.106696,359.854332 376.483243,361.903789 373.423719,361.995319 Z" id="Path" fill="#FCDEEB" fill-rule="nonzero"></path>
                        <path d="M342.396198,390.995319 L279.298367,390.995319 C277.981478,391.057094 276.714146,390.504571 275.892746,389.510557 C275.071346,388.516544 274.796159,387.202395 275.153254,385.979129 L275.153254,385.979129 C275.911913,383.121495 278.542122,381.09343 281.601208,381.00733 L344.699039,381.00733 C346.011994,380.929778 347.282339,381.471191 348.106305,382.459486 C348.930271,383.447781 349.205366,384.760024 348.844152,385.979129 L348.844152,385.979129 C348.089208,388.845859 345.462835,390.889047 342.396198,390.995319 L342.396198,390.995319 Z" id="Path" fill="#FCDEEB" fill-rule="nonzero"></path>
                        <path d="M359.523863,423.995069 L272.285143,423.995069 C270.972306,424.06014 269.708872,423.478143 268.889999,422.431107 C268.071126,421.384071 267.796786,419.999823 268.152783,418.711306 L271.09135,405.244725 C271.829244,402.241933 274.435473,400.103356 277.473551,400.007721 L364.712271,400.007721 C366.021186,399.926032 367.287623,400.496326 368.109054,401.537338 C368.930485,402.57835 369.204734,403.960591 368.844631,405.244725 L365.951979,418.711306 C365.185938,421.722166 362.575463,423.867916 359.523863,423.995069 L359.523863,423.995069 Z" id="Path" fill="#FCDEEB" fill-rule="nonzero"></path>
                        <path d="M448,267.151096 L443.398658,288.782237 C442.627167,291.767962 440.0074,293.886784 436.956778,293.992318 L300.296909,293.992318 C298.985191,294.073587 297.716043,293.506226 296.892853,292.470565 C296.069663,291.434905 295.794828,290.05977 296.155701,288.782237 L302.367513,260.266346 L367.384481,245.612993 C372.408968,244.296539 377.747618,245.12042 382.15479,247.892403 L391.633556,254.125893 C397.993089,257.794081 405.796009,257.794081 412.155543,254.125893 L412.155543,254.125893 C418.894274,250.256599 427.23063,250.636396 433.597798,255.102783 L448,267.151096 Z" id="Path" fill="url(#linearGradient-1)" opacity="0.942968786"></path>
                        <ellipse id="Oval" fill="url(#linearGradient-2)" opacity="0.942968786" transform="translate(453.300385, 208.945114) rotate(-39.080000) translate(-453.300385, -208.945114) " cx="453.300385" cy="208.945114" rx="18.7139905" ry="15.0259177"></ellipse>
                        <path d="M525,166 L525,166.415245 C508.226604,169.449745 494.623618,181.752638 489.902423,198.158401 C478.804844,200.430352 467.547646,201.834115 456.2327,202.356987 C440.296005,203.971828 423.069635,207.893584 413.074656,220.443204 C399.256713,237.422101 404.277232,262.429064 399.256713,283.652686 C398.658642,287.114692 397.056782,290.323872 394.650731,292.880348 C390.610592,295.974255 385.640821,297.601131 380.556429,297.494178 C367.659681,298.55536 352.920541,298.832189 344.123117,289.050868 C336.10871,279.823206 337.398385,266.396959 338.227461,254.400999 C339.931674,232.300749 338.734119,209.09318 328.73914,189.207569 C325.075699,181.803019 320.078892,175.139684 314,169.55265 C318.95887,167.2708 324.341786,166.060331 329.798516,166 L525,166 Z" id="Path" fill="url(#linearGradient-3)" fill-rule="nonzero" opacity="0.7" style="mix-blend-mode: overlay;"></path>
                        <path d="M387,445 L294,445 C296.63994,441.170436 299.048307,437.387011 301.410359,433.557447 C306.088851,426.940609 309.092007,419.294944 310.163845,411.272151 C310.280513,405.335412 309.610897,399.409263 308.172311,393.646928 C304.422875,373.579859 304.234768,353.013233 307.616534,332.881433 C308.681773,326.698764 311.182769,319.316471 317.435259,318.116849 C320.07659,317.745453 322.766714,318.265198 325.077191,319.593307 C332.466012,323.103631 337.657761,329.999745 338.971614,338.049038 C340.592629,348.476526 335.266434,358.627178 333.413845,369.008527 C330.40248,387.071247 337.201814,405.373959 351.291335,417.131846 C358.423805,422.899262 366.899402,426.590408 374.170817,431.850292 C379.111397,435.537945 383.440455,439.975161 387,445 Z" id="Path" fill="url(#linearGradient-4)" fill-rule="nonzero" opacity="0.7" style="mix-blend-mode: overlay;"></path>
                        <path d="M252.365345,519.205847 C263.634042,528.47931 276.536658,535.521572 290.39492,539.962428 C290.529451,540.012524 290.677279,540.012524 290.811809,539.962428 L290.811809,539.962428 C290.931457,539.855934 291,539.702691 291,539.541687 C291,539.380683 290.931457,539.227439 290.811809,539.120945 L290.811809,539.120945 L290.348599,538.606706 L290.348599,538.606706 L290.348599,538.606706 L289.561141,537.578226 L289.561141,537.578226 C288.449436,536.222504 287.013484,534.539538 285.299605,532.622827 L285.299605,532.622827 C281.094734,527.734654 276.441987,523.258048 271.403293,519.252597 L271.403293,519.252597 C266.789327,515.255765 261.09336,512.747877 255.051966,512.053242 C247.22371,511.539002 247.733241,514.811436 252.365345,519.205847 Z" id="Path" fill="#131F77" fill-rule="nonzero"></path>
                        <path d="M273.919988,506.254295 C276.857312,515.116735 280.682886,523.649396 285.336516,531.718023 L285.336516,531.718023 C286.11284,533.01672 286.843498,534.222652 287.619822,535.335821 L287.619822,535.335821 C288.487478,536.680899 289.355134,537.886832 290.177124,538.953618 L290.177124,538.953618 C290.177124,538.953618 290.177124,538.953618 290.177124,538.953618 C290.323255,539.015461 290.487653,539.015461 290.633785,538.953618 L290.633785,538.953618 C290.863989,538.8714 291.012932,538.644484 290.999114,538.397034 C290.999114,538.025978 290.999114,537.562157 290.999114,537.051955 L290.999114,537.051955 C290.999114,536.634517 290.999114,536.170697 290.999114,535.706877 L290.999114,535.706877 C290.999114,534.593708 290.999114,533.202248 290.770783,531.718023 C290.305761,524.197973 289.050419,516.749977 287.026162,509.501036 C285.707508,503.961177 282.780036,498.951703 278.623598,495.122611 C270.951691,489.37124 270.769027,496.050251 273.919988,506.254295 Z" id="Path" fill="#131F77" fill-rule="nonzero"></path>
                        <path d="M290.236259,539.399047 C290.208251,539.50517 290.208251,539.616514 290.236259,539.722637 C290.340163,539.882897 290.51534,539.985724 290.708776,540 L290.708776,540 C290.858319,539.96806 290.991913,539.886374 291.08679,539.768864 C294.632988,535.132861 297.422516,529.986672 299.355847,524.513907 C300.058846,522.346752 300.188901,520.040633 299.733861,517.810971 C298.552567,513.46562 296.757001,514.621299 295.008686,518.134561 C292.948123,522.789725 291.503151,527.683092 290.708776,532.696111 C290.378014,534.591424 290.141755,536.394283 290,538.05846 L290,538.05846 C290,538.05846 290,538.05846 290,538.335823 C290,538.613186 290.236259,539.075457 290.236259,539.399047 Z" id="Path" fill="#131F77" fill-rule="nonzero"></path>
                        <path d="M257.220811,517.689779 C257.220811,517.689779 257.220811,517.689779 257.636862,517.689779 C258.052914,517.689779 279.595147,526.796711 288.979425,537.542891 C287.731269,531.942128 282.461281,508.856055 278.069624,503.5285 C277.954735,503.390186 277.975432,503.18632 278.115852,503.073154 C278.256273,502.959987 278.463242,502.980374 278.578132,503.118688 C283.200929,508.810521 288.609601,532.94389 289.672844,537.816099 C291.152139,534.674207 296.653267,522.470919 296.375899,519.602235 C296.32191,519.469187 296.364685,519.317006 296.480456,519.230254 C296.596226,519.143502 296.756536,519.143502 296.872307,519.230254 C296.988077,519.317006 297.030852,519.469187 296.976863,519.602235 C297.346687,523.199473 290.181352,538.362515 289.903984,539 L289.903984,539 L289.487932,539 C280.704618,528.117216 257.775546,518.463869 257.544406,518.372799 C257.420539,518.429737 257.275242,518.417258 257.163248,518.340064 C257.051254,518.262869 256.989577,518.132686 257.00145,517.998554 C257.013323,517.864421 257.096943,517.746717 257.220811,517.689779 L257.220811,517.689779 Z" id="Path" fill="#FFFFFF" fill-rule="nonzero"></path>
                        <path d="M252,519.755969 C263.287137,528.784097 276.210867,535.640051 290.091807,539.963422 C290.226557,540.012193 290.374627,540.012193 290.509378,539.963422 L290.509378,539.963422 C290.656216,539.931976 290.787393,539.851553 290.880553,539.735861 C294.36259,535.171549 297.101648,530.104941 299,524.716808 C298.594883,523.730125 298.359697,522.684274 298.304047,521.621972 C298.189889,520.485257 297.464104,519.495475 296.401777,519.027772 L295.566634,519.027772 C295.281602,518.936882 295.014751,518.798302 294.777887,518.618162 C292.754606,523.201338 291.335777,528.019033 290.555775,532.954531 C290.083311,525.575493 288.807882,518.267159 286.751234,511.154147 C285.462688,511.517067 284.096048,511.517067 282.807502,511.154147 L282.25074,510.926586 C281.946691,510.760887 281.65238,510.57855 281.3692,510.380439 C280.394867,509.743267 279.559724,508.878533 278.58539,508.195849 C277.267051,507.010811 275.371808,506.674401 273.713722,507.331116 L273.203356,507.649702 C276.187682,516.345957 280.074471,524.718617 284.802567,532.635945 C280.590815,527.877092 275.930453,523.518917 270.883514,519.619432 L270.883514,519.619432 C269.696763,520.045768 268.415965,520.155702 267.171767,519.938018 C265.728827,519.82383 264.308431,519.517607 262.949654,519.027772 C261.768856,518.263059 260.467833,517.694142 259.098717,517.343818 C258.007935,517.276252 256.918594,517.496253 255.943731,517.98099 C254.577189,518.454565 253.257213,519.048655 252,519.755969 L252,519.755969 Z" id="Path" fill="url(#linearGradient-5)" fill-rule="nonzero" opacity="0.7" style="mix-blend-mode: overlay;"></path>
                        <path d="M604.961308,257.941345 C601.943185,265.079994 595.861426,270.49065 588.396728,272.678076 C569.888817,279.447762 601.491075,294.138441 588.905696,314.125133 C576.320316,334.111825 565.446919,335.907864 565.770807,349.677497 C566.094696,363.44713 585.574272,375.466777 552.63019,440.124185 C552.63019,447.400446 531.90133,448.229387 531.623712,440.861022 C505.203669,402.223154 490.674959,371.368123 509.599298,358.980059 C519.048829,353.682834 524.026897,342.956996 521.953328,332.361838 C521.398091,325.315838 519.315951,317.440897 517.650239,308.506754 C513.439689,286.125343 536.15815,283.500363 550.039083,275.809631 C563.920016,268.1189 544.162821,239.658588 562.855811,234.362575 C581.548801,229.066562 592.329659,224.415281 601.167186,237.309921 C605.776376,243.141948 607.196186,250.862498 604.961308,257.941345 Z" id="Path" fill="url(#linearGradient-6)" opacity="0.942968786"></path>
                        <path d="M542.470565,448.999533 C541.2004,449.023387 540.096255,448.131656 539.851316,446.884171 C538.88633,441.779712 516.875453,320.054449 575.326049,256.087754 C575.901614,255.273786 576.895005,254.865499 577.876094,255.039675 C578.857184,255.213852 579.64962,255.939183 579.910288,256.901611 C580.170955,257.864038 579.852999,258.890563 579.09409,259.536713 C522.205854,321.617977 544.676247,444.722823 544.906006,445.964449 C545.15716,447.360737 544.232533,448.697309 542.838178,448.953547 L542.470565,448.999533 Z" id="Path" fill="#FFFFFF" fill-rule="nonzero"></path>
                        <path d="M605,258.15015 C601.980754,265.280873 595.896731,270.685522 588.429255,272.870519 C569.914456,279.632688 601.528475,294.307056 588.938412,314.271556 C576.348349,334.236056 565.470904,336.030101 565.794913,349.784446 C566.118922,363.53879 585.605748,375.545091 552.649406,440.130709 C552.649406,447.398891 531.912831,448.226912 531.635109,440.866728 C505.205234,402.271761 490.671116,371.450989 509.602498,359.076679 C519.055546,353.785336 524.035467,343.071406 521.961127,332.488012 L532.005405,329.957949 C541.262805,327.565889 551.029361,323.931798 556.259792,315.881596 C561.490222,307.831395 560.564483,297.481135 563.017693,288.280905 C566.342381,275.832068 575.307458,265.630105 587.27208,260.680213 C592.905808,258.48877 598.973422,257.622822 605,258.15015 L605,258.15015 Z" id="Path" fill="url(#linearGradient-7)" fill-rule="nonzero" opacity="0.7" style="mix-blend-mode: overlay;"></path>
                        <path d="M722.271891,333.42511 C717.059139,340.002684 711.175059,346.017665 704.715247,351.372332 C681.675031,371.441846 679.647492,347.081608 680.891664,362.076073 C682.135835,377.070538 646.054857,357.04716 640.156562,367.704764 C634.258267,378.362368 663.703663,393.772065 651.953153,415.225684 C640.202643,436.679303 597.2096,409.089487 554.861683,423.714858 C544.309264,427.036709 540.576749,423.714858 541.037554,416.102283 C541.037554,416.102283 545.645597,386.067217 565.782745,365.859292 C582.970746,348.465712 573.017373,325.627989 578.270542,306.48121 C579.126703,303.225515 580.462323,300.115621 582.233459,297.253847 C604.259906,262.928057 603.845182,332.225553 619.097805,326.642999 C634.350428,321.060444 609.881719,288.441716 623.337205,274.923629 C636.792691,261.405542 641.769377,284.981454 672.274623,278.660711 C702.779869,272.339967 710.106657,245.119246 728.677071,247.103129 C747.247485,249.087012 699.093434,283.366666 713.378368,279.721857 C727.663302,276.077049 722.594454,289.779683 711.673392,299.330004 C700.75233,308.880325 684.578098,313.171049 711.212588,313.816964 C729.276117,314.139922 730.61245,322.167727 722.271891,333.42511 Z" id="Path" fill="#131F77" fill-rule="nonzero"></path>
                        <path d="M590.166393,320.3874 C591.546376,320.710197 593.248355,321.909158 593.66235,325.598267 C594.287396,330.188367 594.287396,334.842324 593.66235,339.432424 C593.66235,340.769726 593.202355,342.107028 592.972358,343.44433 C592.280226,346.390844 591.940506,349.409491 591.960371,352.436533 C592.339565,358.209028 594.621023,363.691661 598.44629,368.023017 C601.40469,367.361194 604.322781,366.529778 607.186181,365.532869 C618.482272,360.731785 627.957048,352.444963 634.233845,341.876459 C636.88307,337.697168 639.294229,333.370919 641.455756,328.918464 C639.160096,326.673264 637.358212,323.971567 636.165821,320.986881 C635.180947,316.660062 635.403757,312.144904 636.809813,307.936658 C637.03981,306.968267 637.269808,305.953763 637.453805,304.985371 C638.273971,300.779607 638.475439,296.476116 638.051798,292.211832 C638.051798,290.551734 637.223808,288.522724 636.073822,288.338268 C635.63275,288.281198 635.233115,288.048672 634.964894,287.693046 C634.696673,287.33742 634.582413,286.888586 634.64784,286.4476 C634.704769,286.005431 634.936718,285.604801 635.291461,285.335913 C635.646205,285.067025 636.093925,284.952481 636.533817,285.01807 C639.201784,285.386981 641.13376,287.923244 641.363757,291.889035 C641.849969,296.506483 641.632822,301.171207 640.719765,305.723193 C640.719765,306.737698 640.30577,307.752203 640.075773,308.812822 C638.853258,312.435464 638.615101,316.319124 639.385781,320.064603 C640.142354,322.145093 641.298861,324.05651 642.789739,325.690494 L647.389682,315.914356 C648.493668,313.424208 649.597654,310.934059 650.74764,308.490025 C652.286011,304.711751 654.447482,301.219852 657.141561,298.16052 C663.075487,291.935149 671.861378,290.367278 681.061263,288.937748 C681.97137,288.827299 682.805222,289.459341 682.94724,290.367278 C683.012667,290.808264 682.898407,291.257098 682.630186,291.612724 C682.361965,291.96835 681.96233,292.200876 681.521258,292.257946 C672.919365,293.364679 664.731466,294.840322 659.533531,300.235644 C657.132861,302.978605 655.191088,306.09317 653.783602,309.458416 C652.633617,311.948564 651.52963,314.392599 650.425644,316.882747 C647.895676,322.508638 645.227709,328.27287 642.283745,333.852647 C645.430451,335.185041 648.980917,335.185041 652.127623,333.852647 C654.560688,332.723116 656.872601,331.347968 659.027537,329.748514 L660.591518,328.641781 C663.510187,326.366552 666.908488,324.789351 670.527394,324.030395 C674.139527,323.578359 677.805666,324.153617 681.107263,325.690494 C682.266473,326.199935 683.375338,326.817504 684.419222,327.535049 C685.786413,328.568812 687.352766,329.306829 689.019164,329.7024 C689.685326,329.591484 690.353894,329.88588 690.723097,330.452709 C691.092301,331.019537 691.092301,331.751574 690.723097,332.318403 C690.353894,332.885231 689.685326,333.179628 689.019164,333.068712 C686.755779,332.693371 684.621445,331.758268 682.809242,330.347994 C681.922702,329.742091 680.983597,329.217353 680.003276,328.780123 C677.283537,327.484361 674.252919,326.988662 671.263385,327.350593 C668.135092,328.007259 665.194834,329.362827 662.661492,331.316385 L661.097511,332.377004 C658.789355,334.206608 656.272386,335.754602 653.599605,336.98839 C649.518641,338.783189 644.884281,338.833145 640.765764,337.126731 C639.569779,339.294083 638.281795,341.41532 636.947812,343.536558 C630.277974,354.707725 620.220643,363.448993 608.244168,368.484156 C605.006564,369.619045 601.704017,370.558378 598.354291,371.297101 C598.172623,371.33861 597.983966,371.33861 597.802298,371.297101 C592.899875,372.206766 588.167313,373.871172 583.772472,376.231284 C582.392627,377.074415 581.084836,378.030706 579.862521,379.090343 C582.615392,380.307823 585.210399,381.856312 587.590425,383.701729 L589.108406,384.762348 C597.305945,390.918746 607.247887,394.294816 617.490053,394.400144 L622.089996,393.98512 C626.108572,393.293812 630.225812,393.435056 634.187846,394.400144 C634.616608,394.51661 634.978315,394.805497 635.187362,395.198434 C635.396408,395.59137 635.434214,396.053434 635.291832,396.475268 C635.164397,396.897656 634.874452,397.251799 634.48605,397.459462 C634.097647,397.667125 633.642752,397.711219 633.221858,397.582001 C629.653795,396.867686 625.980055,396.867686 622.411992,397.582001 C620.817345,397.766456 619.284031,397.904798 617.812049,397.997025 C609.359162,398.084483 601.03686,395.903201 593.708349,391.679427 C591.538774,390.487686 589.435062,389.179217 587.406427,387.759749 L585.842447,386.653016 C583.330781,384.628645 580.480603,383.067296 577.424551,382.04163 L577.424551,382.04163 C576.044568,383.332818 574.756584,384.716234 573.4686,386.053536 L560.496762,399.887694 C557.425801,402.943986 554.624699,406.261212 552.124866,409.802173 C546.378461,418.716324 544.846818,429.717595 547.938918,439.86841 C548.10661,440.521434 547.874926,441.212207 547.347746,441.631012 C546.820566,442.049817 546.096796,442.118079 545.500948,441.805192 C545.114373,441.609062 544.82982,441.256681 544.718958,440.836801 C541.324313,429.734596 543.008664,417.695304 549.318901,407.957619 C551.878318,404.227637 554.789688,400.753099 558.012793,397.582001 L570.984631,383.747843 C574.310126,379.902233 578.148933,376.534921 582.39249,373.741136 C586.357077,371.618657 590.599997,370.066294 594.996333,369.12975 C591.327957,364.428817 589.177588,358.717772 588.83241,352.75933 C588.830456,349.487036 589.185224,346.224327 589.890396,343.029305 C590.166393,341.738117 590.39639,340.400815 590.580388,339.109627 C591.155697,334.840429 591.155697,330.513059 590.580388,326.243861 C590.580388,324.629875 589.936396,323.938168 589.6144,323.84594 C589.17106,323.759968 588.784113,323.491301 588.547941,323.10547 C588.311768,322.719639 588.248082,322.252114 588.372415,321.81693 C588.512878,320.94775 589.290035,320.328473 590.166393,320.3874 L590.166393,320.3874 Z" id="Path" fill="#FEFEFE" fill-rule="nonzero"></path>
                        <path d="M722.954,333.825959 C717.750389,340.374741 711.876628,346.363393 705.428144,351.69462 C682.428334,371.676285 680.40435,347.422678 681.64634,362.351508 C682.88833,377.280338 646.870626,357.344608 640.982674,367.955561 C635.094723,378.566514 664.488481,393.908758 652.758577,415.268469 C641.028674,436.628179 598.111027,409.159132 555.837374,423.720483 C545.303461,427.027793 541.577491,423.720483 542.037488,416.141231 C542.037488,416.141231 546.63745,386.237636 566.739285,366.118167 C583.897144,348.800724 573.961225,326.062968 579.205182,307 C581.975008,308.457984 584.503868,310.332593 586.703121,312.558118 C591.303083,317.473148 594.339058,323.72029 598.709022,328.956864 C605.733401,337.129456 615.592586,342.347467 626.308795,343.56415 C637.043415,344.608421 647.833276,342.228345 657.128542,336.76579 C662.096501,333.917829 666.328466,330.24304 671.526423,327.578818 C687.951519,316.939167 709.655622,319.612044 723,333.917829 L722.954,333.825959 Z" id="Path" fill="url(#linearGradient-8)" fill-rule="nonzero" opacity="0.7" style="mix-blend-mode: overlay;"></path>
                        <path d="M656.695825,402.061708 C652.288852,403.469437 647.482021,402.829376 643.59833,400.317692 C633.350115,394.580797 639.002718,414.591086 625.215881,416.656368 C611.429044,418.72165 606.236002,414.545191 600.169793,420.1444 C594.103585,425.743609 596.171611,439.0991 554.21367,449.425511 C551.042697,452.362801 542.494858,443.229664 545.711787,440.246479 C553.018811,413.260127 561.428781,394.718483 574.388408,398.435991 C580.428548,400.672242 587.2241,398.828074 591.300262,393.846475 C594.28741,390.86329 597.044777,386.824516 600.491486,382.602161 C608.993369,372.00038 618.873936,381.179411 628.06516,384.529758 C637.256385,387.880104 642.219646,367.823921 651.77852,374.295138 C661.337394,380.766355 667.771251,383.474169 665.565357,392.653201 C664.402548,397.091196 661.061589,400.635177 656.695825,402.061708 L656.695825,402.061708 Z" id="Path" fill="#FCDEEB" fill-rule="nonzero"></path>
                        <path d="M545.359156,448.515715 C544.880281,447.925053 544.880281,447.081213 545.359156,446.490551 C547.344547,444.051149 594.255168,386.333971 646.521726,388.03695 C647.370618,388.086402 648.025684,388.800625 647.999226,389.647876 C647.950275,390.476002 647.261565,391.122159 646.429382,391.120723 C595.640324,389.417744 548.267984,447.825318 547.760094,448.423662 C547.514486,448.742792 547.148633,448.947905 546.747496,448.99137 C546.34636,449.034834 545.944842,448.912868 545.636188,448.653794 L545.359156,448.515715 Z" id="Path" fill="#FFFFFF" fill-rule="nonzero"></path>
                        <path d="M657,402.459506 C652.581025,403.884919 647.761104,403.236818 643.866837,400.693582 C633.590713,394.88462 639.25871,415.146279 625.434328,417.237505 C611.609946,419.328731 606.402762,415.099807 600.320034,420.769354 C594.237306,426.4389 596.310963,439.962163 554.238761,450.418294 C551.059153,453.392482 542.488036,444.144615 545.713725,441.123955 C553.040648,413.7986 561.473521,395.024036 574.46844,398.788243 C580.525028,401.052586 587.339086,399.185252 591.426348,394.141073 L596.495288,397.719394 C600.890751,401.49481 606.531567,403.468409 612.301165,403.249525 C618.015243,402.366563 622.392964,397.951752 627.554066,395.442281 C634.510861,392.090557 642.617942,392.193613 649.488752,395.721111 C652.459163,397.374671 655.025485,399.676938 657,402.459506 L657,402.459506 Z" id="Path" fill="url(#linearGradient-9)" fill-rule="nonzero" opacity="0.7" style="mix-blend-mode: overlay;"></path>
                        <path d="M539,377.918519 L539,439.081528 C538.90118,445.622421 533.638794,450.900879 527.117815,451 L421.882185,451 C415.361206,450.900879 410.09882,445.622421 410,439.081528 L410,377.918519 C410.012858,374.338691 411.617017,370.9512 414.375223,368.679394 C416.491723,366.939492 419.145697,365.992249 421.882185,366.000048 L527.117815,366.000048 C530.269166,366.000048 533.291447,367.25574 535.519789,369.490887 C537.748131,371.726034 539,374.757544 539,377.918519 L539,377.918519 Z" id="Path" fill="#FCDEEB" fill-rule="nonzero"></path>
                        <path d="M534,368.665352 L481.514362,400.832825 C476.921576,403.722392 471.078424,403.722392 466.485638,400.832825 L458.029108,395.502215 L414,368.665352 C416.112107,366.934568 418.760574,365.99229 421.491383,366.000048 L526.508617,366.000048 C529.238121,365.999885 531.884106,366.941281 534,368.665352 L534,368.665352 Z" id="Path" fill="#FFFFFF" fill-rule="nonzero"></path>
                        <path d="M539,377.799129 L539,439.062058 C538.90118,445.613636 533.638794,450.900717 527.117815,451 L421.882185,451 C415.361206,450.900717 410.09882,445.613636 410,439.062058 L410,392.328253 C419.487326,392.328253 429.158872,394.734349 438.600143,395.706042 C445.211591,396.44638 451.884446,396.44638 458.495894,395.706042 C468.65738,395.225641 478.695146,393.261664 488.293467,389.875885 C497.596408,387.114535 505.900467,381.697194 512.196001,374.282526 C513.931998,371.838482 515.010705,368.985621 515.32774,366 L526.97965,366 C530.131002,366 533.153282,367.257744 535.381624,369.496542 C537.609966,371.735341 538.861835,374.771803 538.861835,377.937942 L539,377.799129 Z" id="Path" fill="url(#linearGradient-10)" fill-rule="nonzero" opacity="0.7" style="mix-blend-mode: overlay;"></path>
                        <g id="Group" opacity="0.1" transform="translate(185.000000, 37.000000)" fill="#000000" fill-rule="nonzero">
                            <rect id="Rectangle" x="16.9057605" y="0.430775785" width="69.1892431" height="30.2730762" rx="1.27"></rect>
                            <path d="M52.4216769,180.31561 L52.4216769,237.400664 C52.4339395,239.562749 51.5851865,241.640498 50.063424,243.173672 C48.5416614,244.706847 46.472502,245.568891 44.3142822,245.568857 L0.414582682,245.568857 C12.1150273,220.510502 37.5427651,196.513552 29.6196294,172.147417 L44.3142822,172.147417 C46.3268938,172.180395 48.2651815,172.914685 49.7959866,174.224076 C51.4641446,175.810671 52.4126859,178.011262 52.4216769,180.31561 L52.4216769,180.31561 Z" id="Path"></path>
                            <path d="M148.881247,93.0497758 L99.960491,93.0497758 C98.2230877,93.0750037 96.8279061,94.4932609 96.8280886,96.2339865 L96.8280886,122.538336 L96.8280886,122.538336 L96.8280886,124.845735 L96.8280886,124.845735 L96.8280886,127.660762 C96.8046098,128.9257 97.5527429,130.077348 98.716743,130.568085 C99.1287397,130.633689 99.5484943,130.633689 99.960491,130.568085 L148.881247,130.568085 C149.719965,130.580443 150.528589,130.25529 151.126029,129.665444 C151.72347,129.075599 152.059805,128.270346 152.059715,127.430022 L152.059715,96.4185785 C152.110493,95.5425703 151.798173,94.6843974 151.196503,94.0466974 C150.594833,93.4089973 149.757147,93.0483 148.881247,93.0497758 L148.881247,93.0497758 Z" id="Path"></path>
                            <rect id="Rectangle" x="167.952051" y="34.6725785" width="65.7343874" height="28.7501928" rx="1.14"></rect>
                        </g>
                        <path d="M306.78447,384.92634 C299.846226,377.323474 291.224233,371.439902 281.604388,367.743672 C280.965788,365.804929 280.486781,363.817502 280.172127,361.80114 C281.511985,361.248347 282.851842,360.741619 284.42271,360.004561 L285.346749,359.728164 L290.244159,350.514937 L289.135312,341.30171 C289.803181,342.360124 290.744854,343.219461 291.861229,343.789282 C291.879091,343.590059 291.879091,343.389645 291.861229,343.190422 L292.230845,343.190422 L293.709308,358.34618 L300.778212,363.643786 L307.569903,354.06203 L297.775083,338.077081 L292.461855,335.635576 C292.461855,335.082782 292.461855,334.760319 292.230845,334.576055 C291.999835,334.39179 289.643534,333.746864 288.673292,333.654732 L288.16507,333.654732 L283.544872,325.777423 L269.684277,322 L259.75085,325.316762 L254.299016,336.280502 L258.642002,342.729761 C257.942643,348.90426 258.412816,355.1548 260.028062,361.156214 C258.48348,361.143328 256.939819,361.235675 255.407864,361.432611 C253.819948,361.530802 252.259045,361.888754 250.787665,362.492132 C247.584735,363.488219 244.679657,365.260963 242.332702,367.651539 L220.61777,390.684607 L208.28184,386.077993 L209.113476,380.826454 L209.483091,378.615279 C209.720234,377.013916 208.76339,375.475786 207.219194,374.976055 L158.060283,357.378791 C157.098134,357.021367 156.026551,357.107788 155.134525,357.614748 C154.242498,358.121708 153.621896,358.996997 153.440085,360.004561 L152.469843,366.269555 L148.126857,395.014823 C147.889714,396.616186 148.846558,398.154317 150.390754,398.654048 L149.882532,398.654048 C149.154183,398.361287 148.321223,398.523778 147.757241,399.068643 C147.382294,399.258542 147.099373,399.590412 146.971807,399.989966 L145.724354,403.352794 C145.519063,403.914413 145.550573,404.534978 145.8117,405.073055 C146.072828,405.611131 146.541323,406.020872 147.110413,406.208894 L152.469843,408.189738 C151.684409,409.295325 150.898976,410.631243 150.06734,411.967161 C140.826943,427.491448 129.738467,455.545724 119.435425,478.256328 L122.207544,479.177651 L117.587345,484.705587 L113.844985,485.765108 L113.567773,485.765108 L99.7071775,489.127936 C92.8230819,492.721095 124.517643,499.861345 128.768225,496.774914 C130.759718,494.594948 130.759718,491.261837 128.768225,489.08187 L128.444812,489.08187 L128.444812,487.515621 L130.431497,481.987685 L132.279576,482.586545 L165.498803,435.967617 C176.290184,446.930749 188.767726,456.105879 202.46039,463.146636 L120.821484,511.00935 L122.068938,513.03626 L115.970276,515.569897 L112.181713,514.648575 C112.181713,514.648575 112.181713,514.648575 112.181713,514.372178 L98.5521279,510.456556 C94.2553434,510.456556 99.5685715,516.905815 106.083051,522.756214 C112.243316,523.063322 118.110968,523.477917 123.686007,524 L124.009421,523.262942 L127.104954,520.729304 L128.121398,522.249487 L210.499535,492.398632 C241.916884,487.331357 267.651389,481.250627 266.172926,470.240821 L287.70305,430.163284 C293.878388,424.189801 298.987544,417.210682 302.811099,409.525656 C305.754693,403.77821 308.137353,397.761943 309.926205,391.559863 C310.324926,388.918063 309.083909,386.297755 306.78447,384.92634 L306.78447,384.92634 Z M212.71723,437.395667 C208.097032,433.433979 203.476834,429.057697 198.856635,424.635348 L220.248154,432.23626 C218.004261,434.313827 215.466967,436.052118 212.71723,437.395667 Z M225.561382,425.648803 L215.766561,422.10171 L225.006958,424.681414 L226.162008,425.049943 C225.879465,425.220975 225.616147,425.421744 225.376574,425.648803 L225.561382,425.648803 Z M230.828408,414.3626 L228.010087,413.901938 L204.909095,409.848119 L205.694529,404.734778 L206.295155,400.588826 L213.687472,404.22805 L222.188637,408.374002 C225.887443,409.020757 229.696856,408.455065 233.046103,406.761688 C232.168266,409.387457 231.475236,411.921095 230.6436,414.3626 L230.828408,414.3626 Z" id="Shape" fill="#000000" fill-rule="nonzero" opacity="0.1"></path>
                        <path d="M251.99849,33.1194212 L251.99849,37.7879576 C252.02305,41.2914795 250.667586,44.659414 248.234163,47.141222 C245.800739,49.6230299 242.491574,51.0124729 239.044108,50.9999156 L195.862835,50.9999156 C192.431293,50.9875933 189.145807,49.5871803 186.732289,47.1080919 C184.318772,44.6290035 182.975883,41.2752962 183.000328,37.7879576 L183.000328,33.1194212 C183.023891,26.9828975 187.216048,21.6767598 193.106583,20.3276314 C194.017255,20.1651271 194.938533,20.0714995 195.862835,20.0475192 L239.044108,20.0475192 C239.300688,19.9841603 239.568466,19.9841603 239.825046,20.0475192 L239.825046,20.0475192 C246.701062,20.3254281 252.103657,26.1267605 251.99849,33.1194212 L251.99849,33.1194212 Z" id="Path" fill="#F7F7EF" fill-rule="nonzero"></path>
                        <path d="M221.069767,41.8589744 L221.069767,38.8974359 L216,38.8974359 L216,38.0512821 L220.883721,31 L222.465116,31 L222.465116,37.8632479 L224,37.8632479 L224,39.0384615 L222.465116,39.0384615 L222.465116,42 L221.069767,41.8589744 Z M221.069767,37.7222222 L221.069767,34.008547 C221.069767,33.4444444 221.069767,32.8803419 221.069767,32.2692308 L221.069767,32.2692308 C220.744186,32.9273504 220.465116,33.3974359 220.186047,33.9145299 L217.488372,37.6752137 L221.069767,37.6752137 L221.069767,37.7222222 Z" id="Shape" fill="#F851A7" fill-rule="nonzero"></path>
                        <path d="M225,39.1137201 C225.018023,37.7969772 225.85264,36.6411441 227.069182,36.2481788 L227.069182,36.2481788 C226.093289,35.8649832 225.43429,34.9153802 225.396226,33.8374853 C225.439923,33.0149722 225.808842,32.2471473 226.416554,31.7138959 C227.024267,31.1806444 227.817372,30.9288233 228.610063,31.0174288 C230.63522,31.0174288 231.603774,32.2910027 231.603774,33.6100614 C231.614131,34.7255057 230.944313,35.7271221 229.930818,36.1117245 L229.930818,36.1117245 C231.125418,36.4819395 231.958102,37.5984871 232,38.8862962 C231.956901,39.7897407 231.554044,40.6345354 230.886955,41.2203601 C230.219866,41.8061847 229.347961,42.0808626 228.477987,41.9792614 C226.320755,41.9792614 225,40.6602027 225,39.1137201 Z M230.591195,39.1137201 C230.591195,37.8401462 229.710692,37.2033592 228.301887,36.7939962 C227.251084,36.9883184 226.477993,37.9201615 226.45283,39.0227505 C226.437858,39.5824485 226.655781,40.1219378 227.051411,40.5045951 C227.447042,40.8872523 227.982438,41.0763795 228.522013,41.024081 C229.050554,41.0638812 229.57022,40.8674712 229.949133,40.4846949 C230.328047,40.1019186 230.529782,39.5695719 230.503145,39.0227505 L230.591195,39.1137201 Z M226.716981,33.5645767 C226.716981,34.6107266 227.509434,35.2020288 228.698113,35.5204223 C229.681271,35.4111867 230.444325,34.5843787 230.503145,33.5645767 C230.530263,33.0779701 230.351852,32.603117 230.014064,32.2628542 C229.676276,31.9225915 229.212292,31.7503443 228.742138,31.7906701 C228.233667,31.6768637 227.702889,31.8139377 227.306053,32.1615409 C226.909216,32.5091441 226.691495,33.0277068 226.716981,33.5645767 L226.716981,33.5645767 Z" id="Shape" fill="#F851A7" fill-rule="nonzero"></path>
                        <path d="M239.806457,32.1905603 L235.492505,32.1905603 L235.06111,34.9837981 L235.971833,34.9837981 C236.827713,34.9701399 237.671806,35.1756859 238.416406,35.5790783 C239.430734,36.1488977 240.037629,37.2030328 239.998188,38.3265252 C239.98789,39.3517575 239.533821,40.3271854 238.743809,41.0211697 C237.953797,41.7151539 236.898323,42.0657817 235.828035,41.9897878 C234.843679,42.0088716 233.87044,41.7882537 233,41.3487169 L233.383462,40.2497381 C234.113972,40.6452809 234.940433,40.8505582 235.780102,40.8450183 C236.465441,40.8956177 237.14223,40.6735923 237.650441,40.2314405 C238.158651,39.7892887 238.453163,39.1662662 238.464339,38.5096884 C238.464339,37.1359649 237.45775,36.1285677 235.252841,36.1285677 L233.671059,36.1285677 L234.390051,31 L239.806457,31 L239.806457,32.1905603 Z" id="Path" fill="#F851A7" fill-rule="nonzero"></path>
                        <path d="M206,44 L203.956663,44 C203.930517,42.0772541 202.909713,40.3072493 201.263174,39.3296703 C200.418517,39.7796725 199.47905,40.0198771 198.523246,40.0302198 C197.553502,40.013347 196.60043,39.7737253 195.736878,39.3296703 C194.090339,40.3072493 193.069535,42.0772541 193.043389,44 L191,44 C190.991239,41.6973853 192.10077,39.535456 193.972178,38.2087912 C192.689062,36.9994798 191.965377,35.3069299 191.975281,33.5384615 C191.99962,29.9737685 194.840089,27.0757623 198.383927,27 C200.095937,27.012342 201.732946,27.7081582 202.93481,28.9343673 C204.136674,30.1605765 204.804935,31.8167269 204.792574,33.5384615 C204.843879,35.3055164 204.13266,37.0085145 202.842116,38.2087912 C204.742983,39.5312332 205.913122,41.6771385 206,44 L206,44 Z" id="Path" fill="#4862C1" fill-rule="nonzero"></path>
                        <path d="M228.631268,31.1226795 C228.277671,32.4057751 228.106567,33.7315136 228.122911,35.0615033 C227.863542,38.5131876 228.352013,41.9799308 229.555556,45.229165 C230.592022,47.0978384 231.517874,49.0247077 232.328417,51 L195.772861,51 C196.525548,49.4322388 197.35849,47.9035741 198.268437,46.4199722 C200.66758,41.4376526 201.047995,35.7333772 199.331367,30.4814756 C198.681445,28.1207541 197.513709,25.9313183 195.911504,24.0694367 C195.080892,23.0180945 194.10008,22.0923568 193,21.32142 C193.916159,21.1619965 194.842989,21.070144 195.772861,21.0466183 L239.214356,21.0466183 C239.472482,20.9844606 239.741874,20.9844606 240,21.0466183 C237.490401,22.4577816 235.109128,24.0821538 232.882989,25.9014478 C231.002281,27.2149766 229.529605,29.0234629 228.631268,31.1226795 Z" id="Path" fill="url(#linearGradient-11)" fill-rule="nonzero" opacity="0.7" style="mix-blend-mode: overlay;"></path>
                        <path d="M217.99947,200.116325 L217.99947,256.883809 C218.011751,259.032129 217.161762,261.096651 215.637784,262.620064 C214.113805,264.143478 212.041633,265.000035 209.88027,265 L96.1653322,265 C91.6557438,265 88,261.366257 88,256.883809 L88,200.116325 C88,195.633877 91.6557438,192.000134 96.1653322,192.000134 L209.88027,192.000134 C212.045449,191.987695 214.124906,192.840284 215.651601,194.366414 C217.178296,195.892543 218.024252,197.964282 217.99947,200.116325 Z" id="Path" fill="#F8F7F2" fill-rule="nonzero"></path>
                        <path d="M217.99947,200.349137 L217.99947,203.603832 C218.01174,205.818134 217.163212,207.946725 215.640561,209.52132 C214.11791,211.095914 212.045868,211.987525 209.880278,212 L96.1654546,212 C93.9918594,212.000035 91.9079554,211.113939 90.3753271,209.537982 C88.8426988,207.962024 87.9878503,205.826285 88.0001305,203.603832 L88.0001305,200.349137 C88.0001305,195.738112 91.6558706,192.000138 96.1654546,192.000138 L209.880278,192.000138 C212.045455,191.987342 214.12491,192.864387 215.651603,194.434293 C217.178297,196.004198 218.024252,198.135364 217.99947,200.349137 Z" id="Path" fill="#4862C1" fill-rule="nonzero"></path>
                        <circle id="Oval" fill="#F8F7F2" fill-rule="nonzero" cx="105.5" cy="201.5" r="3.5"></circle>
                        <circle id="Oval" fill="#F8F7F2" fill-rule="nonzero" cx="116.5" cy="201.5" r="3.5"></circle>
                        <circle id="Oval" fill="#F8F7F2" fill-rule="nonzero" cx="127.5" cy="201.5" r="3.5"></circle>
                        <rect id="Rectangle" fill="url(#linearGradient-12)" opacity="0.942968786" x="98" y="223" width="33" height="11"></rect>
                        <rect id="Rectangle" fill="#FCDEEB" fill-rule="nonzero" x="98" y="243" width="79" height="5"></rect>
                        <rect id="Rectangle" fill="#FCDEEB" fill-rule="nonzero" x="98" y="251" width="79" height="5"></rect>
                        <path d="M216,193.880129 C211.679331,193.528874 207.343072,193.406424 203.009438,193.513295 C191.687063,194.770244 181.652132,201.367839 176.018447,211.258872 C175.288543,212.44163 174.629444,213.666556 174.044616,214.927209 C170.263253,223.576613 169.160143,233.158669 170.877306,242.439731 C171.174692,244.286951 171.604221,246.110505 172.162591,247.896382 C172.395749,248.905802 172.686951,249.900959 173.034749,250.876905 C173.083694,251.208602 173.176302,251.532384 173.310167,251.839843 C173.861004,253.398886 174.503647,254.820367 174.962677,256.425264 C176.116694,259.146484 176.784728,262.048565 176.936508,265 L113.81982,265 C112.089888,262.368613 110.802882,259.472059 110.009867,256.425264 C109.44966,254.63915 109.110514,252.791229 109,250.922759 C109,249.913967 109,248.905174 109,247.942236 C109,246.979298 109,246.841735 109,246.199776 C109.096839,244.950413 109.280898,243.709331 109.550837,242.485586 C110.087862,239.659551 111.030974,236.925892 112.350922,234.369391 C114.481506,230.161911 117.467657,226.444906 121.118404,223.456091 C123.27956,221.73425 125.655878,220.300728 128.187473,219.19165 C134.154869,216.57796 141.132132,215.752584 145.906049,211.442289 C146.173006,211.254981 146.419213,211.039779 146.640498,210.80033 C151.065685,205.606632 152.505033,198.504167 150.45045,192.000106 L210.675247,192.000106 C212.614821,191.990324 214.497368,192.654999 216,193.880129 L216,193.880129 Z" id="Path" fill="url(#linearGradient-13)" fill-rule="nonzero" opacity="0.7" style="mix-blend-mode: overlay;"></path>
                        <path d="M318.999989,116.20915 L318.999989,147.845319 C319.00008,148.690001 318.660482,149.499431 318.057246,150.092336 C317.45401,150.685241 316.637541,151.01208 315.790687,150.999658 L266.16279,150.999658 C265.737058,150.96748 265.316031,150.88972 264.906976,150.767722 C263.756335,150.245444 263.012857,149.106081 263,147.845319 L263,116.20915 C262.999816,114.459396 264.408532,113.033783 266.16279,113.008424 L315.558129,113.008424 C316.448813,112.943881 317.326184,113.252385 317.979333,113.859775 C318.632482,114.467165 319.002337,115.318508 318.999989,116.20915 L318.999989,116.20915 Z" id="Path" fill="#F7F7EF" fill-rule="nonzero"></path>
                        <rect id="Rectangle" fill="#FCDEEB" fill-rule="nonzero" x="263" y="143" width="55" height="2"></rect>
                        <rect id="Rectangle" fill="url(#linearGradient-14)" opacity="0.942968786" x="263" y="143" width="36" height="2"></rect>
                        <path d="M282.000257,133.902983 L282.000257,124.346477 C281.985552,123.190285 282.603753,122.110753 283.630543,121.499592 C284.657334,120.888432 285.94351,120.834452 287.022379,121.357238 L297.019244,125.886388 C298.228639,126.432794 299,127.596886 299,128.875626 C299,130.154367 298.228639,131.318459 297.019244,131.864865 L287.022379,136.665764 C285.978446,137.148314 284.752452,137.106225 283.747418,136.553333 C282.742383,136.000441 282.088327,135.008273 282.000257,133.902983 L282.000257,133.902983 Z" id="Path" fill="#4862C1" fill-rule="nonzero"></path>
                        <circle id="Oval" fill="#4862C1" fill-rule="nonzero" cx="298" cy="144" r="2"></circle>
                        <path d="M298,144.92 L298,145.841212 C297.785838,147.558454 297.04487,149.167413 295.878788,150.447273 L295.325428,151 L266.135705,151 C265.713618,150.968048 265.296197,150.890836 264.890646,150.769697 C264.884582,149.308274 265.390263,147.890726 266.320158,146.762424 C266.941158,146.026165 267.711242,145.42964 268.57971,145.012121 C271.039509,144.074431 273.61403,143.470265 276.234519,143.215758 L278.355731,142.709091 C280.499872,142.202644 282.491899,141.191977 284.166008,139.761212 C285.012315,139.019883 285.715607,138.130066 286.241107,137.135758 C287.150649,135.562323 287.446248,133.708743 287.071146,131.930909 C286.277515,129.282632 284.402189,127.091677 281.906456,125.89697 C281.561987,125.66749 281.190212,125.481815 280.799736,125.344242 C275.60541,123.369841 270.291888,121.723763 264.890646,120.415758 L263,119.678788 L263,116.178182 C262.999817,114.440752 264.39647,113.02518 266.135705,113 L294.034256,113 C293.16409,114.420631 292.54047,115.9779 292.189723,117.606061 C291.837417,119.55027 291.71361,121.528922 291.820817,123.501818 C291.820817,124.100606 291.820817,124.745455 291.820817,125.344242 C291.958518,127.083293 292.236094,128.808456 292.650856,130.50303 C292.943438,131.461436 293.297712,132.399956 293.711462,133.312727 L294.310935,134.602424 C295.325428,136.997576 296.247694,139.208485 297.077734,141.741818 C297.077734,141.741818 297.077734,142.110303 297.077734,142.340606 C297.077734,142.570909 297.077734,142.340606 297.077734,142.61697 C297.476757,143.344808 297.786417,144.118071 298,144.92 L298,144.92 Z" id="Path" fill="url(#linearGradient-15)" fill-rule="nonzero" opacity="0.7" style="mix-blend-mode: overlay;"></path>
                        <path d="M400,65.7093951 L400,71.2997854 C399.987799,74.4215076 398.741743,77.4097868 396.537281,79.6040428 C394.332819,81.7982988 391.351505,83.0178185 388.252378,82.9930186 L345.331934,82.9930186 C344.702796,83.0277503 344.073248,82.9326317 343.481915,82.7134991 C337.965301,81.7745295 333.945103,76.9349878 334.000567,71.2997854 L334.000567,65.7093951 C334.011579,62.9949844 334.941551,60.3655664 336.636844,58.2555413 C338.051983,56.5507659 339.933943,55.3032103 342.04815,54.6683741 C343.163919,54.1592342 344.387153,53.9352118 345.609437,54.0161619 L388.252378,54.0161619 C391.351505,53.991362 394.332819,55.2108817 396.537281,57.4051377 C398.741743,59.5993937 399.987799,62.5876729 400,65.7093951 L400,65.7093951 Z" id="Path" fill="#F7F7EF" fill-rule="nonzero"></path>
                        <path d="M354.033703,61.092417 C349.86417,60.4462671 348.927197,63.4000952 348.927197,63.4000952 C348.927197,63.4000952 347.990223,60.4462671 343.82069,61.092417 C339.651158,61.7385669 336.137507,68.4308337 348.927197,79 C361.763735,68.5692944 358.531176,61.9231812 354.033703,61.092417 Z" id="Path" fill="#4862C1" fill-rule="nonzero"></path>
                        <rect id="Rectangle" fill="url(#linearGradient-16)" opacity="0.942968786" x="364" y="62" width="16" height="4"></rect>
                        <rect id="Rectangle" fill="#FCDEEB" fill-rule="nonzero" x="364" y="70" width="29" height="4"></rect>
                        <path d="M381.781574,83 L345.573255,83 C346.173493,80.9986979 346.645715,78.9596235 346.986929,76.8956877 C347.243372,73.3870293 346.379304,69.888017 344.524399,66.9237576 C342.791436,63.9212561 340.552907,61.2552631 337.912048,59.0487287 C337.638434,58.7691418 337.228012,58.5361528 337,58.256566 C338.39531,56.5513801 340.2509,55.3035241 342.335483,54.6685351 C343.435618,54.1592726 344.641712,53.9351962 345.846869,54.0161658 L377.221332,54.0161658 C377.221332,54.0161658 377.221332,54.0161658 377.221332,54.0161658 C374.893487,57.679898 374.013367,62.1099322 374.758802,66.4111817 C374.979492,67.2790651 375.285046,68.1220678 375.67085,68.9274631 C376.532705,70.0875778 377.545277,71.1222514 378.68061,72.0029182 C381.367229,74.955951 382.518562,79.0389722 381.781574,83 Z" id="Path" fill="url(#linearGradient-17)" fill-rule="nonzero" opacity="0.7" style="mix-blend-mode: overlay;"></path>
                        <polygon id="Path" fill="#F4BC84" fill-rule="nonzero" points="114.772894 506 107.538462 510.342857 96 509.154286 114.910256 522 116.421245 516.788571 121 511.805714"></polygon>
                        <path d="M116.634862,517.751608 C111.413176,516.752863 106.836103,513.578616 104.005125,508.992755 L90.3759114,507 C82.7889828,507.74149 108.82078,526.232402 113.863589,524.934794 C116.461072,523.623945 117.659845,520.516705 116.634862,517.751608 L116.634862,517.751608 Z" id="Path" fill="#131F77" fill-rule="nonzero"></path>
                        <path d="M240.286902,344.745926 C227.375527,365.218027 212.150286,390.280285 197.248986,388.94914 L154.766398,375.178668 L127,366.411468 L129.036202,358.28689 L157.913256,364.254094 L193.176581,371.598345 L211.456126,345.985268 C220.57276,333.545942 245.51624,334.877088 240.286902,344.745926 Z" id="Path" fill="#F4BC84" fill-rule="nonzero"></path>
                        <path d="M249.752175,444.29704 C252.747789,454.955316 228.183752,464.602893 197.858917,473.974826 L120.710325,515 L112,504.847073 L191.08422,441.816234 C204.6797,433.868468 221.08645,426.793578 234.036721,431.525485 L249.752175,444.29704 Z" id="Path" fill="url(#linearGradient-18)" opacity="0.942968786"></path>
                        <polygon id="Path" fill="#F4BC84" fill-rule="nonzero" points="108.752988 472 104.583665 478.768966 94 483.341379 117 485 115.579681 479.844828 116.908367 473.389655"></polygon>
                        <path d="M116.841505,481.157512 C111.651806,483.019203 105.950496,482.600838 101.067409,480 L87.8134342,485.49818 C81.4664605,490.321145 114.228046,493.022005 118.008228,489.163633 C119.692185,486.587222 119.185029,483.10709 116.841505,481.157512 L116.841505,481.157512 Z" id="Path" fill="#131F77" fill-rule="nonzero"></path>
                        <path d="M224,448.975362 C192.961976,454.337455 166.642101,439.406801 145.780478,424.152573 L119.414347,475 L106,472.688753 C115.251274,440.3313 125.150137,398.728859 133.753822,390.547046 C146.01176,382.827482 171.684045,405.801274 193.378283,419.622529 L224,448.975362 Z" id="Path" fill="url(#linearGradient-19)" opacity="0.942968786"></path>
                        <path d="M191,419.551905 C191,432.732557 234.660164,445.590606 249.675565,443.839331 L281,358.441607 C277.62731,344.984437 228.053388,329.960337 217.519507,340.606249 C201.302875,362.958054 217.565708,402.63827 191,419.551905 Z" id="Path" fill="url(#linearGradient-20)" fill-rule="nonzero"></path>
                        <path d="M234.725333,347.290292 C236.312,344.783025 234.952,337.586239 234,330.993055 L245.832,327 C246.723997,332.348026 248.470038,337.509035 251,342.275757 C247.146667,350.122575 237.717333,352.351257 234.725333,347.290292 Z" id="Path" fill="#F4BC84" fill-rule="nonzero"></path>
                        <path d="M229.614782,339.856227 C232.508761,342.071283 237.176469,341.794401 252.393198,332.380411 L253,306.030468 L226.347386,304 C221.773032,313.460137 224.433626,332.334264 229.614782,339.856227 Z" id="Path" fill="#F4BC84" fill-rule="nonzero"></path>
                        <polygon id="Path" fill="#2A195B" fill-rule="nonzero" points="219 313.159314 224.550459 319.352941 238.862385 315.720588 237.944954 322.566176 240.100917 323.357843 242.807339 317.397059 245.880734 321.401961 241.33945 327.828431 247.394495 335 252.853211 332.205882 256.385321 322.333333 254.045872 313.438725 257.440367 315.161765 261.018349 330.063725 268.678899 334.394608 274 323.823529 262.119266 309.20098 252.119266 306.127451 246.385321 298.816176 232.486239 297 223.12844 301.656863"></polygon>
                        <path d="M252,306.151877 C253.240775,308.255001 253.907487,310.619026 253.93948,313.028883 C254.767311,313.895677 255.794343,314.570122 256.941057,315 C257.129625,312.059157 256.865168,309.107946 256.15603,306.239482 C255.186289,305.757653 252,306.151877 252,306.151877 Z" id="Path" fill="#F851A7" fill-rule="nonzero"></path>
                        <path d="M249.46285,410.945785 L202.882867,404.583378 L177,401.03334 L177.550699,392.550131 L204.489073,393.426114 L245.286713,394.670933 L258.365822,362.397855 C262.358392,354.145168 281.311626,347.413926 282,359.862113 C277.456731,390.33712 260.88986,412.236708 249.46285,410.945785 Z" id="Path" fill="#F4BC84" fill-rule="nonzero"></path>
                        <polygon id="Path" fill="#F4BC84" fill-rule="nonzero" points="179 393.537313 174.973856 390 165 394.835821 176.254902 402 178.496732 401.731343"></polygon>
                        <path d="M180.724466,396.622854 C180.693512,397.658252 180.208261,398.62597 179.400509,399.263175 C178.592757,399.90038 177.546362,400.140918 176.545527,399.91946 L125.755344,389.333177 C124.176551,389.007672 123.031961,387.618951 123,385.990141 L123.275534,356.738572 L123.275534,350.331085 C123.319706,349.303943 123.81053,348.34903 124.61651,347.722178 C125.42249,347.095326 126.461242,346.86061 127.454473,347.080911 L178.244656,357.620762 C179.823449,357.946268 180.968039,359.334988 181,360.963799 L181,363.19249 L180.724466,396.622854 Z" id="Path" fill="#E6E6E6" fill-rule="nonzero"></path>
                        <path d="M152.820115,377.960279 L148.085939,377.038573 C146.859559,376.724746 146.004221,375.646102 146.002902,374.411712 L146.002902,369.803183 C145.970837,369.261028 146.205973,368.736426 146.636061,368.390565 C147.066149,368.044704 147.639751,367.918951 148.180623,368.051942 L152.914799,368.973648 C154.133828,369.268799 154.99166,370.331609 154.997836,371.554424 L154.997836,376.162953 C155.025242,376.706911 154.791119,377.232319 154.364387,377.584512 C153.937655,377.936704 153.366891,378.075588 152.820115,377.960279 Z" id="Path" fill="#FFFFFF" fill-rule="nonzero"></path>
                        <path d="M206.951958,408.644992 L206.210287,412.216904 C205.891632,413.435647 204.696215,414.195737 203.475373,413.95586 L122.818611,397.130278 C122.221955,397.017889 121.696464,396.663279 121.363886,396.148602 C121.031307,395.633926 120.920502,395.003848 121.057142,394.404345 L121.798813,390.879433 C121.866727,390.444696 122.079387,390.046636 122.401421,389.751461 C122.940217,389.152249 123.750114,388.884481 124.533727,389.046478 L205.190489,405.91906 C205.780789,406.043358 206.298131,406.400506 206.628534,406.911816 C206.958937,407.423125 207.07529,408.046642 206.951958,408.644992 L206.951958,408.644992 Z" id="Path" fill="#F4F4F4" fill-rule="nonzero"></path>
                        <path d="M175.18735,408 L122.798222,397.096725 C122.208255,396.985776 121.688656,396.635707 121.359806,396.127622 C121.030956,395.619537 120.921393,394.997529 121.056501,394.405704 L121.789857,390.925936 C121.85701,390.496767 122.067286,390.103804 122.385709,389.81241 L122.385709,389.81241 C123.302404,389.81241 124.2191,389.487631 125.135795,389.34844 C126.030464,389.227514 126.917928,389.057137 127.794211,388.838074 C131.655144,387.304464 134.186713,383.525063 134.165242,379.326707 C134.116201,375.240027 132.783832,371.275144 130.360957,368.00586 C128.160889,364.618885 125.456638,361.556689 123.25657,358.123317 L122.385709,356.73141 L122.385709,350.328635 C122.429796,349.302248 122.919684,348.348038 123.724125,347.721647 C124.528567,347.095256 125.565336,346.860712 126.556672,347.080851 L177.249915,357.612951 C178.825695,357.938217 179.9681,359.325916 180,360.953529 L180,363.180581 C178.338441,362.418495 176.550676,361.977874 174.729003,361.881467 C169.434333,361.354179 164.242743,363.613942 160.978575,367.866669 C159.598275,370.035828 158.61978,372.441318 158.090986,374.965397 C156.578926,379.231714 157.12141,383.968022 159.557698,387.770945 C161.76433,389.673034 164.235282,391.236319 166.891259,392.410637 C169.65301,394.088159 171.929463,396.472545 173.491464,399.323777 C174.029346,400.282525 174.430555,401.313469 174.683168,402.385973 C175.275205,404.193227 175.447733,406.114303 175.18735,408 Z" id="Path" fill="url(#linearGradient-21)" fill-rule="nonzero" opacity="0.5" style="mix-blend-mode: overlay;"></path>
                    </g>
                </g>
            </g>
        </g>
    </g>
</svg>