<?xml version="1.0" encoding="UTF-8"?>
<svg width="42px" height="40px" viewBox="0 0 42 40" version="1.1" xmlns="http://www.w3.org/2000/svg" xmlns:xlink="http://www.w3.org/1999/xlink">
    <!-- Generator: Sketch 55 (78076) - https://sketchapp.com -->
    <title>LOGO</title>
    <desc>Created with Sketch.</desc>
    <g id="Page-1" stroke="none" stroke-width="1" fill="none" fill-rule="evenodd">
        <g id="Desktop" transform="translate(-215.000000, -20.000000)" fill="#FFFFFF" fill-rule="nonzero">
            <g id="HEADER">
                <g id="Header-Menus">
                    <g id="LOGO" transform="translate(215.000000, 20.000000)">
                        <g id="Group" transform="translate(1.000000, 0.000000)">
                            <path d="M20.0128538,18.1978799 L28.8948032,9.27529446 C32.2729805,5.88166154 29.8816865,0.0857940906 25.1085876,0.0857940906 L25.1085876,0.0857940906 C24.1501721,0.0857940906 23.239203,0.46710116 22.5559761,1.14392121 L20.0033646,3.70821125 L17.3938175,1.08672515 C16.7200799,0.409905099 15.7996214,0.0285980302 14.841206,0.0285980302 L14.841206,0.0285980302 C10.0870856,0.0285980302 7.69579159,5.79586745 11.0549904,9.17996769 L20.0128538,18.1978799 Z" id="Path"></path>
                            <path d="M21.9107063,20.1044152 L30.7926556,29.0270006 C34.1708329,32.4206336 39.9403043,30.018399 39.9403043,25.2234626 L39.9403043,25.2234626 C39.9403043,24.2606623 39.5607338,23.3455253 38.8869962,22.6591726 L36.3343847,20.0948826 L38.9439318,17.4733964 C39.6176694,16.7965764 39.9972399,15.8719068 39.9972399,14.9091064 L39.9972399,14.9091064 C39.9972399,10.1332354 34.2562363,7.73100083 30.8875482,11.1055684 L21.9107063,20.1044152 Z" id="Path"></path>
                            <path d="M18.0960229,20.1044152 L9.21407353,11.1818298 C5.83589621,7.78819689 0.0664248349,10.1904314 0.0664248349,14.9853678 L0.0664248349,14.9853678 C0.0664248349,15.9481682 0.44599532,16.8633051 1.11973293,17.5496579 L3.67234445,20.1139479 L1.06279736,22.735434 C0.389059747,23.4122541 0.00948926213,24.3369237 0.00948926213,25.299724 L0.00948926213,25.299724 C0.00948926213,30.0755951 5.75049285,32.4778296 9.11918091,29.1032621 L18.0960229,20.1044152 Z" id="Path"></path>
                            <polygon id="Path" points="13.7499408 30.9716667 20.0128538 24.6801001 26.2757668 30.9716667 29.8816865 30.9716667 20.0128538 21.0576829 10.1440212 30.9716667"></polygon>
                        </g>
                        <g id="Group" transform="translate(0.000000, 32.000000)">
                            <polygon id="Path" points="2.76671622 5.05393147 2.00766458 5.91080709 2.00766458 7.80390439 0.0116399089 7.80390439 0.0116399089 0.211587864 2.00766458 0.211587864 2.00766458 3.37007125 4.7721119 0.211587864 6.99304077 0.211587864 4.07865732 3.56934465 7.1523479 7.80390439 4.80959594 7.80390439"></polygon>
                            <polygon id="Path" points="7.42410713 0.211587864 9.44824483 0.211587864 9.44824483 6.10011682 12.8592917 6.10011682 12.8592917 7.80390439 7.43347814 7.80390439 7.43347814 0.211587864"></polygon>
                            <path d="M14.8459454,7.44521227 C14.2462009,7.10644749 13.7682795,6.638155 13.4309232,6.03037113 C13.0841959,5.43255093 12.9155177,4.75502137 12.9155177,3.99778246 C12.9155177,3.25050721 13.0841959,2.57297765 13.4309232,1.96519378 C13.7776505,1.36737358 14.2462009,0.899081093 14.8459454,0.550352643 C15.4456899,0.211587864 16.1297734,0.0422054744 16.8794541,0.0422054744 C17.6291347,0.0422054744 18.3132183,0.211587864 18.9129628,0.550352643 C19.5127073,0.889117423 19.9906287,1.35740991 20.327985,1.96519378 C20.6747123,2.56301398 20.8433904,3.24054354 20.8433904,3.99778246 C20.8433904,4.7450577 20.6747123,5.42258726 20.327985,6.03037113 C19.9812577,6.62819133 19.5127073,7.09648382 18.9129628,7.44521227 C18.3132183,7.78397705 17.6291347,7.95335944 16.8794541,7.95335944 C16.1297734,7.95335944 15.4456899,7.79394072 14.8459454,7.44521227 Z M17.8634099,5.91080709 C18.1539111,5.73146103 18.3881863,5.47240561 18.5568645,5.1436045 C18.7255426,4.81480339 18.8098817,4.43618394 18.8098817,4.00774613 C18.8098817,3.57930832 18.7255426,3.20068886 18.5568645,2.87188775 C18.3881863,2.54308664 18.1539111,2.28403122 17.8634099,2.10468516 C17.5729086,1.9253391 17.2449234,1.83566607 16.8888251,1.83566607 C16.5327268,1.83566607 16.2047415,1.9253391 15.9142403,2.10468516 C15.623739,2.28403122 15.3894638,2.54308664 15.2207857,2.87188775 C15.0521075,3.20068886 14.9677685,3.57930832 14.9677685,4.00774613 C14.9677685,4.43618394 15.0521075,4.81480339 15.2207857,5.1436045 C15.3894638,5.47240561 15.623739,5.73146103 15.9142403,5.91080709 C16.2047415,6.09015315 16.5327268,6.17982618 16.8888251,6.17982618 C17.2449234,6.17982618 17.5729086,6.09015315 17.8634099,5.91080709 Z" id="Shape"></path>
                            <polygon id="Path" points="28.658811 0.211587864 25.5944914 7.80390439 23.6078377 7.80390439 20.5622602 0.211587864 22.745705 0.211587864 24.6855036 5.15356817 26.6627863 0.211587864"></polygon>
                            <polygon id="Path" points="34.5531749 6.14993517 34.5531749 7.81386806 28.8181181 7.81386806 28.8181181 0.221551534 34.4219808 0.221551534 34.4219808 1.88548442 30.8235138 1.88548442 30.8235138 3.16083418 34.0002854 3.16083418 34.0002854 4.76498504 30.8235138 4.76498504 30.8235138 6.14993517"></polygon>
                            <path d="M38.5358532,5.79124305 L37.4394453,5.79124305 L37.4394453,7.80390439 L35.4153076,7.80390439 L35.4153076,0.211587864 L38.6764184,0.211587864 C39.3230179,0.211587864 39.8852784,0.321188234 40.3631998,0.550352643 C40.8411212,0.779517053 41.2065905,1.10831816 41.4689787,1.5267923 C41.7313669,1.94526644 41.85319,2.44344994 41.85319,3.0213428 C41.85319,3.56934465 41.7313669,4.04760081 41.4877207,4.45611128 C41.2440745,4.86462174 40.8973472,5.18345918 40.4569099,5.41262359 L41.9937551,7.79394072 L39.8290523,7.79394072 L38.5358532,5.79124305 Z M39.5010671,2.20432186 C39.2855339,2.00504846 38.9762906,1.91537543 38.5639663,1.91537543 L37.4394453,1.91537543 L37.4394453,4.13727384 L38.5639663,4.13727384 C38.9762906,4.13727384 39.2949049,4.03763714 39.5010671,3.84832741 C39.7072292,3.65901768 39.8196813,3.38003492 39.8196813,3.03130647 C39.8103103,2.67261435 39.7072292,2.39363159 39.5010671,2.20432186 Z" id="Shape"></path>
                        </g>
                    </g>
                </g>
            </g>
        </g>
    </g>
</svg>