<?xml version="1.0" encoding="UTF-8"?>
<svg width="60px" height="60px" viewBox="0 0 60 60" version="1.1" xmlns="http://www.w3.org/2000/svg" xmlns:xlink="http://www.w3.org/1999/xlink">
    <!-- Generator: Sketch 55 (78076) - https://sketchapp.com -->
    <title>room-service</title>
    <desc>Created with Sketch.</desc>
    <defs>
        <linearGradient x1="50%" y1="0%" x2="44.379916%" y2="162.371208%" id="linearGradient-1">
            <stop stop-color="#FF4D7B" offset="0%"></stop>
            <stop stop-color="#ED8B6B" offset="100%"></stop>
        </linearGradient>
    </defs>
    <g id="Page-1" stroke="none" stroke-width="1" fill="none" fill-rule="evenodd">
        <g id="Desktop" transform="translate(-257.000000, -3236.000000)" fill="url(#linearGradient-1)" fill-rule="nonzero">
            <g id="Services" transform="translate(213.000000, 2854.000000)">
                <g id="Block-1" transform="translate(4.000000, 342.000000)">
                    <g id="room-service" transform="translate(70.000000, 70.000000) scale(-1, 1) translate(-70.000000, -70.000000) translate(40.000000, 40.000000)">
                        <path d="M58.0645161,27.0967742 L54.9832258,27.0967742 C55.0916129,26.7929032 55.1612903,26.4696774 55.1612903,26.1290323 C55.1612903,24.8545161 54.33,23.7803226 53.1851613,23.3912903 C52.8154839,18.4683871 49.0896774,14.4783871 44.2906452,13.6983871 C44.4358065,13.3548387 44.516129,12.9764516 44.516129,12.5806452 C44.516129,10.98 43.2135484,9.67741935 41.6129032,9.67741935 C40.0122581,9.67741935 38.7096774,10.98 38.7096774,12.5806452 C38.7096774,12.9764516 38.79,13.3548387 38.9351613,13.6993548 C34.136129,14.4793548 30.4103226,18.4693548 30.0406452,23.3922581 C28.8958065,23.7803226 28.0645161,24.8545161 28.0645161,26.1290323 C28.0645161,26.4696774 28.1341935,26.7929032 28.2425806,27.0967742 L24.1935484,27.0967742 L24.1935484,21.2903226 L24.4867742,21.2903226 L29.1154839,18.2051613 C30.2748387,17.4309677 30.9677419,16.1370968 30.9677419,14.7435484 C30.9677419,14.546129 30.9541935,14.3496774 30.926129,14.1551613 L28.9035484,0 L17.5480645,0 L15.5264516,14.1522581 C15.4974194,14.3487097 15.483871,14.5451613 15.483871,14.7425806 C15.483871,16.136129 16.1767742,17.43 17.336129,18.2041935 L21.9648387,21.2903226 L22.2580645,21.2903226 L22.2580645,27.0967742 L13.2522581,27.0967742 C12.7770968,27.0967742 12.3754839,26.756129 12.2980645,26.2887097 L11.306129,20.336129 C10.8377419,17.523871 8.42903226,15.483871 5.57903226,15.483871 L2.90322581,15.483871 C1.30258065,15.483871 0,16.7864516 0,18.3870968 C0,19.9877419 1.30258065,21.2903226 2.90322581,21.2903226 L5.13483871,21.2903226 C5.61,21.2903226 6.0116129,21.6309677 6.08903226,22.0983871 L7.08096774,28.0509677 C7.4816129,30.4577419 9.30870968,32.2877419 11.6129032,32.7687097 L11.6129032,49.1767742 C9.83419355,50.2064516 8.70967742,52.106129 8.70967742,54.1935484 C8.70967742,57.3958065 11.313871,60 14.516129,60 C17.7183871,60 20.3225806,57.3958065 20.3225806,54.1935484 C20.3225806,52.0993548 19.2,50.2025806 17.4193548,49.173871 L17.4193548,48.4790323 C18.596129,48.6996774 19.3122581,49.3219355 20.163871,50.0777419 C21.3125806,51.1006452 22.6151613,52.2580645 25.1603226,52.2580645 C27.7045161,52.2580645 29.0080645,51.0996774 30.1558065,50.0777419 C31.2193548,49.1332258 32.0574194,48.3870968 33.866129,48.3870968 C35.6758065,48.3870968 36.5158065,49.1332258 37.5793548,50.0777419 C38.73,51.1006452 40.0325806,52.2580645 42.5787097,52.2580645 C45.1248387,52.2580645 46.4283871,51.1006452 47.5770968,50.0777419 C48.4287097,49.3219355 49.1448387,48.6996774 50.3225806,48.4790323 L50.3225806,49.1767742 C48.543871,50.2064516 47.4193548,52.106129 47.4193548,54.1935484 C47.4193548,57.3958065 50.0235484,60 53.2258065,60 C56.4280645,60 59.0322581,57.3958065 59.0322581,54.1935484 C59.0322581,52.0993548 57.9096774,50.2025806 56.1290323,49.173871 L56.1290323,32.9032258 L58.0645161,32.9032258 C59.1319355,32.9032258 60,32.0351613 60,30.9677419 L60,29.0322581 C60,27.9648387 59.1319355,27.0967742 58.0645161,27.0967742 Z M18.4093548,16.593871 C17.79,16.1806452 17.4193548,15.4887097 17.4193548,14.7425806 C17.4193548,14.6380645 17.4270968,14.5335484 17.4416129,14.4280645 L19.226129,1.93548387 L27.2254839,1.93548387 L29.0109677,14.43 C29.0245161,14.5345161 29.0322581,14.6380645 29.0322581,14.7425806 C29.0322581,15.4887097 28.6616129,16.1796774 28.0422581,16.593871 L23.9003226,19.3548387 L22.5503226,19.3548387 L18.4093548,16.593871 Z M41.6129032,11.6129032 C42.1470968,11.6129032 42.5806452,12.0464516 42.5806452,12.5806452 C42.5806452,13.1148387 42.1470968,13.5483871 41.6129032,13.5483871 C41.0787097,13.5483871 40.6451613,13.1148387 40.6451613,12.5806452 C40.6451613,12.0464516 41.0787097,11.6129032 41.6129032,11.6129032 Z M40.6451613,15.483871 L42.5806452,15.483871 C47.0564516,15.483871 50.7503226,18.8777419 51.2332258,23.2258065 L31.9925806,23.2258065 C32.4754839,18.8777419 36.1693548,15.483871 40.6451613,15.483871 Z M30,26.1290323 C30,25.5948387 30.4335484,25.1612903 30.9677419,25.1612903 L52.2580645,25.1612903 C52.7922581,25.1612903 53.2258065,25.5948387 53.2258065,26.1290323 C53.2258065,26.6632258 52.7922581,27.0967742 52.2580645,27.0967742 L30.9677419,27.0967742 C30.4335484,27.0967742 30,26.6632258 30,26.1290323 Z M13.5483871,32.9032258 L15.483871,32.9032258 L15.483871,53.2258065 C15.483871,53.76 15.0503226,54.1935484 14.516129,54.1935484 C13.9819355,54.1935484 13.5483871,53.76 13.5483871,53.2258065 L13.5483871,32.9032258 Z M18.3870968,54.1935484 C18.3870968,56.3283871 16.6509677,58.0645161 14.516129,58.0645161 C12.3812903,58.0645161 10.6451613,56.3283871 10.6451613,54.1935484 C10.6451613,53.2316129 11.0012903,52.3267742 11.6129032,51.6329032 L11.6129032,53.2258065 C11.6129032,54.8264516 12.9154839,56.1290323 14.516129,56.1290323 C16.1167742,56.1290323 17.4193548,54.8264516 17.4193548,53.2258065 L17.4193548,51.6329032 C18.03,52.3258065 18.3870968,53.2287097 18.3870968,54.1935484 Z M46.2919355,48.6319355 C45.2283871,49.5764516 44.3883871,50.3225806 42.5787097,50.3225806 C40.7680645,50.3225806 39.9280645,49.5764516 38.8645161,48.6309677 C37.7158065,47.6090323 36.4122581,46.4516129 33.866129,46.4516129 C31.3219355,46.4516129 30.0183871,47.61 28.8706452,48.6319355 C27.8070968,49.5764516 26.9690323,50.3225806 25.1603226,50.3225806 C23.3516129,50.3225806 22.5125806,49.5764516 21.4490323,48.6319355 C20.456129,47.7493548 19.3441935,46.7680645 17.4193548,46.5164516 L17.4193548,32.9032258 L50.3225806,32.9032258 L50.3225806,46.5164516 C48.3967742,46.7670968 47.2848387,47.7483871 46.2919355,48.6319355 Z M57.0967742,54.1935484 C57.0967742,56.3283871 55.3606452,58.0645161 53.2258065,58.0645161 C51.0909677,58.0645161 49.3548387,56.3283871 49.3548387,54.1935484 C49.3548387,53.2316129 49.7109677,52.3267742 50.3225806,51.6329032 L50.3225806,53.2258065 C50.3225806,54.8264516 51.6251613,56.1290323 53.2258065,56.1290323 C54.8264516,56.1290323 56.1290323,54.8264516 56.1290323,53.2258065 L56.1290323,51.6329032 C56.7396774,52.3258065 57.0967742,53.2287097 57.0967742,54.1935484 Z M54.1935484,53.2258065 C54.1935484,53.76 53.76,54.1935484 53.2258065,54.1935484 C52.6916129,54.1935484 52.2580645,53.76 52.2580645,53.2258065 L52.2580645,32.9032258 L54.1935484,32.9032258 L54.1935484,53.2258065 Z M58.0645161,30.9677419 L12.8080645,30.9677419 C10.9074194,30.9677419 9.30193548,29.6080645 8.99032258,27.7335484 L7.9983871,21.7809677 C7.76419355,20.3758065 6.56032258,19.3548387 5.13483871,19.3548387 L2.90322581,19.3548387 C2.36903226,19.3548387 1.93548387,18.9212903 1.93548387,18.3870968 C1.93548387,17.8529032 2.36903226,17.4193548 2.90322581,17.4193548 L5.57903226,17.4193548 C7.47967742,17.4193548 9.08516129,18.7790323 9.39677419,20.6535484 L10.3887097,26.606129 C10.6229032,28.0112903 11.8267742,29.0322581 13.2522581,29.0322581 L30.9677419,29.0322581 L52.2580645,29.0322581 L58.0645161,29.0322581 L58.0645161,30.9677419 Z M21.2903226,34.8387097 L23.2258065,34.8387097 L23.2258065,36.7741935 L21.2903226,36.7741935 L21.2903226,34.8387097 Z M27.0967742,34.8387097 L29.0322581,34.8387097 L29.0322581,36.7741935 L27.0967742,36.7741935 L27.0967742,34.8387097 Z M32.9032258,34.8387097 L34.8387097,34.8387097 L34.8387097,36.7741935 L32.9032258,36.7741935 L32.9032258,34.8387097 Z M38.7096774,34.8387097 L40.6451613,34.8387097 L40.6451613,36.7741935 L38.7096774,36.7741935 L38.7096774,34.8387097 Z M46.4516129,34.8387097 L46.4516129,36.7741935 L44.516129,36.7741935 L44.516129,34.8387097 L46.4516129,34.8387097 Z" id="Shape"></path>
                    </g>
                </g>
            </g>
        </g>
    </g>
</svg>