<?xml version="1.0" encoding="UTF-8"?>
<svg width="60px" height="60px" viewBox="0 0 60 60" version="1.1" xmlns="http://www.w3.org/2000/svg" xmlns:xlink="http://www.w3.org/1999/xlink">
    <!-- Generator: Sketch 55 (78076) - https://sketchapp.com -->
    <title>tools</title>
    <desc>Created with Sketch.</desc>
    <defs>
        <linearGradient x1="50%" y1="100%" x2="50%" y2="0%" id="linearGradient-1">
            <stop stop-color="#EE4A5A" offset="0%"></stop>
            <stop stop-color="#F77062" offset="100%"></stop>
        </linearGradient>
    </defs>
    <g id="Page-1" stroke="none" stroke-width="1" fill="none" fill-rule="evenodd">
        <g id="Desktop" transform="translate(-662.000000, -3467.000000)" fill="url(#linearGradient-1)" fill-rule="nonzero">
            <g id="Services" transform="translate(213.000000, 2854.000000)">
                <g id="tools" transform="translate(449.000000, 613.000000)">
                    <path d="M56.5875254,45.3072849 C55.3410432,44.4303439 53.9025332,43.9592531 52.4494951,43.8824168 C46.9728937,40.2971137 43.3854058,37.6060866 41.2909081,35.5121805 L34.8569793,29.0800694 L38.7612721,24.7109424 C39.5012647,25.1285055 40.2959718,25.4036403 41.0909132,25.5171378 C41.6907806,25.6170484 42.0906531,25.6170484 42.4906427,25.6170484 C43.2905049,25.6170484 43.4903826,25.6170484 44.2902448,26.3166569 C43.8903723,26.6165059 43.6903774,27.1162931 43.6903774,27.6159633 C43.6903774,28.1156334 43.8903723,28.7154484 44.2902448,29.115208 L47.78951,32.6134846 C48.2894385,33.2131825 49.0891836,33.5130314 49.8890457,33.5130314 C50.6889079,33.5130314 51.4886529,33.2131825 51.9885814,32.513574 L59.0870508,25.4171101 C59.6869181,24.9173228 59.9868518,24.1178037 59.9868518,23.3181675 C59.9868518,22.5185313 59.6869181,21.8189228 59.0870508,21.219225 L55.5877855,17.7209483 C55.187913,17.3211888 54.6879845,17.1212504 54.188056,17.1212504 C53.6881275,17.1212504 53.1883161,17.4210994 52.7883265,17.7209483 C51.9884643,17.0213398 51.9884643,16.8214015 51.9884643,16.0217653 C51.9884643,15.6220057 51.9884643,15.1222185 51.7884694,14.5225206 C51.5884746,13.1231865 50.8886684,11.7239695 49.7888726,10.6244844 L46.1896685,7.02629713 C44.0901328,4.92735456 43.0903929,3.92789715 40.3909899,2.72850139 C34.5923112,0.0298609481 28.6935766,0.529648221 20.0954389,4.42768442 C19.5955104,4.62762275 19.3956328,5.0273823 19.4955716,5.52716957 C19.5955104,6.02695684 19.9955001,6.32680578 20.4953114,6.32680578 L21.794985,6.32680578 C26.1940512,6.32680578 28.4934646,6.32680578 32.4926584,10.3247526 C34.2437555,12.075355 34.2942522,14.7595887 32.7253413,16.7344922 C32.5138646,16.7663511 32.3528846,16.8612252 32.1927247,17.0213398 L27.7515974,21.976812 L24.3944492,18.6206123 C20.704562,14.9317675 18.1091985,11.4416899 16.1117105,7.55548366 C16.0068509,5.58901341 15.2175333,3.74915907 13.7968318,2.32885898 C12.0972858,0.629793082 9.69781638,-0.16984313 7.29834699,0.0300952051 C6.99841332,0.130005808 6.69847965,0.329944143 6.59854081,0.529882478 C6.39854597,0.829731417 6.39854597,1.22949096 6.59854081,1.5293399 L9.3978827,6.52686125 C8.79801536,7.8261676 7.39828583,8.62580381 5.99867346,8.52589321 L3.09927557,3.72819307 C2.99933673,3.42834413 2.59934706,3.22840579 2.29941339,3.22840579 C1.99947971,3.12849519 1.69954604,3.3283164 1.4995512,3.62816534 C-0.899918181,7.2263526 -0.000117161591,12.0239356 3.59908692,14.5226377 C4.8391252,15.4081291 6.23616001,15.9005373 7.65100338,16.0015021 C7.6668202,16.0081784 7.68169972,16.0163774 7.69810234,16.0218824 C11.5972401,18.0209144 15.0965053,20.6195271 18.7956482,24.3177421 L22.4521443,27.8900439 L1.19973469,51.6041126 C0.39987251,52.4037488 0,53.5031168 0,54.602602 C0,55.7020871 0.39987251,56.7015445 1.19973469,57.5011808 L2.59946422,58.9005148 C3.3993264,59.6001233 4.39906626,60 5.39880612,60 C6.39854597,60 7.49834183,59.6002405 8.29820401,58.8006042 L29.5263612,35.0454235 L35.6921071,41.2094275 C37.7896511,43.3063789 40.4860079,46.9996745 44.0801741,52.3886392 C44.2090518,54.3122405 44.9964949,56.1082887 46.3897805,57.5011808 C47.8894489,59.0004255 49.8890457,59.8000617 51.9885814,59.8000617 C52.2885151,59.8000617 52.5884488,59.8000617 52.7884436,59.8000617 C53.0883773,59.8000617 53.388311,59.6001233 53.5883058,59.3002744 C53.7883006,59.0004255 53.7883006,58.6006659 53.5883058,58.300817 L50.6889079,53.4033234 C51.3887141,52.104017 52.6885048,51.3043808 54.1881732,51.4042914 L56.9875151,56.2018744 C57.0874539,56.5017233 57.4874436,56.7016617 57.7873772,56.7016617 C58.1872497,56.6017511 58.4871834,56.5017233 58.6871783,56.2018744 C61.0865305,52.60357 60.0866735,47.805987 56.5875254,45.3072849 Z M33.7925662,8.72571442 C30.5932347,5.62731443 28.1937653,4.62773988 25.4943622,4.32789095 C31.193102,2.52879732 35.3921734,2.62870792 39.5912449,4.52782928 C41.9907142,5.5272867 42.7905764,6.32692291 44.8901121,8.42586548 L48.4893162,12.0240527 C49.2891784,12.823689 49.7889897,13.8231464 49.8890457,14.8226038 C49.9889846,15.3223911 49.9889846,15.7221506 49.9889846,16.0219995 C49.9889846,17.1214847 50.0889234,17.9210038 51.2886581,19.1203995 C51.6885306,19.5201591 52.288398,19.7200974 52.7883265,19.7200974 C53.3881938,19.7200974 53.8881223,19.5201591 54.188056,19.1203995 L57.6873212,22.6186762 C57.8873161,22.8186145 57.9872549,23.0184357 57.9872549,23.3182847 C57.9872549,23.6181336 57.8873161,23.8180719 57.6873212,24.0178931 L50.5888519,31.1143571 C50.1889794,31.5141166 49.5891121,31.5141166 49.1891224,31.1143571 L45.6898572,27.6160804 C46.0897297,27.3162315 46.2897245,26.8164442 46.1897857,26.2167463 C46.1897857,25.716959 45.9897908,25.1172612 45.5899183,24.7175016 C44.3901836,23.5181059 43.5903214,23.4181953 42.4906427,23.4181953 C42.1907091,23.4181953 41.7908366,23.4181953 41.2909081,23.3182847 C40.1911122,23.2183741 39.2913112,22.7185868 38.4915662,21.9189506 L34.1925559,17.6211548 C36.3919133,14.9226315 36.1920356,11.1245059 33.7925662,8.72571442 Z M2.39946938,6.32692291 L4.4990051,9.92511017 C4.69899993,10.2249591 4.99893361,10.4248974 5.29886728,10.4248974 L5.79879579,10.4248974 C8.09832634,10.524808 10.197862,9.32541229 11.1976019,7.32649746 L11.3975967,6.82671018 C11.5975916,6.52686125 11.5975916,6.22701231 11.3975967,5.92716337 L9.19800503,2.12903777 C10.3977397,2.32897611 11.4975356,2.92867399 12.3973366,3.8282208 C13.4281243,4.94457245 14.0880955,6.35643929 14.1271103,7.873019 C14.1077787,7.94997242 14.0968826,8.03278226 14.0968826,8.12613367 C14.0968826,8.58902547 14.0409966,9.0405558 13.9375429,9.47580528 C13.5603997,10.9230449 12.6560294,12.1848702 11.3974796,13.0237444 C9.3978827,14.3230508 6.69847965,14.3230508 4.69899993,12.9238338 C2.59946422,11.4243549 1.6996632,8.72571442 2.39946938,6.32692291 Z M20.1954949,22.9185251 C17.1961582,19.8201251 14.1968215,17.4213336 10.9974899,15.5222123 C11.4974184,15.3222739 12.0972858,15.022425 12.5970971,14.7225761 C14.0967655,13.7231186 15.0965053,12.4236952 15.6963727,10.8245399 C17.5959136,14.0229676 19.9953829,17.021457 22.9947197,20.0199463 L26.4287259,23.4529824 L23.7357667,26.4579139 L20.1954949,22.9185251 Z M6.89847448,57.3012424 C6.0986123,58.1008786 4.79893877,58.2007892 3.99907659,57.401153 L2.59934706,56.1018467 C2.19947455,55.7020871 1.99947971,55.2022999 1.99947971,54.7025126 C1.99947971,54.1028147 2.19947455,53.6030274 2.6992859,53.1033573 L3.26552787,52.4700435 L4.69888277,53.9029935 C4.89887761,54.1029318 5.09875528,54.2028424 5.39868895,54.2028424 C5.69862263,54.2028424 5.89861746,54.1029318 6.09849514,53.9029935 C6.49836765,53.503234 6.49836765,52.9035361 6.09849514,52.5036594 L4.58664197,50.9922334 L5.90787323,49.5144232 L7.49822467,51.1043253 C7.6982195,51.3042637 7.89809718,51.4041743 8.19803085,51.4041743 C8.49796452,51.4041743 8.69795936,51.3042637 8.89783703,51.1043253 C9.29770954,50.7045658 9.29770954,50.1048679 8.89783703,49.7049912 L7.22922165,48.0367301 L32.9454879,19.2731351 L37.1445593,23.4710202 L33.0187139,28.0857657 C32.9008494,28.1356624 32.7965755,28.211913 32.6927704,28.315806 L28.6936938,32.8135401 C28.5794612,32.9277404 28.4990884,33.0584558 28.4501148,33.1958475 L6.89847448,57.3012424 Z M30.8943399,33.514437 L33.6304146,30.4526982 L40.0910562,36.9115146 C41.8906582,38.8105189 44.9899338,41.2093104 49.4889389,44.2077997 C48.8890716,44.4077381 48.2892042,44.707587 47.6893369,45.1073466 C46.4489471,45.8823858 45.5704695,46.9584452 44.9583002,48.1480022 C44.9492787,48.1649858 44.9409603,48.1823208 44.932056,48.1994216 C44.8957359,48.2709871 44.8603531,48.342904 44.8259076,48.4152894 C44.7765825,48.5177768 44.7297179,48.6214356 44.684845,48.7261484 C44.6541487,48.7970112 44.6235695,48.8678739 44.5946306,48.9392052 C44.5905299,48.9495125 44.5865464,48.9598198 44.5824458,48.9701271 C44.5509293,49.0483689 44.5196472,49.1266107 44.4901225,49.2053211 C43.9222402,48.3726546 43.3759157,47.5868396 42.850446,46.8465875 L44.1901888,45.5072232 C44.5900613,45.1074637 44.5900613,44.5077658 44.1901888,44.1078891 C43.7903163,43.7081296 43.1904489,43.7081296 42.7904593,44.1078891 L41.675901,45.2221325 C41.260446,44.6585102 40.8591676,44.126864 40.4720657,43.6270767 L41.3908469,42.7085551 C41.7907194,42.3087955 41.7907194,41.7090976 41.3908469,41.309221 C40.9909744,40.9094614 40.391107,40.9094614 39.9911174,41.309221 L39.2279268,42.072196 C38.4930893,41.1868217 37.8153095,40.4333341 37.1917755,39.8099763 L30.8943399,33.514437 Z M57.6872041,53.5031168 L55.5876684,49.9049296 C55.3876735,49.6050806 55.0877399,49.4051423 54.7878062,49.4051423 L54.2878777,49.4051423 C51.9883471,49.205204 49.8888114,50.5046274 48.8890716,52.5035423 L48.6890767,53.0033296 C48.4890819,53.3031785 48.4890819,53.6030274 48.6890767,53.9028764 L50.8885513,57.701002 C49.6888166,57.5010636 48.5890207,56.9013658 47.6892197,56.0018189 C46.677998,54.9065504 46.0243535,53.5268939 45.9628437,52.0432273 C45.9799492,51.9701391 45.9895565,51.891663 45.9895565,51.8039338 C45.9895565,50.5377748 46.3916551,49.3523173 47.0923986,48.3481748 C47.5229674,47.7491797 48.0614421,47.2247954 48.6889596,46.8065296 C49.6886994,46.1069211 50.7884953,45.8070722 51.98823,45.8070722 C53.1879647,45.8070722 54.3876993,46.2068317 55.3874392,46.9065573 C57.4873264,48.4056849 58.3871274,51.1043253 57.6872041,53.5031168 Z" id="Shape"></path>
                </g>
            </g>
        </g>
    </g>
</svg>